<?xml version="1.0" encoding="utf-8" standalone="no"?>
<!DOCTYPE svg PUBLIC "-//W3C//DTD SVG 1.1//EN"
  "http://www.w3.org/Graphics/SVG/1.1/DTD/svg11.dtd">
<svg xmlns:xlink="http://www.w3.org/1999/xlink" width="288pt" height="216pt" viewBox="0 0 288 216" xmlns="http://www.w3.org/2000/svg" version="1.1">
 <metadata>
  <rdf:RDF xmlns:dc="http://purl.org/dc/elements/1.1/" xmlns:cc="http://creativecommons.org/ns#" xmlns:rdf="http://www.w3.org/1999/02/22-rdf-syntax-ns#">
   <cc:Work>
    <dc:type rdf:resource="http://purl.org/dc/dcmitype/StillImage"/>
    <dc:date>2022-07-30T20:13:41.738884</dc:date>
    <dc:format>image/svg+xml</dc:format>
    <dc:creator>
     <cc:Agent>
      <dc:title>Matplotlib v3.5.1, https://matplotlib.org/</dc:title>
     </cc:Agent>
    </dc:creator>
   </cc:Work>
  </rdf:RDF>
 </metadata>
 <defs>
  <style type="text/css">*{stroke-linejoin: round; stroke-linecap: butt}</style>
 </defs>
 <g id="figure_1">
  <g id="patch_1">
   <path d="M 0 216 
L 288 216 
L 288 0 
L 0 0 
z
" style="fill: #ffffff"/>
  </g>
  <g id="axes_1">
   <g id="patch_2">
    <path d="M 43.633365 179.836635 
L 280.468026 179.836635 
L 280.468026 17.638052 
L 43.633365 17.638052 
z
" style="fill: #ffffff"/>
   </g>
   <g id="matplotlib.axis_1">
    <g id="xtick_1">
     <g id="line2d_1">
      <path d="M 47.453279 179.836635 
L 47.453279 17.638052 
" clip-path="url(#p613608418b)" style="fill: none; stroke: #cccccc; stroke-width: 0.6; stroke-linecap: round"/>
     </g>
     <g id="line2d_2">
      <defs>
       <path id="m33309cbd1b" d="M 0 0 
L 0 4 
" style="stroke: #262626; stroke-width: 0.6"/>
      </defs>
      <g>
       <use xlink:href="#m33309cbd1b" x="47.453279" y="179.836635" style="fill: #262626; stroke: #262626; stroke-width: 0.6"/>
      </g>
     </g>
     <g id="text_1">
      <!-- 0 -->
      <g style="fill: #262626" transform="translate(43.635779 194.95476)scale(0.12 -0.12)">
       <defs>
        <path id="DejaVuSans-30" d="M 2034 4250 
Q 1547 4250 1301 3770 
Q 1056 3291 1056 2328 
Q 1056 1369 1301 889 
Q 1547 409 2034 409 
Q 2525 409 2770 889 
Q 3016 1369 3016 2328 
Q 3016 3291 2770 3770 
Q 2525 4250 2034 4250 
z
M 2034 4750 
Q 2819 4750 3233 4129 
Q 3647 3509 3647 2328 
Q 3647 1150 3233 529 
Q 2819 -91 2034 -91 
Q 1250 -91 836 529 
Q 422 1150 422 2328 
Q 422 3509 836 4129 
Q 1250 4750 2034 4750 
z
" transform="scale(0.015625)"/>
       </defs>
       <use xlink:href="#DejaVuSans-30"/>
      </g>
     </g>
    </g>
    <g id="xtick_2">
     <g id="line2d_3">
      <path d="M 103.015663 179.836635 
L 103.015663 17.638052 
" clip-path="url(#p613608418b)" style="fill: none; stroke: #cccccc; stroke-width: 0.6; stroke-linecap: round"/>
     </g>
     <g id="line2d_4">
      <g>
       <use xlink:href="#m33309cbd1b" x="103.015663" y="179.836635" style="fill: #262626; stroke: #262626; stroke-width: 0.6"/>
      </g>
     </g>
     <g id="text_2">
      <!-- 400 -->
      <g style="fill: #262626" transform="translate(91.563163 194.95476)scale(0.12 -0.12)">
       <defs>
        <path id="DejaVuSans-34" d="M 2419 4116 
L 825 1625 
L 2419 1625 
L 2419 4116 
z
M 2253 4666 
L 3047 4666 
L 3047 1625 
L 3713 1625 
L 3713 1100 
L 3047 1100 
L 3047 0 
L 2419 0 
L 2419 1100 
L 313 1100 
L 313 1709 
L 2253 4666 
z
" transform="scale(0.015625)"/>
       </defs>
       <use xlink:href="#DejaVuSans-34"/>
       <use xlink:href="#DejaVuSans-30" x="63.623047"/>
       <use xlink:href="#DejaVuSans-30" x="127.246094"/>
      </g>
     </g>
    </g>
    <g id="xtick_3">
     <g id="line2d_5">
      <path d="M 158.578046 179.836635 
L 158.578046 17.638052 
" clip-path="url(#p613608418b)" style="fill: none; stroke: #cccccc; stroke-width: 0.6; stroke-linecap: round"/>
     </g>
     <g id="line2d_6">
      <g>
       <use xlink:href="#m33309cbd1b" x="158.578046" y="179.836635" style="fill: #262626; stroke: #262626; stroke-width: 0.6"/>
      </g>
     </g>
     <g id="text_3">
      <!-- 800 -->
      <g style="fill: #262626" transform="translate(147.125546 194.95476)scale(0.12 -0.12)">
       <defs>
        <path id="DejaVuSans-38" d="M 2034 2216 
Q 1584 2216 1326 1975 
Q 1069 1734 1069 1313 
Q 1069 891 1326 650 
Q 1584 409 2034 409 
Q 2484 409 2743 651 
Q 3003 894 3003 1313 
Q 3003 1734 2745 1975 
Q 2488 2216 2034 2216 
z
M 1403 2484 
Q 997 2584 770 2862 
Q 544 3141 544 3541 
Q 544 4100 942 4425 
Q 1341 4750 2034 4750 
Q 2731 4750 3128 4425 
Q 3525 4100 3525 3541 
Q 3525 3141 3298 2862 
Q 3072 2584 2669 2484 
Q 3125 2378 3379 2068 
Q 3634 1759 3634 1313 
Q 3634 634 3220 271 
Q 2806 -91 2034 -91 
Q 1263 -91 848 271 
Q 434 634 434 1313 
Q 434 1759 690 2068 
Q 947 2378 1403 2484 
z
M 1172 3481 
Q 1172 3119 1398 2916 
Q 1625 2713 2034 2713 
Q 2441 2713 2670 2916 
Q 2900 3119 2900 3481 
Q 2900 3844 2670 4047 
Q 2441 4250 2034 4250 
Q 1625 4250 1398 4047 
Q 1172 3844 1172 3481 
z
" transform="scale(0.015625)"/>
       </defs>
       <use xlink:href="#DejaVuSans-38"/>
       <use xlink:href="#DejaVuSans-30" x="63.623047"/>
       <use xlink:href="#DejaVuSans-30" x="127.246094"/>
      </g>
     </g>
    </g>
    <g id="xtick_4">
     <g id="line2d_7">
      <path d="M 214.14043 179.836635 
L 214.14043 17.638052 
" clip-path="url(#p613608418b)" style="fill: none; stroke: #cccccc; stroke-width: 0.6; stroke-linecap: round"/>
     </g>
     <g id="line2d_8">
      <g>
       <use xlink:href="#m33309cbd1b" x="214.14043" y="179.836635" style="fill: #262626; stroke: #262626; stroke-width: 0.6"/>
      </g>
     </g>
     <g id="text_4">
      <!-- 1200 -->
      <g style="fill: #262626" transform="translate(198.87043 194.95476)scale(0.12 -0.12)">
       <defs>
        <path id="DejaVuSans-31" d="M 794 531 
L 1825 531 
L 1825 4091 
L 703 3866 
L 703 4441 
L 1819 4666 
L 2450 4666 
L 2450 531 
L 3481 531 
L 3481 0 
L 794 0 
L 794 531 
z
" transform="scale(0.015625)"/>
        <path id="DejaVuSans-32" d="M 1228 531 
L 3431 531 
L 3431 0 
L 469 0 
L 469 531 
Q 828 903 1448 1529 
Q 2069 2156 2228 2338 
Q 2531 2678 2651 2914 
Q 2772 3150 2772 3378 
Q 2772 3750 2511 3984 
Q 2250 4219 1831 4219 
Q 1534 4219 1204 4116 
Q 875 4013 500 3803 
L 500 4441 
Q 881 4594 1212 4672 
Q 1544 4750 1819 4750 
Q 2544 4750 2975 4387 
Q 3406 4025 3406 3419 
Q 3406 3131 3298 2873 
Q 3191 2616 2906 2266 
Q 2828 2175 2409 1742 
Q 1991 1309 1228 531 
z
" transform="scale(0.015625)"/>
       </defs>
       <use xlink:href="#DejaVuSans-31"/>
       <use xlink:href="#DejaVuSans-32" x="63.623047"/>
       <use xlink:href="#DejaVuSans-30" x="127.246094"/>
       <use xlink:href="#DejaVuSans-30" x="190.869141"/>
      </g>
     </g>
    </g>
    <g id="xtick_5">
     <g id="line2d_9">
      <path d="M 269.702814 179.836635 
L 269.702814 17.638052 
" clip-path="url(#p613608418b)" style="fill: none; stroke: #cccccc; stroke-width: 0.6; stroke-linecap: round"/>
     </g>
     <g id="line2d_10">
      <g>
       <use xlink:href="#m33309cbd1b" x="269.702814" y="179.836635" style="fill: #262626; stroke: #262626; stroke-width: 0.6"/>
      </g>
     </g>
     <g id="text_5">
      <!-- 1600 -->
      <g style="fill: #262626" transform="translate(254.432814 194.95476)scale(0.12 -0.12)">
       <defs>
        <path id="DejaVuSans-36" d="M 2113 2584 
Q 1688 2584 1439 2293 
Q 1191 2003 1191 1497 
Q 1191 994 1439 701 
Q 1688 409 2113 409 
Q 2538 409 2786 701 
Q 3034 994 3034 1497 
Q 3034 2003 2786 2293 
Q 2538 2584 2113 2584 
z
M 3366 4563 
L 3366 3988 
Q 3128 4100 2886 4159 
Q 2644 4219 2406 4219 
Q 1781 4219 1451 3797 
Q 1122 3375 1075 2522 
Q 1259 2794 1537 2939 
Q 1816 3084 2150 3084 
Q 2853 3084 3261 2657 
Q 3669 2231 3669 1497 
Q 3669 778 3244 343 
Q 2819 -91 2113 -91 
Q 1303 -91 875 529 
Q 447 1150 447 2328 
Q 447 3434 972 4092 
Q 1497 4750 2381 4750 
Q 2619 4750 2861 4703 
Q 3103 4656 3366 4563 
z
" transform="scale(0.015625)"/>
       </defs>
       <use xlink:href="#DejaVuSans-31"/>
       <use xlink:href="#DejaVuSans-36" x="63.623047"/>
       <use xlink:href="#DejaVuSans-30" x="127.246094"/>
       <use xlink:href="#DejaVuSans-30" x="190.869141"/>
      </g>
     </g>
    </g>
    <g id="text_6">
     <!-- Step -->
     <g style="fill: #262626" transform="translate(146.111477 210.088198)scale(0.14 -0.14)">
      <defs>
       <path id="DejaVuSans-53" d="M 3425 4513 
L 3425 3897 
Q 3066 4069 2747 4153 
Q 2428 4238 2131 4238 
Q 1616 4238 1336 4038 
Q 1056 3838 1056 3469 
Q 1056 3159 1242 3001 
Q 1428 2844 1947 2747 
L 2328 2669 
Q 3034 2534 3370 2195 
Q 3706 1856 3706 1288 
Q 3706 609 3251 259 
Q 2797 -91 1919 -91 
Q 1588 -91 1214 -16 
Q 841 59 441 206 
L 441 856 
Q 825 641 1194 531 
Q 1563 422 1919 422 
Q 2459 422 2753 634 
Q 3047 847 3047 1241 
Q 3047 1584 2836 1778 
Q 2625 1972 2144 2069 
L 1759 2144 
Q 1053 2284 737 2584 
Q 422 2884 422 3419 
Q 422 4038 858 4394 
Q 1294 4750 2059 4750 
Q 2388 4750 2728 4690 
Q 3069 4631 3425 4513 
z
" transform="scale(0.015625)"/>
       <path id="DejaVuSans-74" d="M 1172 4494 
L 1172 3500 
L 2356 3500 
L 2356 3053 
L 1172 3053 
L 1172 1153 
Q 1172 725 1289 603 
Q 1406 481 1766 481 
L 2356 481 
L 2356 0 
L 1766 0 
Q 1100 0 847 248 
Q 594 497 594 1153 
L 594 3053 
L 172 3053 
L 172 3500 
L 594 3500 
L 594 4494 
L 1172 4494 
z
" transform="scale(0.015625)"/>
       <path id="DejaVuSans-65" d="M 3597 1894 
L 3597 1613 
L 953 1613 
Q 991 1019 1311 708 
Q 1631 397 2203 397 
Q 2534 397 2845 478 
Q 3156 559 3463 722 
L 3463 178 
Q 3153 47 2828 -22 
Q 2503 -91 2169 -91 
Q 1331 -91 842 396 
Q 353 884 353 1716 
Q 353 2575 817 3079 
Q 1281 3584 2069 3584 
Q 2775 3584 3186 3129 
Q 3597 2675 3597 1894 
z
M 3022 2063 
Q 3016 2534 2758 2815 
Q 2500 3097 2075 3097 
Q 1594 3097 1305 2825 
Q 1016 2553 972 2059 
L 3022 2063 
z
" transform="scale(0.015625)"/>
       <path id="DejaVuSans-70" d="M 1159 525 
L 1159 -1331 
L 581 -1331 
L 581 3500 
L 1159 3500 
L 1159 2969 
Q 1341 3281 1617 3432 
Q 1894 3584 2278 3584 
Q 2916 3584 3314 3078 
Q 3713 2572 3713 1747 
Q 3713 922 3314 415 
Q 2916 -91 2278 -91 
Q 1894 -91 1617 61 
Q 1341 213 1159 525 
z
M 3116 1747 
Q 3116 2381 2855 2742 
Q 2594 3103 2138 3103 
Q 1681 3103 1420 2742 
Q 1159 2381 1159 1747 
Q 1159 1113 1420 752 
Q 1681 391 2138 391 
Q 2594 391 2855 752 
Q 3116 1113 3116 1747 
z
" transform="scale(0.015625)"/>
      </defs>
      <use xlink:href="#DejaVuSans-53"/>
      <use xlink:href="#DejaVuSans-74" x="63.476562"/>
      <use xlink:href="#DejaVuSans-65" x="102.685547"/>
      <use xlink:href="#DejaVuSans-70" x="164.208984"/>
     </g>
    </g>
   </g>
   <g id="matplotlib.axis_2">
    <g id="ytick_1">
     <g id="line2d_11">
      <path d="M 43.633365 173.948899 
L 280.468026 173.948899 
" clip-path="url(#p613608418b)" style="fill: none; stroke: #cccccc; stroke-width: 0.6; stroke-linecap: round"/>
     </g>
     <g id="line2d_12">
      <defs>
       <path id="mcf3a4e988f" d="M 0 0 
L -4 0 
" style="stroke: #262626; stroke-width: 0.6"/>
      </defs>
      <g>
       <use xlink:href="#mcf3a4e988f" x="43.633365" y="173.948899" style="fill: #262626; stroke: #262626; stroke-width: 0.6"/>
      </g>
     </g>
     <g id="text_7">
      <!-- 0.0 -->
      <g style="fill: #262626" transform="translate(18.549615 178.507962)scale(0.12 -0.12)">
       <defs>
        <path id="DejaVuSans-2e" d="M 684 794 
L 1344 794 
L 1344 0 
L 684 0 
L 684 794 
z
" transform="scale(0.015625)"/>
       </defs>
       <use xlink:href="#DejaVuSans-30"/>
       <use xlink:href="#DejaVuSans-2e" x="63.623047"/>
       <use xlink:href="#DejaVuSans-30" x="95.410156"/>
      </g>
     </g>
    </g>
    <g id="ytick_2">
     <g id="line2d_13">
      <path d="M 43.633365 143.537593 
L 280.468026 143.537593 
" clip-path="url(#p613608418b)" style="fill: none; stroke: #cccccc; stroke-width: 0.6; stroke-linecap: round"/>
     </g>
     <g id="line2d_14">
      <g>
       <use xlink:href="#mcf3a4e988f" x="43.633365" y="143.537593" style="fill: #262626; stroke: #262626; stroke-width: 0.6"/>
      </g>
     </g>
     <g id="text_8">
      <!-- 0.2 -->
      <g style="fill: #262626" transform="translate(18.549615 148.096656)scale(0.12 -0.12)">
       <use xlink:href="#DejaVuSans-30"/>
       <use xlink:href="#DejaVuSans-2e" x="63.623047"/>
       <use xlink:href="#DejaVuSans-32" x="95.410156"/>
      </g>
     </g>
    </g>
    <g id="ytick_3">
     <g id="line2d_15">
      <path d="M 43.633365 113.126287 
L 280.468026 113.126287 
" clip-path="url(#p613608418b)" style="fill: none; stroke: #cccccc; stroke-width: 0.6; stroke-linecap: round"/>
     </g>
     <g id="line2d_16">
      <g>
       <use xlink:href="#mcf3a4e988f" x="43.633365" y="113.126287" style="fill: #262626; stroke: #262626; stroke-width: 0.6"/>
      </g>
     </g>
     <g id="text_9">
      <!-- 0.4 -->
      <g style="fill: #262626" transform="translate(18.549615 117.685349)scale(0.12 -0.12)">
       <use xlink:href="#DejaVuSans-30"/>
       <use xlink:href="#DejaVuSans-2e" x="63.623047"/>
       <use xlink:href="#DejaVuSans-34" x="95.410156"/>
      </g>
     </g>
    </g>
    <g id="ytick_4">
     <g id="line2d_17">
      <path d="M 43.633365 82.714981 
L 280.468026 82.714981 
" clip-path="url(#p613608418b)" style="fill: none; stroke: #cccccc; stroke-width: 0.6; stroke-linecap: round"/>
     </g>
     <g id="line2d_18">
      <g>
       <use xlink:href="#mcf3a4e988f" x="43.633365" y="82.714981" style="fill: #262626; stroke: #262626; stroke-width: 0.6"/>
      </g>
     </g>
     <g id="text_10">
      <!-- 0.6 -->
      <g style="fill: #262626" transform="translate(18.549615 87.274043)scale(0.12 -0.12)">
       <use xlink:href="#DejaVuSans-30"/>
       <use xlink:href="#DejaVuSans-2e" x="63.623047"/>
       <use xlink:href="#DejaVuSans-36" x="95.410156"/>
      </g>
     </g>
    </g>
    <g id="ytick_5">
     <g id="line2d_19">
      <path d="M 43.633365 52.303675 
L 280.468026 52.303675 
" clip-path="url(#p613608418b)" style="fill: none; stroke: #cccccc; stroke-width: 0.6; stroke-linecap: round"/>
     </g>
     <g id="line2d_20">
      <g>
       <use xlink:href="#mcf3a4e988f" x="43.633365" y="52.303675" style="fill: #262626; stroke: #262626; stroke-width: 0.6"/>
      </g>
     </g>
     <g id="text_11">
      <!-- 0.8 -->
      <g style="fill: #262626" transform="translate(18.549615 56.862737)scale(0.12 -0.12)">
       <use xlink:href="#DejaVuSans-30"/>
       <use xlink:href="#DejaVuSans-2e" x="63.623047"/>
       <use xlink:href="#DejaVuSans-38" x="95.410156"/>
      </g>
     </g>
    </g>
    <g id="ytick_6">
     <g id="line2d_21">
      <path d="M 43.633365 21.892369 
L 280.468026 21.892369 
" clip-path="url(#p613608418b)" style="fill: none; stroke: #cccccc; stroke-width: 0.6; stroke-linecap: round"/>
     </g>
     <g id="line2d_22">
      <g>
       <use xlink:href="#mcf3a4e988f" x="43.633365" y="21.892369" style="fill: #262626; stroke: #262626; stroke-width: 0.6"/>
      </g>
     </g>
     <g id="text_12">
      <!-- 1.0 -->
      <g style="fill: #262626" transform="translate(18.549615 26.451431)scale(0.12 -0.12)">
       <use xlink:href="#DejaVuSans-31"/>
       <use xlink:href="#DejaVuSans-2e" x="63.623047"/>
       <use xlink:href="#DejaVuSans-30" x="95.410156"/>
      </g>
     </g>
    </g>
    <g id="text_13">
     <!-- Accuracy -->
     <g style="fill: #262626" transform="translate(13.638052 130.696719)rotate(-90)scale(0.14 -0.14)">
      <defs>
       <path id="DejaVuSans-41" d="M 2188 4044 
L 1331 1722 
L 3047 1722 
L 2188 4044 
z
M 1831 4666 
L 2547 4666 
L 4325 0 
L 3669 0 
L 3244 1197 
L 1141 1197 
L 716 0 
L 50 0 
L 1831 4666 
z
" transform="scale(0.015625)"/>
       <path id="DejaVuSans-63" d="M 3122 3366 
L 3122 2828 
Q 2878 2963 2633 3030 
Q 2388 3097 2138 3097 
Q 1578 3097 1268 2742 
Q 959 2388 959 1747 
Q 959 1106 1268 751 
Q 1578 397 2138 397 
Q 2388 397 2633 464 
Q 2878 531 3122 666 
L 3122 134 
Q 2881 22 2623 -34 
Q 2366 -91 2075 -91 
Q 1284 -91 818 406 
Q 353 903 353 1747 
Q 353 2603 823 3093 
Q 1294 3584 2113 3584 
Q 2378 3584 2631 3529 
Q 2884 3475 3122 3366 
z
" transform="scale(0.015625)"/>
       <path id="DejaVuSans-75" d="M 544 1381 
L 544 3500 
L 1119 3500 
L 1119 1403 
Q 1119 906 1312 657 
Q 1506 409 1894 409 
Q 2359 409 2629 706 
Q 2900 1003 2900 1516 
L 2900 3500 
L 3475 3500 
L 3475 0 
L 2900 0 
L 2900 538 
Q 2691 219 2414 64 
Q 2138 -91 1772 -91 
Q 1169 -91 856 284 
Q 544 659 544 1381 
z
M 1991 3584 
L 1991 3584 
z
" transform="scale(0.015625)"/>
       <path id="DejaVuSans-72" d="M 2631 2963 
Q 2534 3019 2420 3045 
Q 2306 3072 2169 3072 
Q 1681 3072 1420 2755 
Q 1159 2438 1159 1844 
L 1159 0 
L 581 0 
L 581 3500 
L 1159 3500 
L 1159 2956 
Q 1341 3275 1631 3429 
Q 1922 3584 2338 3584 
Q 2397 3584 2469 3576 
Q 2541 3569 2628 3553 
L 2631 2963 
z
" transform="scale(0.015625)"/>
       <path id="DejaVuSans-61" d="M 2194 1759 
Q 1497 1759 1228 1600 
Q 959 1441 959 1056 
Q 959 750 1161 570 
Q 1363 391 1709 391 
Q 2188 391 2477 730 
Q 2766 1069 2766 1631 
L 2766 1759 
L 2194 1759 
z
M 3341 1997 
L 3341 0 
L 2766 0 
L 2766 531 
Q 2569 213 2275 61 
Q 1981 -91 1556 -91 
Q 1019 -91 701 211 
Q 384 513 384 1019 
Q 384 1609 779 1909 
Q 1175 2209 1959 2209 
L 2766 2209 
L 2766 2266 
Q 2766 2663 2505 2880 
Q 2244 3097 1772 3097 
Q 1472 3097 1187 3025 
Q 903 2953 641 2809 
L 641 3341 
Q 956 3463 1253 3523 
Q 1550 3584 1831 3584 
Q 2591 3584 2966 3190 
Q 3341 2797 3341 1997 
z
" transform="scale(0.015625)"/>
       <path id="DejaVuSans-79" d="M 2059 -325 
Q 1816 -950 1584 -1140 
Q 1353 -1331 966 -1331 
L 506 -1331 
L 506 -850 
L 844 -850 
Q 1081 -850 1212 -737 
Q 1344 -625 1503 -206 
L 1606 56 
L 191 3500 
L 800 3500 
L 1894 763 
L 2988 3500 
L 3597 3500 
L 2059 -325 
z
" transform="scale(0.015625)"/>
      </defs>
      <use xlink:href="#DejaVuSans-41"/>
      <use xlink:href="#DejaVuSans-63" x="66.658203"/>
      <use xlink:href="#DejaVuSans-63" x="121.638672"/>
      <use xlink:href="#DejaVuSans-75" x="176.619141"/>
      <use xlink:href="#DejaVuSans-72" x="239.998047"/>
      <use xlink:href="#DejaVuSans-61" x="281.111328"/>
      <use xlink:href="#DejaVuSans-63" x="342.390625"/>
      <use xlink:href="#DejaVuSans-79" x="397.371094"/>
     </g>
    </g>
   </g>
   <g id="line2d_23">
    <path d="M 54.398577 172.463972 
L 61.343875 172.09274 
L 68.289173 172.315479 
L 75.234471 172.315479 
L 82.179769 172.018494 
L 89.125067 172.166987 
L 96.070365 170.979045 
L 103.015663 170.904799 
L 109.960961 169.791103 
L 116.906259 170.904799 
L 123.851557 169.271379 
L 130.796855 170.756306 
L 137.742153 169.568364 
L 144.687451 166.375771 
L 151.632748 166.227279 
L 158.578046 165.039337 
L 165.523344 164.074134 
L 172.468642 162.811946 
L 179.41394 160.436063 
L 186.359238 160.881541 
L 193.304536 159.47086 
L 200.249834 158.208672 
L 207.195132 156.055528 
L 214.14043 152.937181 
L 221.085728 152.268964 
L 228.031026 147.220212 
L 234.976324 149.224864 
L 241.921622 146.84898 
L 248.86692 145.364053 
L 255.812218 143.359402 
L 262.757516 140.760779 
L 269.702814 145.512546 
" clip-path="url(#p613608418b)" style="fill: none; stroke: #0173b2; stroke-width: 1.2; stroke-linecap: round"/>
    <defs>
     <path id="maa0a15c97a" d="M 0 1.5 
C 0.397805 1.5 0.77937 1.341951 1.06066 1.06066 
C 1.341951 0.77937 1.5 0.397805 1.5 0 
C 1.5 -0.397805 1.341951 -0.77937 1.06066 -1.06066 
C 0.77937 -1.341951 0.397805 -1.5 0 -1.5 
C -0.397805 -1.5 -0.77937 -1.341951 -1.06066 -1.06066 
C -1.341951 -0.77937 -1.5 -0.397805 -1.5 0 
C -1.5 0.397805 -1.341951 0.77937 -1.06066 1.06066 
C -0.77937 1.341951 -0.397805 1.5 0 1.5 
z
" style="stroke: #0173b2"/>
    </defs>
    <g clip-path="url(#p613608418b)">
     <use xlink:href="#maa0a15c97a" x="54.398577" y="172.463972" style="fill: #0173b2; stroke: #0173b2"/>
     <use xlink:href="#maa0a15c97a" x="61.343875" y="172.09274" style="fill: #0173b2; stroke: #0173b2"/>
     <use xlink:href="#maa0a15c97a" x="68.289173" y="172.315479" style="fill: #0173b2; stroke: #0173b2"/>
     <use xlink:href="#maa0a15c97a" x="75.234471" y="172.315479" style="fill: #0173b2; stroke: #0173b2"/>
     <use xlink:href="#maa0a15c97a" x="82.179769" y="172.018494" style="fill: #0173b2; stroke: #0173b2"/>
     <use xlink:href="#maa0a15c97a" x="89.125067" y="172.166987" style="fill: #0173b2; stroke: #0173b2"/>
     <use xlink:href="#maa0a15c97a" x="96.070365" y="170.979045" style="fill: #0173b2; stroke: #0173b2"/>
     <use xlink:href="#maa0a15c97a" x="103.015663" y="170.904799" style="fill: #0173b2; stroke: #0173b2"/>
     <use xlink:href="#maa0a15c97a" x="109.960961" y="169.791103" style="fill: #0173b2; stroke: #0173b2"/>
     <use xlink:href="#maa0a15c97a" x="116.906259" y="170.904799" style="fill: #0173b2; stroke: #0173b2"/>
     <use xlink:href="#maa0a15c97a" x="123.851557" y="169.271379" style="fill: #0173b2; stroke: #0173b2"/>
     <use xlink:href="#maa0a15c97a" x="130.796855" y="170.756306" style="fill: #0173b2; stroke: #0173b2"/>
     <use xlink:href="#maa0a15c97a" x="137.742153" y="169.568364" style="fill: #0173b2; stroke: #0173b2"/>
     <use xlink:href="#maa0a15c97a" x="144.687451" y="166.375771" style="fill: #0173b2; stroke: #0173b2"/>
     <use xlink:href="#maa0a15c97a" x="151.632748" y="166.227279" style="fill: #0173b2; stroke: #0173b2"/>
     <use xlink:href="#maa0a15c97a" x="158.578046" y="165.039337" style="fill: #0173b2; stroke: #0173b2"/>
     <use xlink:href="#maa0a15c97a" x="165.523344" y="164.074134" style="fill: #0173b2; stroke: #0173b2"/>
     <use xlink:href="#maa0a15c97a" x="172.468642" y="162.811946" style="fill: #0173b2; stroke: #0173b2"/>
     <use xlink:href="#maa0a15c97a" x="179.41394" y="160.436063" style="fill: #0173b2; stroke: #0173b2"/>
     <use xlink:href="#maa0a15c97a" x="186.359238" y="160.881541" style="fill: #0173b2; stroke: #0173b2"/>
     <use xlink:href="#maa0a15c97a" x="193.304536" y="159.47086" style="fill: #0173b2; stroke: #0173b2"/>
     <use xlink:href="#maa0a15c97a" x="200.249834" y="158.208672" style="fill: #0173b2; stroke: #0173b2"/>
     <use xlink:href="#maa0a15c97a" x="207.195132" y="156.055528" style="fill: #0173b2; stroke: #0173b2"/>
     <use xlink:href="#maa0a15c97a" x="214.14043" y="152.937181" style="fill: #0173b2; stroke: #0173b2"/>
     <use xlink:href="#maa0a15c97a" x="221.085728" y="152.268964" style="fill: #0173b2; stroke: #0173b2"/>
     <use xlink:href="#maa0a15c97a" x="228.031026" y="147.220212" style="fill: #0173b2; stroke: #0173b2"/>
     <use xlink:href="#maa0a15c97a" x="234.976324" y="149.224864" style="fill: #0173b2; stroke: #0173b2"/>
     <use xlink:href="#maa0a15c97a" x="241.921622" y="146.84898" style="fill: #0173b2; stroke: #0173b2"/>
     <use xlink:href="#maa0a15c97a" x="248.86692" y="145.364053" style="fill: #0173b2; stroke: #0173b2"/>
     <use xlink:href="#maa0a15c97a" x="255.812218" y="143.359402" style="fill: #0173b2; stroke: #0173b2"/>
     <use xlink:href="#maa0a15c97a" x="262.757516" y="140.760779" style="fill: #0173b2; stroke: #0173b2"/>
     <use xlink:href="#maa0a15c97a" x="269.702814" y="145.512546" style="fill: #0173b2; stroke: #0173b2"/>
    </g>
   </g>
   <g id="line2d_24">
    <path d="M 54.398577 172.09274 
L 61.343875 172.315479 
L 68.289173 170.979045 
L 75.234471 169.568364 
L 82.179769 168.974394 
L 89.125067 165.856047 
L 96.070365 163.702903 
L 103.015663 158.282919 
L 109.960961 155.61005 
L 116.906259 151.600747 
L 123.851557 139.498591 
L 130.796855 130.960261 
L 137.742153 122.867408 
L 144.687451 109.428819 
L 151.632748 100.816242 
L 158.578046 91.609694 
L 165.523344 78.393843 
L 172.468642 71.93441 
L 179.41394 63.915804 
L 186.359238 57.233632 
L 193.304536 50.922692 
L 200.249834 47.358868 
L 207.195132 37.484103 
L 214.14043 33.994524 
L 221.085728 34.88548 
L 228.031026 31.692887 
L 234.976324 28.797279 
L 241.921622 32.955075 
L 248.86692 27.460845 
L 255.812218 25.010715 
L 262.757516 26.198657 
L 269.702814 27.460845 
" clip-path="url(#p613608418b)" style="fill: none; stroke: #de8f05; stroke-width: 1.2; stroke-linecap: round"/>
    <defs>
     <path id="m0e6904a039" d="M 0 1.5 
C 0.397805 1.5 0.77937 1.341951 1.06066 1.06066 
C 1.341951 0.77937 1.5 0.397805 1.5 0 
C 1.5 -0.397805 1.341951 -0.77937 1.06066 -1.06066 
C 0.77937 -1.341951 0.397805 -1.5 0 -1.5 
C -0.397805 -1.5 -0.77937 -1.341951 -1.06066 -1.06066 
C -1.341951 -0.77937 -1.5 -0.397805 -1.5 0 
C -1.5 0.397805 -1.341951 0.77937 -1.06066 1.06066 
C -0.77937 1.341951 -0.397805 1.5 0 1.5 
z
" style="stroke: #de8f05"/>
    </defs>
    <g clip-path="url(#p613608418b)">
     <use xlink:href="#m0e6904a039" x="54.398577" y="172.09274" style="fill: #de8f05; stroke: #de8f05"/>
     <use xlink:href="#m0e6904a039" x="61.343875" y="172.315479" style="fill: #de8f05; stroke: #de8f05"/>
     <use xlink:href="#m0e6904a039" x="68.289173" y="170.979045" style="fill: #de8f05; stroke: #de8f05"/>
     <use xlink:href="#m0e6904a039" x="75.234471" y="169.568364" style="fill: #de8f05; stroke: #de8f05"/>
     <use xlink:href="#m0e6904a039" x="82.179769" y="168.974394" style="fill: #de8f05; stroke: #de8f05"/>
     <use xlink:href="#m0e6904a039" x="89.125067" y="165.856047" style="fill: #de8f05; stroke: #de8f05"/>
     <use xlink:href="#m0e6904a039" x="96.070365" y="163.702903" style="fill: #de8f05; stroke: #de8f05"/>
     <use xlink:href="#m0e6904a039" x="103.015663" y="158.282919" style="fill: #de8f05; stroke: #de8f05"/>
     <use xlink:href="#m0e6904a039" x="109.960961" y="155.61005" style="fill: #de8f05; stroke: #de8f05"/>
     <use xlink:href="#m0e6904a039" x="116.906259" y="151.600747" style="fill: #de8f05; stroke: #de8f05"/>
     <use xlink:href="#m0e6904a039" x="123.851557" y="139.498591" style="fill: #de8f05; stroke: #de8f05"/>
     <use xlink:href="#m0e6904a039" x="130.796855" y="130.960261" style="fill: #de8f05; stroke: #de8f05"/>
     <use xlink:href="#m0e6904a039" x="137.742153" y="122.867408" style="fill: #de8f05; stroke: #de8f05"/>
     <use xlink:href="#m0e6904a039" x="144.687451" y="109.428819" style="fill: #de8f05; stroke: #de8f05"/>
     <use xlink:href="#m0e6904a039" x="151.632748" y="100.816242" style="fill: #de8f05; stroke: #de8f05"/>
     <use xlink:href="#m0e6904a039" x="158.578046" y="91.609694" style="fill: #de8f05; stroke: #de8f05"/>
     <use xlink:href="#m0e6904a039" x="165.523344" y="78.393843" style="fill: #de8f05; stroke: #de8f05"/>
     <use xlink:href="#m0e6904a039" x="172.468642" y="71.93441" style="fill: #de8f05; stroke: #de8f05"/>
     <use xlink:href="#m0e6904a039" x="179.41394" y="63.915804" style="fill: #de8f05; stroke: #de8f05"/>
     <use xlink:href="#m0e6904a039" x="186.359238" y="57.233632" style="fill: #de8f05; stroke: #de8f05"/>
     <use xlink:href="#m0e6904a039" x="193.304536" y="50.922692" style="fill: #de8f05; stroke: #de8f05"/>
     <use xlink:href="#m0e6904a039" x="200.249834" y="47.358868" style="fill: #de8f05; stroke: #de8f05"/>
     <use xlink:href="#m0e6904a039" x="207.195132" y="37.484103" style="fill: #de8f05; stroke: #de8f05"/>
     <use xlink:href="#m0e6904a039" x="214.14043" y="33.994524" style="fill: #de8f05; stroke: #de8f05"/>
     <use xlink:href="#m0e6904a039" x="221.085728" y="34.88548" style="fill: #de8f05; stroke: #de8f05"/>
     <use xlink:href="#m0e6904a039" x="228.031026" y="31.692887" style="fill: #de8f05; stroke: #de8f05"/>
     <use xlink:href="#m0e6904a039" x="234.976324" y="28.797279" style="fill: #de8f05; stroke: #de8f05"/>
     <use xlink:href="#m0e6904a039" x="241.921622" y="32.955075" style="fill: #de8f05; stroke: #de8f05"/>
     <use xlink:href="#m0e6904a039" x="248.86692" y="27.460845" style="fill: #de8f05; stroke: #de8f05"/>
     <use xlink:href="#m0e6904a039" x="255.812218" y="25.010715" style="fill: #de8f05; stroke: #de8f05"/>
     <use xlink:href="#m0e6904a039" x="262.757516" y="26.198657" style="fill: #de8f05; stroke: #de8f05"/>
     <use xlink:href="#m0e6904a039" x="269.702814" y="27.460845" style="fill: #de8f05; stroke: #de8f05"/>
    </g>
   </g>
   <g id="patch_3">
    <path d="M 43.633365 179.836635 
L 43.633365 17.638053 
" style="fill: none; stroke: #262626; stroke-width: 0.6; stroke-linejoin: miter; stroke-linecap: square"/>
   </g>
   <g id="patch_4">
    <path d="M 43.633365 179.836635 
L 280.468026 179.836635 
" style="fill: none; stroke: #262626; stroke-width: 0.6; stroke-linejoin: miter; stroke-linecap: square"/>
   </g>
   <g id="text_14">
    <!-- Performance on Easy Train Data -->
    <g style="fill: #262626" transform="translate(50.070383 13.638052)scale(0.14 -0.14)">
     <defs>
      <path id="DejaVuSans-50" d="M 1259 4147 
L 1259 2394 
L 2053 2394 
Q 2494 2394 2734 2622 
Q 2975 2850 2975 3272 
Q 2975 3691 2734 3919 
Q 2494 4147 2053 4147 
L 1259 4147 
z
M 628 4666 
L 2053 4666 
Q 2838 4666 3239 4311 
Q 3641 3956 3641 3272 
Q 3641 2581 3239 2228 
Q 2838 1875 2053 1875 
L 1259 1875 
L 1259 0 
L 628 0 
L 628 4666 
z
" transform="scale(0.015625)"/>
      <path id="DejaVuSans-66" d="M 2375 4863 
L 2375 4384 
L 1825 4384 
Q 1516 4384 1395 4259 
Q 1275 4134 1275 3809 
L 1275 3500 
L 2222 3500 
L 2222 3053 
L 1275 3053 
L 1275 0 
L 697 0 
L 697 3053 
L 147 3053 
L 147 3500 
L 697 3500 
L 697 3744 
Q 697 4328 969 4595 
Q 1241 4863 1831 4863 
L 2375 4863 
z
" transform="scale(0.015625)"/>
      <path id="DejaVuSans-6f" d="M 1959 3097 
Q 1497 3097 1228 2736 
Q 959 2375 959 1747 
Q 959 1119 1226 758 
Q 1494 397 1959 397 
Q 2419 397 2687 759 
Q 2956 1122 2956 1747 
Q 2956 2369 2687 2733 
Q 2419 3097 1959 3097 
z
M 1959 3584 
Q 2709 3584 3137 3096 
Q 3566 2609 3566 1747 
Q 3566 888 3137 398 
Q 2709 -91 1959 -91 
Q 1206 -91 779 398 
Q 353 888 353 1747 
Q 353 2609 779 3096 
Q 1206 3584 1959 3584 
z
" transform="scale(0.015625)"/>
      <path id="DejaVuSans-6d" d="M 3328 2828 
Q 3544 3216 3844 3400 
Q 4144 3584 4550 3584 
Q 5097 3584 5394 3201 
Q 5691 2819 5691 2113 
L 5691 0 
L 5113 0 
L 5113 2094 
Q 5113 2597 4934 2840 
Q 4756 3084 4391 3084 
Q 3944 3084 3684 2787 
Q 3425 2491 3425 1978 
L 3425 0 
L 2847 0 
L 2847 2094 
Q 2847 2600 2669 2842 
Q 2491 3084 2119 3084 
Q 1678 3084 1418 2786 
Q 1159 2488 1159 1978 
L 1159 0 
L 581 0 
L 581 3500 
L 1159 3500 
L 1159 2956 
Q 1356 3278 1631 3431 
Q 1906 3584 2284 3584 
Q 2666 3584 2933 3390 
Q 3200 3197 3328 2828 
z
" transform="scale(0.015625)"/>
      <path id="DejaVuSans-6e" d="M 3513 2113 
L 3513 0 
L 2938 0 
L 2938 2094 
Q 2938 2591 2744 2837 
Q 2550 3084 2163 3084 
Q 1697 3084 1428 2787 
Q 1159 2491 1159 1978 
L 1159 0 
L 581 0 
L 581 3500 
L 1159 3500 
L 1159 2956 
Q 1366 3272 1645 3428 
Q 1925 3584 2291 3584 
Q 2894 3584 3203 3211 
Q 3513 2838 3513 2113 
z
" transform="scale(0.015625)"/>
      <path id="DejaVuSans-20" transform="scale(0.015625)"/>
      <path id="DejaVuSans-45" d="M 628 4666 
L 3578 4666 
L 3578 4134 
L 1259 4134 
L 1259 2753 
L 3481 2753 
L 3481 2222 
L 1259 2222 
L 1259 531 
L 3634 531 
L 3634 0 
L 628 0 
L 628 4666 
z
" transform="scale(0.015625)"/>
      <path id="DejaVuSans-73" d="M 2834 3397 
L 2834 2853 
Q 2591 2978 2328 3040 
Q 2066 3103 1784 3103 
Q 1356 3103 1142 2972 
Q 928 2841 928 2578 
Q 928 2378 1081 2264 
Q 1234 2150 1697 2047 
L 1894 2003 
Q 2506 1872 2764 1633 
Q 3022 1394 3022 966 
Q 3022 478 2636 193 
Q 2250 -91 1575 -91 
Q 1294 -91 989 -36 
Q 684 19 347 128 
L 347 722 
Q 666 556 975 473 
Q 1284 391 1588 391 
Q 1994 391 2212 530 
Q 2431 669 2431 922 
Q 2431 1156 2273 1281 
Q 2116 1406 1581 1522 
L 1381 1569 
Q 847 1681 609 1914 
Q 372 2147 372 2553 
Q 372 3047 722 3315 
Q 1072 3584 1716 3584 
Q 2034 3584 2315 3537 
Q 2597 3491 2834 3397 
z
" transform="scale(0.015625)"/>
      <path id="DejaVuSans-54" d="M -19 4666 
L 3928 4666 
L 3928 4134 
L 2272 4134 
L 2272 0 
L 1638 0 
L 1638 4134 
L -19 4134 
L -19 4666 
z
" transform="scale(0.015625)"/>
      <path id="DejaVuSans-69" d="M 603 3500 
L 1178 3500 
L 1178 0 
L 603 0 
L 603 3500 
z
M 603 4863 
L 1178 4863 
L 1178 4134 
L 603 4134 
L 603 4863 
z
" transform="scale(0.015625)"/>
      <path id="DejaVuSans-44" d="M 1259 4147 
L 1259 519 
L 2022 519 
Q 2988 519 3436 956 
Q 3884 1394 3884 2338 
Q 3884 3275 3436 3711 
Q 2988 4147 2022 4147 
L 1259 4147 
z
M 628 4666 
L 1925 4666 
Q 3281 4666 3915 4102 
Q 4550 3538 4550 2338 
Q 4550 1131 3912 565 
Q 3275 0 1925 0 
L 628 0 
L 628 4666 
z
" transform="scale(0.015625)"/>
     </defs>
     <use xlink:href="#DejaVuSans-50"/>
     <use xlink:href="#DejaVuSans-65" x="56.677734"/>
     <use xlink:href="#DejaVuSans-72" x="118.201172"/>
     <use xlink:href="#DejaVuSans-66" x="159.314453"/>
     <use xlink:href="#DejaVuSans-6f" x="194.519531"/>
     <use xlink:href="#DejaVuSans-72" x="255.701172"/>
     <use xlink:href="#DejaVuSans-6d" x="295.064453"/>
     <use xlink:href="#DejaVuSans-61" x="392.476562"/>
     <use xlink:href="#DejaVuSans-6e" x="453.755859"/>
     <use xlink:href="#DejaVuSans-63" x="517.134766"/>
     <use xlink:href="#DejaVuSans-65" x="572.115234"/>
     <use xlink:href="#DejaVuSans-20" x="633.638672"/>
     <use xlink:href="#DejaVuSans-6f" x="665.425781"/>
     <use xlink:href="#DejaVuSans-6e" x="726.607422"/>
     <use xlink:href="#DejaVuSans-20" x="789.986328"/>
     <use xlink:href="#DejaVuSans-45" x="821.773438"/>
     <use xlink:href="#DejaVuSans-61" x="884.957031"/>
     <use xlink:href="#DejaVuSans-73" x="946.236328"/>
     <use xlink:href="#DejaVuSans-79" x="998.335938"/>
     <use xlink:href="#DejaVuSans-20" x="1057.515625"/>
     <use xlink:href="#DejaVuSans-54" x="1089.302734"/>
     <use xlink:href="#DejaVuSans-72" x="1135.636719"/>
     <use xlink:href="#DejaVuSans-61" x="1176.75"/>
     <use xlink:href="#DejaVuSans-69" x="1238.029297"/>
     <use xlink:href="#DejaVuSans-6e" x="1265.8125"/>
     <use xlink:href="#DejaVuSans-20" x="1329.191406"/>
     <use xlink:href="#DejaVuSans-44" x="1360.978516"/>
     <use xlink:href="#DejaVuSans-61" x="1437.980469"/>
     <use xlink:href="#DejaVuSans-74" x="1499.259766"/>
     <use xlink:href="#DejaVuSans-61" x="1538.46875"/>
    </g>
   </g>
  </g>
 </g>
 <defs>
  <clipPath id="p613608418b">
   <rect x="43.633365" y="17.638052" width="236.834661" height="162.198583"/>
  </clipPath>
 </defs>
</svg>
