<?xml version="1.0" encoding="utf-8" standalone="no"?>
<!DOCTYPE svg PUBLIC "-//W3C//DTD SVG 1.1//EN"
  "http://www.w3.org/Graphics/SVG/1.1/DTD/svg11.dtd">
<svg xmlns:xlink="http://www.w3.org/1999/xlink" width="548.39952pt" height="296.39952pt" viewBox="0 0 548.39952 296.39952" xmlns="http://www.w3.org/2000/svg" version="1.1">
 <metadata>
  <rdf:RDF xmlns:dc="http://purl.org/dc/elements/1.1/" xmlns:cc="http://creativecommons.org/ns#" xmlns:rdf="http://www.w3.org/1999/02/22-rdf-syntax-ns#">
   <cc:Work>
    <dc:type rdf:resource="http://purl.org/dc/dcmitype/StillImage"/>
    <dc:date>2022-05-18T05:06:48.917619</dc:date>
    <dc:format>image/svg+xml</dc:format>
    <dc:creator>
     <cc:Agent>
      <dc:title>Matplotlib v3.5.1, https://matplotlib.org/</dc:title>
     </cc:Agent>
    </dc:creator>
   </cc:Work>
  </rdf:RDF>
 </metadata>
 <defs>
  <style type="text/css">*{stroke-linejoin: round; stroke-linecap: butt}</style>
 </defs>
 <g id="figure_1">
  <g id="patch_1">
   <path d="M 0 296.39952 
L 548.39952 296.39952 
L 548.39952 0 
L 0 0 
z
" style="fill: #ffffff"/>
  </g>
  <g id="axes_1">
   <g id="patch_2">
    <path d="M 55.468125 256.036395 
L 531.657645 256.036395 
L 531.657645 11.759062 
L 55.468125 11.759062 
z
" style="fill: #ffffff"/>
   </g>
   <g id="matplotlib.axis_1">
    <g id="xtick_1">
     <g id="line2d_1">
      <path d="M 55.468125 256.036395 
L 55.468125 11.759062 
" clip-path="url(#p5d0ba0ab84)" style="fill: none; stroke: #cccccc; stroke-width: 0.6; stroke-linecap: round"/>
     </g>
     <g id="line2d_2">
      <defs>
       <path id="mbc6ed61967" d="M 0 0 
L 0 4 
" style="stroke: #262626; stroke-width: 0.6"/>
      </defs>
      <g>
       <use xlink:href="#mbc6ed61967" x="55.468125" y="256.036395" style="fill: #262626; stroke: #262626; stroke-width: 0.6"/>
      </g>
     </g>
     <g id="text_1">
      <!-- 100.0 -->
      <g style="fill: #262626" transform="translate(38.29125 271.15452)scale(0.12 -0.12)">
       <defs>
        <path id="DejaVuSans-31" d="M 794 531 
L 1825 531 
L 1825 4091 
L 703 3866 
L 703 4441 
L 1819 4666 
L 2450 4666 
L 2450 531 
L 3481 531 
L 3481 0 
L 794 0 
L 794 531 
z
" transform="scale(0.015625)"/>
        <path id="DejaVuSans-30" d="M 2034 4250 
Q 1547 4250 1301 3770 
Q 1056 3291 1056 2328 
Q 1056 1369 1301 889 
Q 1547 409 2034 409 
Q 2525 409 2770 889 
Q 3016 1369 3016 2328 
Q 3016 3291 2770 3770 
Q 2525 4250 2034 4250 
z
M 2034 4750 
Q 2819 4750 3233 4129 
Q 3647 3509 3647 2328 
Q 3647 1150 3233 529 
Q 2819 -91 2034 -91 
Q 1250 -91 836 529 
Q 422 1150 422 2328 
Q 422 3509 836 4129 
Q 1250 4750 2034 4750 
z
" transform="scale(0.015625)"/>
        <path id="DejaVuSans-2e" d="M 684 794 
L 1344 794 
L 1344 0 
L 684 0 
L 684 794 
z
" transform="scale(0.015625)"/>
       </defs>
       <use xlink:href="#DejaVuSans-31"/>
       <use xlink:href="#DejaVuSans-30" x="63.623047"/>
       <use xlink:href="#DejaVuSans-30" x="127.246094"/>
       <use xlink:href="#DejaVuSans-2e" x="190.869141"/>
       <use xlink:href="#DejaVuSans-30" x="222.65625"/>
      </g>
     </g>
    </g>
    <g id="xtick_2">
     <g id="line2d_3">
      <path d="M 114.991815 256.036395 
L 114.991815 11.759062 
" clip-path="url(#p5d0ba0ab84)" style="fill: none; stroke: #cccccc; stroke-width: 0.6; stroke-linecap: round"/>
     </g>
     <g id="line2d_4">
      <g>
       <use xlink:href="#mbc6ed61967" x="114.991815" y="256.036395" style="fill: #262626; stroke: #262626; stroke-width: 0.6"/>
      </g>
     </g>
     <g id="text_2">
      <!-- 64.0 -->
      <g style="fill: #262626" transform="translate(101.63244 271.15452)scale(0.12 -0.12)">
       <defs>
        <path id="DejaVuSans-36" d="M 2113 2584 
Q 1688 2584 1439 2293 
Q 1191 2003 1191 1497 
Q 1191 994 1439 701 
Q 1688 409 2113 409 
Q 2538 409 2786 701 
Q 3034 994 3034 1497 
Q 3034 2003 2786 2293 
Q 2538 2584 2113 2584 
z
M 3366 4563 
L 3366 3988 
Q 3128 4100 2886 4159 
Q 2644 4219 2406 4219 
Q 1781 4219 1451 3797 
Q 1122 3375 1075 2522 
Q 1259 2794 1537 2939 
Q 1816 3084 2150 3084 
Q 2853 3084 3261 2657 
Q 3669 2231 3669 1497 
Q 3669 778 3244 343 
Q 2819 -91 2113 -91 
Q 1303 -91 875 529 
Q 447 1150 447 2328 
Q 447 3434 972 4092 
Q 1497 4750 2381 4750 
Q 2619 4750 2861 4703 
Q 3103 4656 3366 4563 
z
" transform="scale(0.015625)"/>
        <path id="DejaVuSans-34" d="M 2419 4116 
L 825 1625 
L 2419 1625 
L 2419 4116 
z
M 2253 4666 
L 3047 4666 
L 3047 1625 
L 3713 1625 
L 3713 1100 
L 3047 1100 
L 3047 0 
L 2419 0 
L 2419 1100 
L 313 1100 
L 313 1709 
L 2253 4666 
z
" transform="scale(0.015625)"/>
       </defs>
       <use xlink:href="#DejaVuSans-36"/>
       <use xlink:href="#DejaVuSans-34" x="63.623047"/>
       <use xlink:href="#DejaVuSans-2e" x="127.246094"/>
       <use xlink:href="#DejaVuSans-30" x="159.033203"/>
      </g>
     </g>
    </g>
    <g id="xtick_3">
     <g id="line2d_5">
      <path d="M 174.515505 256.036395 
L 174.515505 11.759062 
" clip-path="url(#p5d0ba0ab84)" style="fill: none; stroke: #cccccc; stroke-width: 0.6; stroke-linecap: round"/>
     </g>
     <g id="line2d_6">
      <g>
       <use xlink:href="#mbc6ed61967" x="174.515505" y="256.036395" style="fill: #262626; stroke: #262626; stroke-width: 0.6"/>
      </g>
     </g>
     <g id="text_3">
      <!-- 41.0 -->
      <g style="fill: #262626" transform="translate(161.15613 271.15452)scale(0.12 -0.12)">
       <use xlink:href="#DejaVuSans-34"/>
       <use xlink:href="#DejaVuSans-31" x="63.623047"/>
       <use xlink:href="#DejaVuSans-2e" x="127.246094"/>
       <use xlink:href="#DejaVuSans-30" x="159.033203"/>
      </g>
     </g>
    </g>
    <g id="xtick_4">
     <g id="line2d_7">
      <path d="M 234.039195 256.036395 
L 234.039195 11.759062 
" clip-path="url(#p5d0ba0ab84)" style="fill: none; stroke: #cccccc; stroke-width: 0.6; stroke-linecap: round"/>
     </g>
     <g id="line2d_8">
      <g>
       <use xlink:href="#mbc6ed61967" x="234.039195" y="256.036395" style="fill: #262626; stroke: #262626; stroke-width: 0.6"/>
      </g>
     </g>
     <g id="text_4">
      <!-- 26.2 -->
      <g style="fill: #262626" transform="translate(220.67982 271.15452)scale(0.12 -0.12)">
       <defs>
        <path id="DejaVuSans-32" d="M 1228 531 
L 3431 531 
L 3431 0 
L 469 0 
L 469 531 
Q 828 903 1448 1529 
Q 2069 2156 2228 2338 
Q 2531 2678 2651 2914 
Q 2772 3150 2772 3378 
Q 2772 3750 2511 3984 
Q 2250 4219 1831 4219 
Q 1534 4219 1204 4116 
Q 875 4013 500 3803 
L 500 4441 
Q 881 4594 1212 4672 
Q 1544 4750 1819 4750 
Q 2544 4750 2975 4387 
Q 3406 4025 3406 3419 
Q 3406 3131 3298 2873 
Q 3191 2616 2906 2266 
Q 2828 2175 2409 1742 
Q 1991 1309 1228 531 
z
" transform="scale(0.015625)"/>
       </defs>
       <use xlink:href="#DejaVuSans-32"/>
       <use xlink:href="#DejaVuSans-36" x="63.623047"/>
       <use xlink:href="#DejaVuSans-2e" x="127.246094"/>
       <use xlink:href="#DejaVuSans-32" x="159.033203"/>
      </g>
     </g>
    </g>
    <g id="xtick_5">
     <g id="line2d_9">
      <path d="M 293.562885 256.036395 
L 293.562885 11.759062 
" clip-path="url(#p5d0ba0ab84)" style="fill: none; stroke: #cccccc; stroke-width: 0.6; stroke-linecap: round"/>
     </g>
     <g id="line2d_10">
      <g>
       <use xlink:href="#mbc6ed61967" x="293.562885" y="256.036395" style="fill: #262626; stroke: #262626; stroke-width: 0.6"/>
      </g>
     </g>
     <g id="text_5">
      <!-- 16.8 -->
      <g style="fill: #262626" transform="translate(280.20351 271.15452)scale(0.12 -0.12)">
       <defs>
        <path id="DejaVuSans-38" d="M 2034 2216 
Q 1584 2216 1326 1975 
Q 1069 1734 1069 1313 
Q 1069 891 1326 650 
Q 1584 409 2034 409 
Q 2484 409 2743 651 
Q 3003 894 3003 1313 
Q 3003 1734 2745 1975 
Q 2488 2216 2034 2216 
z
M 1403 2484 
Q 997 2584 770 2862 
Q 544 3141 544 3541 
Q 544 4100 942 4425 
Q 1341 4750 2034 4750 
Q 2731 4750 3128 4425 
Q 3525 4100 3525 3541 
Q 3525 3141 3298 2862 
Q 3072 2584 2669 2484 
Q 3125 2378 3379 2068 
Q 3634 1759 3634 1313 
Q 3634 634 3220 271 
Q 2806 -91 2034 -91 
Q 1263 -91 848 271 
Q 434 634 434 1313 
Q 434 1759 690 2068 
Q 947 2378 1403 2484 
z
M 1172 3481 
Q 1172 3119 1398 2916 
Q 1625 2713 2034 2713 
Q 2441 2713 2670 2916 
Q 2900 3119 2900 3481 
Q 2900 3844 2670 4047 
Q 2441 4250 2034 4250 
Q 1625 4250 1398 4047 
Q 1172 3844 1172 3481 
z
" transform="scale(0.015625)"/>
       </defs>
       <use xlink:href="#DejaVuSans-31"/>
       <use xlink:href="#DejaVuSans-36" x="63.623047"/>
       <use xlink:href="#DejaVuSans-2e" x="127.246094"/>
       <use xlink:href="#DejaVuSans-38" x="159.033203"/>
      </g>
     </g>
    </g>
    <g id="xtick_6">
     <g id="line2d_11">
      <path d="M 353.086575 256.036395 
L 353.086575 11.759062 
" clip-path="url(#p5d0ba0ab84)" style="fill: none; stroke: #cccccc; stroke-width: 0.6; stroke-linecap: round"/>
     </g>
     <g id="line2d_12">
      <g>
       <use xlink:href="#mbc6ed61967" x="353.086575" y="256.036395" style="fill: #262626; stroke: #262626; stroke-width: 0.6"/>
      </g>
     </g>
     <g id="text_6">
      <!-- 10.7 -->
      <g style="fill: #262626" transform="translate(339.7272 271.15452)scale(0.12 -0.12)">
       <defs>
        <path id="DejaVuSans-37" d="M 525 4666 
L 3525 4666 
L 3525 4397 
L 1831 0 
L 1172 0 
L 2766 4134 
L 525 4134 
L 525 4666 
z
" transform="scale(0.015625)"/>
       </defs>
       <use xlink:href="#DejaVuSans-31"/>
       <use xlink:href="#DejaVuSans-30" x="63.623047"/>
       <use xlink:href="#DejaVuSans-2e" x="127.246094"/>
       <use xlink:href="#DejaVuSans-37" x="159.033203"/>
      </g>
     </g>
    </g>
    <g id="xtick_7">
     <g id="line2d_13">
      <path d="M 412.610265 256.036395 
L 412.610265 11.759062 
" clip-path="url(#p5d0ba0ab84)" style="fill: none; stroke: #cccccc; stroke-width: 0.6; stroke-linecap: round"/>
     </g>
     <g id="line2d_14">
      <g>
       <use xlink:href="#mbc6ed61967" x="412.610265" y="256.036395" style="fill: #262626; stroke: #262626; stroke-width: 0.6"/>
      </g>
     </g>
     <g id="text_7">
      <!-- 6.9 -->
      <g style="fill: #262626" transform="translate(403.06839 271.15452)scale(0.12 -0.12)">
       <defs>
        <path id="DejaVuSans-39" d="M 703 97 
L 703 672 
Q 941 559 1184 500 
Q 1428 441 1663 441 
Q 2288 441 2617 861 
Q 2947 1281 2994 2138 
Q 2813 1869 2534 1725 
Q 2256 1581 1919 1581 
Q 1219 1581 811 2004 
Q 403 2428 403 3163 
Q 403 3881 828 4315 
Q 1253 4750 1959 4750 
Q 2769 4750 3195 4129 
Q 3622 3509 3622 2328 
Q 3622 1225 3098 567 
Q 2575 -91 1691 -91 
Q 1453 -91 1209 -44 
Q 966 3 703 97 
z
M 1959 2075 
Q 2384 2075 2632 2365 
Q 2881 2656 2881 3163 
Q 2881 3666 2632 3958 
Q 2384 4250 1959 4250 
Q 1534 4250 1286 3958 
Q 1038 3666 1038 3163 
Q 1038 2656 1286 2365 
Q 1534 2075 1959 2075 
z
" transform="scale(0.015625)"/>
       </defs>
       <use xlink:href="#DejaVuSans-36"/>
       <use xlink:href="#DejaVuSans-2e" x="63.623047"/>
       <use xlink:href="#DejaVuSans-39" x="95.410156"/>
      </g>
     </g>
    </g>
    <g id="xtick_8">
     <g id="line2d_15">
      <path d="M 472.133955 256.036395 
L 472.133955 11.759062 
" clip-path="url(#p5d0ba0ab84)" style="fill: none; stroke: #cccccc; stroke-width: 0.6; stroke-linecap: round"/>
     </g>
     <g id="line2d_16">
      <g>
       <use xlink:href="#mbc6ed61967" x="472.133955" y="256.036395" style="fill: #262626; stroke: #262626; stroke-width: 0.6"/>
      </g>
     </g>
     <g id="text_8">
      <!-- 4.4 -->
      <g style="fill: #262626" transform="translate(462.59208 271.15452)scale(0.12 -0.12)">
       <use xlink:href="#DejaVuSans-34"/>
       <use xlink:href="#DejaVuSans-2e" x="63.623047"/>
       <use xlink:href="#DejaVuSans-34" x="95.410156"/>
      </g>
     </g>
    </g>
    <g id="xtick_9">
     <g id="line2d_17">
      <path d="M 531.657645 256.036395 
L 531.657645 11.759062 
" clip-path="url(#p5d0ba0ab84)" style="fill: none; stroke: #cccccc; stroke-width: 0.6; stroke-linecap: round"/>
     </g>
     <g id="line2d_18">
      <g>
       <use xlink:href="#mbc6ed61967" x="531.657645" y="256.036395" style="fill: #262626; stroke: #262626; stroke-width: 0.6"/>
      </g>
     </g>
     <g id="text_9">
      <!-- 2.8 -->
      <g style="fill: #262626" transform="translate(522.11577 271.15452)scale(0.12 -0.12)">
       <use xlink:href="#DejaVuSans-32"/>
       <use xlink:href="#DejaVuSans-2e" x="63.623047"/>
       <use xlink:href="#DejaVuSans-38" x="95.410156"/>
      </g>
     </g>
    </g>
    <g id="text_10">
     <!-- % Weights Remaining -->
     <g style="fill: #262626" transform="translate(217.259604 286.287958)scale(0.14 -0.14)">
      <defs>
       <path id="DejaVuSans-25" d="M 4653 2053 
Q 4381 2053 4226 1822 
Q 4072 1591 4072 1178 
Q 4072 772 4226 539 
Q 4381 306 4653 306 
Q 4919 306 5073 539 
Q 5228 772 5228 1178 
Q 5228 1588 5073 1820 
Q 4919 2053 4653 2053 
z
M 4653 2450 
Q 5147 2450 5437 2106 
Q 5728 1763 5728 1178 
Q 5728 594 5436 251 
Q 5144 -91 4653 -91 
Q 4153 -91 3862 251 
Q 3572 594 3572 1178 
Q 3572 1766 3864 2108 
Q 4156 2450 4653 2450 
z
M 1428 4353 
Q 1159 4353 1004 4120 
Q 850 3888 850 3481 
Q 850 3069 1003 2837 
Q 1156 2606 1428 2606 
Q 1700 2606 1854 2837 
Q 2009 3069 2009 3481 
Q 2009 3884 1853 4118 
Q 1697 4353 1428 4353 
z
M 4250 4750 
L 4750 4750 
L 1831 -91 
L 1331 -91 
L 4250 4750 
z
M 1428 4750 
Q 1922 4750 2215 4408 
Q 2509 4066 2509 3481 
Q 2509 2891 2217 2550 
Q 1925 2209 1428 2209 
Q 931 2209 642 2551 
Q 353 2894 353 3481 
Q 353 4063 643 4406 
Q 934 4750 1428 4750 
z
" transform="scale(0.015625)"/>
       <path id="DejaVuSans-20" transform="scale(0.015625)"/>
       <path id="DejaVuSans-57" d="M 213 4666 
L 850 4666 
L 1831 722 
L 2809 4666 
L 3519 4666 
L 4500 722 
L 5478 4666 
L 6119 4666 
L 4947 0 
L 4153 0 
L 3169 4050 
L 2175 0 
L 1381 0 
L 213 4666 
z
" transform="scale(0.015625)"/>
       <path id="DejaVuSans-65" d="M 3597 1894 
L 3597 1613 
L 953 1613 
Q 991 1019 1311 708 
Q 1631 397 2203 397 
Q 2534 397 2845 478 
Q 3156 559 3463 722 
L 3463 178 
Q 3153 47 2828 -22 
Q 2503 -91 2169 -91 
Q 1331 -91 842 396 
Q 353 884 353 1716 
Q 353 2575 817 3079 
Q 1281 3584 2069 3584 
Q 2775 3584 3186 3129 
Q 3597 2675 3597 1894 
z
M 3022 2063 
Q 3016 2534 2758 2815 
Q 2500 3097 2075 3097 
Q 1594 3097 1305 2825 
Q 1016 2553 972 2059 
L 3022 2063 
z
" transform="scale(0.015625)"/>
       <path id="DejaVuSans-69" d="M 603 3500 
L 1178 3500 
L 1178 0 
L 603 0 
L 603 3500 
z
M 603 4863 
L 1178 4863 
L 1178 4134 
L 603 4134 
L 603 4863 
z
" transform="scale(0.015625)"/>
       <path id="DejaVuSans-67" d="M 2906 1791 
Q 2906 2416 2648 2759 
Q 2391 3103 1925 3103 
Q 1463 3103 1205 2759 
Q 947 2416 947 1791 
Q 947 1169 1205 825 
Q 1463 481 1925 481 
Q 2391 481 2648 825 
Q 2906 1169 2906 1791 
z
M 3481 434 
Q 3481 -459 3084 -895 
Q 2688 -1331 1869 -1331 
Q 1566 -1331 1297 -1286 
Q 1028 -1241 775 -1147 
L 775 -588 
Q 1028 -725 1275 -790 
Q 1522 -856 1778 -856 
Q 2344 -856 2625 -561 
Q 2906 -266 2906 331 
L 2906 616 
Q 2728 306 2450 153 
Q 2172 0 1784 0 
Q 1141 0 747 490 
Q 353 981 353 1791 
Q 353 2603 747 3093 
Q 1141 3584 1784 3584 
Q 2172 3584 2450 3431 
Q 2728 3278 2906 2969 
L 2906 3500 
L 3481 3500 
L 3481 434 
z
" transform="scale(0.015625)"/>
       <path id="DejaVuSans-68" d="M 3513 2113 
L 3513 0 
L 2938 0 
L 2938 2094 
Q 2938 2591 2744 2837 
Q 2550 3084 2163 3084 
Q 1697 3084 1428 2787 
Q 1159 2491 1159 1978 
L 1159 0 
L 581 0 
L 581 4863 
L 1159 4863 
L 1159 2956 
Q 1366 3272 1645 3428 
Q 1925 3584 2291 3584 
Q 2894 3584 3203 3211 
Q 3513 2838 3513 2113 
z
" transform="scale(0.015625)"/>
       <path id="DejaVuSans-74" d="M 1172 4494 
L 1172 3500 
L 2356 3500 
L 2356 3053 
L 1172 3053 
L 1172 1153 
Q 1172 725 1289 603 
Q 1406 481 1766 481 
L 2356 481 
L 2356 0 
L 1766 0 
Q 1100 0 847 248 
Q 594 497 594 1153 
L 594 3053 
L 172 3053 
L 172 3500 
L 594 3500 
L 594 4494 
L 1172 4494 
z
" transform="scale(0.015625)"/>
       <path id="DejaVuSans-73" d="M 2834 3397 
L 2834 2853 
Q 2591 2978 2328 3040 
Q 2066 3103 1784 3103 
Q 1356 3103 1142 2972 
Q 928 2841 928 2578 
Q 928 2378 1081 2264 
Q 1234 2150 1697 2047 
L 1894 2003 
Q 2506 1872 2764 1633 
Q 3022 1394 3022 966 
Q 3022 478 2636 193 
Q 2250 -91 1575 -91 
Q 1294 -91 989 -36 
Q 684 19 347 128 
L 347 722 
Q 666 556 975 473 
Q 1284 391 1588 391 
Q 1994 391 2212 530 
Q 2431 669 2431 922 
Q 2431 1156 2273 1281 
Q 2116 1406 1581 1522 
L 1381 1569 
Q 847 1681 609 1914 
Q 372 2147 372 2553 
Q 372 3047 722 3315 
Q 1072 3584 1716 3584 
Q 2034 3584 2315 3537 
Q 2597 3491 2834 3397 
z
" transform="scale(0.015625)"/>
       <path id="DejaVuSans-52" d="M 2841 2188 
Q 3044 2119 3236 1894 
Q 3428 1669 3622 1275 
L 4263 0 
L 3584 0 
L 2988 1197 
Q 2756 1666 2539 1819 
Q 2322 1972 1947 1972 
L 1259 1972 
L 1259 0 
L 628 0 
L 628 4666 
L 2053 4666 
Q 2853 4666 3247 4331 
Q 3641 3997 3641 3322 
Q 3641 2881 3436 2590 
Q 3231 2300 2841 2188 
z
M 1259 4147 
L 1259 2491 
L 2053 2491 
Q 2509 2491 2742 2702 
Q 2975 2913 2975 3322 
Q 2975 3731 2742 3939 
Q 2509 4147 2053 4147 
L 1259 4147 
z
" transform="scale(0.015625)"/>
       <path id="DejaVuSans-6d" d="M 3328 2828 
Q 3544 3216 3844 3400 
Q 4144 3584 4550 3584 
Q 5097 3584 5394 3201 
Q 5691 2819 5691 2113 
L 5691 0 
L 5113 0 
L 5113 2094 
Q 5113 2597 4934 2840 
Q 4756 3084 4391 3084 
Q 3944 3084 3684 2787 
Q 3425 2491 3425 1978 
L 3425 0 
L 2847 0 
L 2847 2094 
Q 2847 2600 2669 2842 
Q 2491 3084 2119 3084 
Q 1678 3084 1418 2786 
Q 1159 2488 1159 1978 
L 1159 0 
L 581 0 
L 581 3500 
L 1159 3500 
L 1159 2956 
Q 1356 3278 1631 3431 
Q 1906 3584 2284 3584 
Q 2666 3584 2933 3390 
Q 3200 3197 3328 2828 
z
" transform="scale(0.015625)"/>
       <path id="DejaVuSans-61" d="M 2194 1759 
Q 1497 1759 1228 1600 
Q 959 1441 959 1056 
Q 959 750 1161 570 
Q 1363 391 1709 391 
Q 2188 391 2477 730 
Q 2766 1069 2766 1631 
L 2766 1759 
L 2194 1759 
z
M 3341 1997 
L 3341 0 
L 2766 0 
L 2766 531 
Q 2569 213 2275 61 
Q 1981 -91 1556 -91 
Q 1019 -91 701 211 
Q 384 513 384 1019 
Q 384 1609 779 1909 
Q 1175 2209 1959 2209 
L 2766 2209 
L 2766 2266 
Q 2766 2663 2505 2880 
Q 2244 3097 1772 3097 
Q 1472 3097 1187 3025 
Q 903 2953 641 2809 
L 641 3341 
Q 956 3463 1253 3523 
Q 1550 3584 1831 3584 
Q 2591 3584 2966 3190 
Q 3341 2797 3341 1997 
z
" transform="scale(0.015625)"/>
       <path id="DejaVuSans-6e" d="M 3513 2113 
L 3513 0 
L 2938 0 
L 2938 2094 
Q 2938 2591 2744 2837 
Q 2550 3084 2163 3084 
Q 1697 3084 1428 2787 
Q 1159 2491 1159 1978 
L 1159 0 
L 581 0 
L 581 3500 
L 1159 3500 
L 1159 2956 
Q 1366 3272 1645 3428 
Q 1925 3584 2291 3584 
Q 2894 3584 3203 3211 
Q 3513 2838 3513 2113 
z
" transform="scale(0.015625)"/>
      </defs>
      <use xlink:href="#DejaVuSans-25"/>
      <use xlink:href="#DejaVuSans-20" x="95.019531"/>
      <use xlink:href="#DejaVuSans-57" x="126.806641"/>
      <use xlink:href="#DejaVuSans-65" x="219.808594"/>
      <use xlink:href="#DejaVuSans-69" x="281.332031"/>
      <use xlink:href="#DejaVuSans-67" x="309.115234"/>
      <use xlink:href="#DejaVuSans-68" x="372.591797"/>
      <use xlink:href="#DejaVuSans-74" x="435.970703"/>
      <use xlink:href="#DejaVuSans-73" x="475.179688"/>
      <use xlink:href="#DejaVuSans-20" x="527.279297"/>
      <use xlink:href="#DejaVuSans-52" x="559.066406"/>
      <use xlink:href="#DejaVuSans-65" x="624.048828"/>
      <use xlink:href="#DejaVuSans-6d" x="685.572266"/>
      <use xlink:href="#DejaVuSans-61" x="782.984375"/>
      <use xlink:href="#DejaVuSans-69" x="844.263672"/>
      <use xlink:href="#DejaVuSans-6e" x="872.046875"/>
      <use xlink:href="#DejaVuSans-69" x="935.425781"/>
      <use xlink:href="#DejaVuSans-6e" x="963.208984"/>
      <use xlink:href="#DejaVuSans-67" x="1026.587891"/>
     </g>
    </g>
   </g>
   <g id="matplotlib.axis_2">
    <g id="ytick_1">
     <g id="line2d_19">
      <path d="M 55.468125 256.036395 
L 531.657645 256.036395 
" clip-path="url(#p5d0ba0ab84)" style="fill: none; stroke: #cccccc; stroke-width: 0.6; stroke-linecap: round"/>
     </g>
     <g id="line2d_20">
      <defs>
       <path id="mba69892970" d="M 0 0 
L -4 0 
" style="stroke: #262626; stroke-width: 0.6"/>
      </defs>
      <g>
       <use xlink:href="#mba69892970" x="55.468125" y="256.036395" style="fill: #262626; stroke: #262626; stroke-width: 0.6"/>
      </g>
     </g>
     <g id="text_11">
      <!-- 0.84 -->
      <g style="fill: #262626" transform="translate(22.749375 260.595458)scale(0.12 -0.12)">
       <use xlink:href="#DejaVuSans-30"/>
       <use xlink:href="#DejaVuSans-2e" x="63.623047"/>
       <use xlink:href="#DejaVuSans-38" x="95.410156"/>
       <use xlink:href="#DejaVuSans-34" x="159.033203"/>
      </g>
     </g>
    </g>
    <g id="ytick_2">
     <g id="line2d_21">
      <path d="M 55.468125 225.501728 
L 531.657645 225.501728 
" clip-path="url(#p5d0ba0ab84)" style="fill: none; stroke: #cccccc; stroke-width: 0.6; stroke-linecap: round"/>
     </g>
     <g id="line2d_22">
      <g>
       <use xlink:href="#mba69892970" x="55.468125" y="225.501728" style="fill: #262626; stroke: #262626; stroke-width: 0.6"/>
      </g>
     </g>
     <g id="text_12">
      <!-- 0.85 -->
      <g style="fill: #262626" transform="translate(22.749375 230.060791)scale(0.12 -0.12)">
       <defs>
        <path id="DejaVuSans-35" d="M 691 4666 
L 3169 4666 
L 3169 4134 
L 1269 4134 
L 1269 2991 
Q 1406 3038 1543 3061 
Q 1681 3084 1819 3084 
Q 2600 3084 3056 2656 
Q 3513 2228 3513 1497 
Q 3513 744 3044 326 
Q 2575 -91 1722 -91 
Q 1428 -91 1123 -41 
Q 819 9 494 109 
L 494 744 
Q 775 591 1075 516 
Q 1375 441 1709 441 
Q 2250 441 2565 725 
Q 2881 1009 2881 1497 
Q 2881 1984 2565 2268 
Q 2250 2553 1709 2553 
Q 1456 2553 1204 2497 
Q 953 2441 691 2322 
L 691 4666 
z
" transform="scale(0.015625)"/>
       </defs>
       <use xlink:href="#DejaVuSans-30"/>
       <use xlink:href="#DejaVuSans-2e" x="63.623047"/>
       <use xlink:href="#DejaVuSans-38" x="95.410156"/>
       <use xlink:href="#DejaVuSans-35" x="159.033203"/>
      </g>
     </g>
    </g>
    <g id="ytick_3">
     <g id="line2d_23">
      <path d="M 55.468125 194.967062 
L 531.657645 194.967062 
" clip-path="url(#p5d0ba0ab84)" style="fill: none; stroke: #cccccc; stroke-width: 0.6; stroke-linecap: round"/>
     </g>
     <g id="line2d_24">
      <g>
       <use xlink:href="#mba69892970" x="55.468125" y="194.967062" style="fill: #262626; stroke: #262626; stroke-width: 0.6"/>
      </g>
     </g>
     <g id="text_13">
      <!-- 0.86 -->
      <g style="fill: #262626" transform="translate(22.749375 199.526124)scale(0.12 -0.12)">
       <use xlink:href="#DejaVuSans-30"/>
       <use xlink:href="#DejaVuSans-2e" x="63.623047"/>
       <use xlink:href="#DejaVuSans-38" x="95.410156"/>
       <use xlink:href="#DejaVuSans-36" x="159.033203"/>
      </g>
     </g>
    </g>
    <g id="ytick_4">
     <g id="line2d_25">
      <path d="M 55.468125 164.432395 
L 531.657645 164.432395 
" clip-path="url(#p5d0ba0ab84)" style="fill: none; stroke: #cccccc; stroke-width: 0.6; stroke-linecap: round"/>
     </g>
     <g id="line2d_26">
      <g>
       <use xlink:href="#mba69892970" x="55.468125" y="164.432395" style="fill: #262626; stroke: #262626; stroke-width: 0.6"/>
      </g>
     </g>
     <g id="text_14">
      <!-- 0.87 -->
      <g style="fill: #262626" transform="translate(22.749375 168.991458)scale(0.12 -0.12)">
       <use xlink:href="#DejaVuSans-30"/>
       <use xlink:href="#DejaVuSans-2e" x="63.623047"/>
       <use xlink:href="#DejaVuSans-38" x="95.410156"/>
       <use xlink:href="#DejaVuSans-37" x="159.033203"/>
      </g>
     </g>
    </g>
    <g id="ytick_5">
     <g id="line2d_27">
      <path d="M 55.468125 133.897729 
L 531.657645 133.897729 
" clip-path="url(#p5d0ba0ab84)" style="fill: none; stroke: #cccccc; stroke-width: 0.6; stroke-linecap: round"/>
     </g>
     <g id="line2d_28">
      <g>
       <use xlink:href="#mba69892970" x="55.468125" y="133.897729" style="fill: #262626; stroke: #262626; stroke-width: 0.6"/>
      </g>
     </g>
     <g id="text_15">
      <!-- 0.88 -->
      <g style="fill: #262626" transform="translate(22.749375 138.456791)scale(0.12 -0.12)">
       <use xlink:href="#DejaVuSans-30"/>
       <use xlink:href="#DejaVuSans-2e" x="63.623047"/>
       <use xlink:href="#DejaVuSans-38" x="95.410156"/>
       <use xlink:href="#DejaVuSans-38" x="159.033203"/>
      </g>
     </g>
    </g>
    <g id="ytick_6">
     <g id="line2d_29">
      <path d="M 55.468125 103.363062 
L 531.657645 103.363062 
" clip-path="url(#p5d0ba0ab84)" style="fill: none; stroke: #cccccc; stroke-width: 0.6; stroke-linecap: round"/>
     </g>
     <g id="line2d_30">
      <g>
       <use xlink:href="#mba69892970" x="55.468125" y="103.363062" style="fill: #262626; stroke: #262626; stroke-width: 0.6"/>
      </g>
     </g>
     <g id="text_16">
      <!-- 0.89 -->
      <g style="fill: #262626" transform="translate(22.749375 107.922125)scale(0.12 -0.12)">
       <use xlink:href="#DejaVuSans-30"/>
       <use xlink:href="#DejaVuSans-2e" x="63.623047"/>
       <use xlink:href="#DejaVuSans-38" x="95.410156"/>
       <use xlink:href="#DejaVuSans-39" x="159.033203"/>
      </g>
     </g>
    </g>
    <g id="ytick_7">
     <g id="line2d_31">
      <path d="M 55.468125 72.828396 
L 531.657645 72.828396 
" clip-path="url(#p5d0ba0ab84)" style="fill: none; stroke: #cccccc; stroke-width: 0.6; stroke-linecap: round"/>
     </g>
     <g id="line2d_32">
      <g>
       <use xlink:href="#mba69892970" x="55.468125" y="72.828396" style="fill: #262626; stroke: #262626; stroke-width: 0.6"/>
      </g>
     </g>
     <g id="text_17">
      <!-- 0.90 -->
      <g style="fill: #262626" transform="translate(22.749375 77.387458)scale(0.12 -0.12)">
       <use xlink:href="#DejaVuSans-30"/>
       <use xlink:href="#DejaVuSans-2e" x="63.623047"/>
       <use xlink:href="#DejaVuSans-39" x="95.410156"/>
       <use xlink:href="#DejaVuSans-30" x="159.033203"/>
      </g>
     </g>
    </g>
    <g id="ytick_8">
     <g id="line2d_33">
      <path d="M 55.468125 42.293729 
L 531.657645 42.293729 
" clip-path="url(#p5d0ba0ab84)" style="fill: none; stroke: #cccccc; stroke-width: 0.6; stroke-linecap: round"/>
     </g>
     <g id="line2d_34">
      <g>
       <use xlink:href="#mba69892970" x="55.468125" y="42.293729" style="fill: #262626; stroke: #262626; stroke-width: 0.6"/>
      </g>
     </g>
     <g id="text_18">
      <!-- 0.91 -->
      <g style="fill: #262626" transform="translate(22.749375 46.852792)scale(0.12 -0.12)">
       <use xlink:href="#DejaVuSans-30"/>
       <use xlink:href="#DejaVuSans-2e" x="63.623047"/>
       <use xlink:href="#DejaVuSans-39" x="95.410156"/>
       <use xlink:href="#DejaVuSans-31" x="159.033203"/>
      </g>
     </g>
    </g>
    <g id="ytick_9">
     <g id="line2d_35">
      <path d="M 55.468125 11.759062 
L 531.657645 11.759062 
" clip-path="url(#p5d0ba0ab84)" style="fill: none; stroke: #cccccc; stroke-width: 0.6; stroke-linecap: round"/>
     </g>
     <g id="line2d_36">
      <g>
       <use xlink:href="#mba69892970" x="55.468125" y="11.759062" style="fill: #262626; stroke: #262626; stroke-width: 0.6"/>
      </g>
     </g>
     <g id="text_19">
      <!-- 0.92 -->
      <g style="fill: #262626" transform="translate(22.749375 16.318125)scale(0.12 -0.12)">
       <use xlink:href="#DejaVuSans-30"/>
       <use xlink:href="#DejaVuSans-2e" x="63.623047"/>
       <use xlink:href="#DejaVuSans-39" x="95.410156"/>
       <use xlink:href="#DejaVuSans-32" x="159.033203"/>
      </g>
     </g>
    </g>
    <g id="text_20">
     <!-- Final Test Accuracy -->
     <g style="fill: #262626" transform="translate(17.837813 200.223822)rotate(-90)scale(0.14 -0.14)">
      <defs>
       <path id="DejaVuSans-46" d="M 628 4666 
L 3309 4666 
L 3309 4134 
L 1259 4134 
L 1259 2759 
L 3109 2759 
L 3109 2228 
L 1259 2228 
L 1259 0 
L 628 0 
L 628 4666 
z
" transform="scale(0.015625)"/>
       <path id="DejaVuSans-6c" d="M 603 4863 
L 1178 4863 
L 1178 0 
L 603 0 
L 603 4863 
z
" transform="scale(0.015625)"/>
       <path id="DejaVuSans-54" d="M -19 4666 
L 3928 4666 
L 3928 4134 
L 2272 4134 
L 2272 0 
L 1638 0 
L 1638 4134 
L -19 4134 
L -19 4666 
z
" transform="scale(0.015625)"/>
       <path id="DejaVuSans-41" d="M 2188 4044 
L 1331 1722 
L 3047 1722 
L 2188 4044 
z
M 1831 4666 
L 2547 4666 
L 4325 0 
L 3669 0 
L 3244 1197 
L 1141 1197 
L 716 0 
L 50 0 
L 1831 4666 
z
" transform="scale(0.015625)"/>
       <path id="DejaVuSans-63" d="M 3122 3366 
L 3122 2828 
Q 2878 2963 2633 3030 
Q 2388 3097 2138 3097 
Q 1578 3097 1268 2742 
Q 959 2388 959 1747 
Q 959 1106 1268 751 
Q 1578 397 2138 397 
Q 2388 397 2633 464 
Q 2878 531 3122 666 
L 3122 134 
Q 2881 22 2623 -34 
Q 2366 -91 2075 -91 
Q 1284 -91 818 406 
Q 353 903 353 1747 
Q 353 2603 823 3093 
Q 1294 3584 2113 3584 
Q 2378 3584 2631 3529 
Q 2884 3475 3122 3366 
z
" transform="scale(0.015625)"/>
       <path id="DejaVuSans-75" d="M 544 1381 
L 544 3500 
L 1119 3500 
L 1119 1403 
Q 1119 906 1312 657 
Q 1506 409 1894 409 
Q 2359 409 2629 706 
Q 2900 1003 2900 1516 
L 2900 3500 
L 3475 3500 
L 3475 0 
L 2900 0 
L 2900 538 
Q 2691 219 2414 64 
Q 2138 -91 1772 -91 
Q 1169 -91 856 284 
Q 544 659 544 1381 
z
M 1991 3584 
L 1991 3584 
z
" transform="scale(0.015625)"/>
       <path id="DejaVuSans-72" d="M 2631 2963 
Q 2534 3019 2420 3045 
Q 2306 3072 2169 3072 
Q 1681 3072 1420 2755 
Q 1159 2438 1159 1844 
L 1159 0 
L 581 0 
L 581 3500 
L 1159 3500 
L 1159 2956 
Q 1341 3275 1631 3429 
Q 1922 3584 2338 3584 
Q 2397 3584 2469 3576 
Q 2541 3569 2628 3553 
L 2631 2963 
z
" transform="scale(0.015625)"/>
       <path id="DejaVuSans-79" d="M 2059 -325 
Q 1816 -950 1584 -1140 
Q 1353 -1331 966 -1331 
L 506 -1331 
L 506 -850 
L 844 -850 
Q 1081 -850 1212 -737 
Q 1344 -625 1503 -206 
L 1606 56 
L 191 3500 
L 800 3500 
L 1894 763 
L 2988 3500 
L 3597 3500 
L 2059 -325 
z
" transform="scale(0.015625)"/>
      </defs>
      <use xlink:href="#DejaVuSans-46"/>
      <use xlink:href="#DejaVuSans-69" x="50.269531"/>
      <use xlink:href="#DejaVuSans-6e" x="78.052734"/>
      <use xlink:href="#DejaVuSans-61" x="141.431641"/>
      <use xlink:href="#DejaVuSans-6c" x="202.710938"/>
      <use xlink:href="#DejaVuSans-20" x="230.494141"/>
      <use xlink:href="#DejaVuSans-54" x="262.28125"/>
      <use xlink:href="#DejaVuSans-65" x="306.365234"/>
      <use xlink:href="#DejaVuSans-73" x="367.888672"/>
      <use xlink:href="#DejaVuSans-74" x="419.988281"/>
      <use xlink:href="#DejaVuSans-20" x="459.197266"/>
      <use xlink:href="#DejaVuSans-41" x="490.984375"/>
      <use xlink:href="#DejaVuSans-63" x="557.642578"/>
      <use xlink:href="#DejaVuSans-63" x="612.623047"/>
      <use xlink:href="#DejaVuSans-75" x="667.603516"/>
      <use xlink:href="#DejaVuSans-72" x="730.982422"/>
      <use xlink:href="#DejaVuSans-61" x="772.095703"/>
      <use xlink:href="#DejaVuSans-63" x="833.375"/>
      <use xlink:href="#DejaVuSans-79" x="888.355469"/>
     </g>
    </g>
   </g>
   <g id="PolyCollection_1">
    <path d="M 55.468125 35.380799 
L 55.468125 27.221699 
L 650.705025 27.221699 
L 650.705025 35.380799 
L 650.705025 35.380799 
L 55.468125 35.380799 
z
" clip-path="url(#p5d0ba0ab84)" style="fill: #949494; fill-opacity: 0.2"/>
   </g>
   <g id="PolyCollection_2">
    <path d="M 55.468125 35.380799 
L 55.468125 27.221699 
L 85.22997 29.691824 
L 114.991815 34.647384 
L 144.75366 32.147829 
L 174.515505 39.373911 
L 204.27735 39.765394 
L 234.039195 33.226764 
L 263.80104 36.030986 
L 293.562885 40.952712 
L 323.32473 46.940448 
L 353.086575 48.987038 
L 382.84842 71.782021 
L 412.610265 79.080065 
L 442.37211 105.636245 
L 472.133955 143.209383 
L 501.8958 207.784964 
L 531.657645 260.530825 
L 561.41949 313.493086 
L 591.181335 352.963006 
L 620.94318 411.012942 
L 650.705025 477.820672 
L 650.705025 528.608369 
L 650.705025 528.608369 
L 620.94318 441.216034 
L 591.181335 380.791464 
L 561.41949 342.397983 
L 531.657645 274.748311 
L 501.8958 230.546607 
L 472.133955 184.281347 
L 442.37211 139.410886 
L 412.610265 117.264273 
L 382.84842 91.584877 
L 353.086575 83.997866 
L 323.32473 67.723657 
L 293.562885 64.550992 
L 263.80104 58.327566 
L 234.039195 59.452381 
L 204.27735 49.249591 
L 174.515505 45.518894 
L 144.75366 39.767743 
L 114.991815 38.336901 
L 85.22997 36.116814 
L 55.468125 35.380799 
z
" clip-path="url(#p5d0ba0ab84)" style="fill: #0173b2; fill-opacity: 0.2"/>
   </g>
   <g id="PolyCollection_3">
    <path d="M 55.468125 32.972745 
L 55.468125 28.56104 
L 85.22997 26.150488 
L 114.991815 34.378104 
L 144.75366 33.822838 
L 174.515505 38.718264 
L 204.27735 53.340121 
L 234.039195 52.850878 
L 263.80104 68.567436 
L 293.562885 66.384311 
L 323.32473 77.237405 
L 353.086575 89.949807 
L 382.84842 99.159635 
L 412.610265 134.089575 
L 442.37211 160.794457 
L 472.133955 202.35966 
L 501.8958 238.064165 
L 531.657645 288.22794 
L 561.41949 332.588104 
L 591.181335 373.801408 
L 620.94318 430.124473 
L 650.705025 520.453715 
L 650.705025 610.862113 
L 650.705025 610.862113 
L 620.94318 476.150862 
L 591.181335 420.259028 
L 561.41949 360.555259 
L 531.657645 317.738949 
L 501.8958 262.558125 
L 472.133955 234.750523 
L 442.37211 201.658467 
L 412.610265 170.347483 
L 382.84842 140.696603 
L 353.086575 128.074144 
L 323.32473 108.725146 
L 293.562885 85.837434 
L 263.80104 81.974902 
L 234.039195 72.347687 
L 204.27735 59.339231 
L 174.515505 54.266227 
L 144.75366 45.573727 
L 114.991815 37.842814 
L 85.22997 44.69637 
L 55.468125 32.972745 
z
" clip-path="url(#p5d0ba0ab84)" style="fill: #de8f05; fill-opacity: 0.2"/>
   </g>
   <g id="PolyCollection_4">
    <path d="M 55.468125 33.185116 
L 55.468125 18.730249 
L 85.22997 31.474528 
L 114.991815 38.922879 
L 144.75366 52.124295 
L 174.515505 62.727544 
L 204.27735 70.758502 
L 234.039195 88.517812 
L 263.80104 95.474844 
L 293.562885 117.47821 
L 323.32473 133.357014 
L 353.086575 155.990553 
L 382.84842 180.988135 
L 412.610265 205.855463 
L 442.37211 240.772116 
L 472.133955 275.621702 
L 501.8958 298.13453 
L 531.657645 350.331957 
L 561.41949 399.965768 
L 591.181335 440.664135 
L 620.94318 501.226873 
L 650.705025 581.879073 
L 650.705025 654.323334 
L 650.705025 654.323334 
L 620.94318 565.660808 
L 591.181335 461.794367 
L 561.41949 411.499428 
L 531.657645 371.819339 
L 501.8958 327.52722 
L 472.133955 281.795068 
L 442.37211 256.033341 
L 412.610265 219.956894 
L 382.84842 187.877069 
L 353.086575 162.797798 
L 323.32473 147.11033 
L 293.562885 119.935255 
L 263.80104 108.96118 
L 234.039195 94.391272 
L 204.27735 88.638889 
L 174.515505 70.868054 
L 144.75366 61.471096 
L 114.991815 47.649332 
L 85.22997 39.37233 
L 55.468125 33.185116 
z
" clip-path="url(#p5d0ba0ab84)" style="fill: #ece133; fill-opacity: 0.2"/>
   </g>
   <g id="PolyCollection_5">
    <path d="M 55.468125 33.804493 
L 55.468125 27.576619 
L 85.22997 29.733048 
L 114.991815 39.886558 
L 144.75366 42.629988 
L 174.515505 45.66393 
L 204.27735 57.375428 
L 234.039195 61.948849 
L 263.80104 64.097737 
L 293.562885 66.952329 
L 323.32473 85.552584 
L 353.086575 90.50866 
L 382.84842 129.167489 
L 412.610265 146.646105 
L 442.37211 183.416401 
L 472.133955 225.846352 
L 501.8958 266.052054 
L 531.657645 301.515118 
L 561.41949 344.093169 
L 591.181335 399.431327 
L 620.94318 452.344115 
L 650.705025 545.627625 
L 650.705025 594.085236 
L 650.705025 594.085236 
L 620.94318 481.717766 
L 591.181335 434.018829 
L 561.41949 373.477927 
L 531.657645 311.932765 
L 501.8958 270.90649 
L 472.133955 237.676319 
L 442.37211 201.784849 
L 412.610265 184.814133 
L 382.84842 138.017276 
L 353.086575 122.171725 
L 323.32473 106.669574 
L 293.562885 95.193182 
L 263.80104 74.841428 
L 234.039195 68.440609 
L 204.27735 66.60175 
L 174.515505 52.816802 
L 144.75366 51.270543 
L 114.991815 52.94526 
L 85.22997 39.892423 
L 55.468125 33.804493 
z
" clip-path="url(#p5d0ba0ab84)" style="fill: #d55e00; fill-opacity: 0.2"/>
   </g>
   <g id="PolyCollection_6">
    <path d="M 55.468125 37.801716 
L 55.468125 26.480188 
L 85.22997 27.194037 
L 114.991815 36.362911 
L 144.75366 31.771211 
L 174.515505 33.517157 
L 204.27735 44.600894 
L 234.039195 44.846471 
L 263.80104 56.688348 
L 293.562885 51.269836 
L 323.32473 52.300677 
L 353.086575 61.408875 
L 382.84842 88.782069 
L 412.610265 126.358732 
L 442.37211 165.530489 
L 472.133955 210.28722 
L 501.8958 244.934945 
L 531.657645 290.823943 
L 561.41949 328.646364 
L 591.181335 381.618286 
L 620.94318 452.022015 
L 650.705025 510.31505 
L 650.705025 572.450658 
L 650.705025 572.450658 
L 620.94318 511.658494 
L 591.181335 437.175229 
L 561.41949 359.458778 
L 531.657645 329.03622 
L 501.8958 288.359438 
L 472.133955 243.769704 
L 442.37211 209.136302 
L 412.610265 172.429412 
L 382.84842 147.868029 
L 353.086575 110.660403 
L 323.32473 90.607995 
L 293.562885 82.631109 
L 263.80104 72.78507 
L 234.039195 65.08476 
L 204.27735 60.292118 
L 174.515505 47.100794 
L 144.75366 41.51842 
L 114.991815 43.797021 
L 85.22997 41.973415 
L 55.468125 37.801716 
z
" clip-path="url(#p5d0ba0ab84)" style="fill: #029e73; fill-opacity: 0.1"/>
   </g>
   <g id="line2d_37">
    <path d="M 55.468125 31.301249 
L 531.657645 31.301249 
" clip-path="url(#p5d0ba0ab84)" style="fill: none; stroke-dasharray: 12.8,3.2,2,3.2; stroke-dashoffset: 0; stroke: #949494; stroke-opacity: 0.8; stroke-width: 2"/>
   </g>
   <g id="line2d_38">
    <path d="M 55.468125 31.301249 
L 85.22997 32.904319 
L 114.991815 36.492142 
L 144.75366 35.957786 
L 174.515505 42.446402 
L 204.27735 44.507492 
L 234.039195 46.339572 
L 263.80104 47.179276 
L 293.562885 52.751852 
L 323.32473 57.332052 
L 353.086575 66.492452 
L 382.84842 81.683449 
L 412.610265 98.172169 
L 442.37211 122.523565 
L 472.133955 163.745365 
L 501.8958 219.165785 
L 531.657645 267.639568 
L 546.344601 297.39952 
" clip-path="url(#p5d0ba0ab84)" style="fill: none; stroke-dasharray: 7.4,3.2; stroke-dashoffset: 0; stroke: #0173b2; stroke-opacity: 0.8; stroke-width: 2"/>
   </g>
   <g id="line2d_39">
    <path d="M 55.468125 30.766892 
L 85.22997 35.423429 
L 114.991815 36.110459 
L 144.75366 39.698282 
L 174.515505 46.492246 
L 204.27735 56.339676 
L 234.039195 62.599282 
L 263.80104 75.271169 
L 293.562885 76.110872 
L 323.32473 92.981276 
L 353.086575 109.011976 
L 382.84842 119.928119 
L 412.610265 152.218529 
L 442.37211 181.226462 
L 472.133955 218.555092 
L 501.8958 250.311145 
L 528.502516 297.39952 
" clip-path="url(#p5d0ba0ab84)" style="fill: none; stroke-dasharray: 7.4,3.2; stroke-dashoffset: 0; stroke: #de8f05; stroke-opacity: 0.8; stroke-width: 2"/>
   </g>
   <g id="line2d_40">
    <path d="M 55.468125 25.957682 
L 85.22997 35.423429 
L 114.991815 43.286106 
L 144.75366 56.797696 
L 174.515505 66.797799 
L 204.27735 79.698696 
L 234.039195 91.454542 
L 263.80104 102.218012 
L 293.562885 118.706732 
L 323.32473 140.233672 
L 353.086575 159.394175 
L 382.84842 184.432602 
L 412.610265 212.906178 
L 442.37211 248.402728 
L 472.133955 278.708385 
L 488.436478 297.39952 
" clip-path="url(#p5d0ba0ab84)" style="fill: none; stroke-dasharray: 7.4,3.2; stroke-dashoffset: 0; stroke: #ece133; stroke-opacity: 0.8; stroke-width: 2"/>
   </g>
   <g id="line2d_41">
    <path d="M 55.468125 30.690556 
L 85.22997 34.812736 
L 114.991815 46.415909 
L 144.75366 46.950266 
L 174.515505 49.240366 
L 204.27735 61.988589 
L 234.039195 65.194729 
L 263.80104 69.469582 
L 293.562885 81.072756 
L 323.32473 96.111079 
L 353.086575 106.340192 
L 382.84842 133.592382 
L 412.610265 165.730119 
L 442.37211 192.600625 
L 472.133955 231.761335 
L 501.8958 268.479272 
L 524.401418 297.39952 
" clip-path="url(#p5d0ba0ab84)" style="fill: none; stroke: #d55e00; stroke-opacity: 0.8; stroke-width: 2; stroke-linecap: round"/>
    <defs>
     <path id="m4da735be31" d="M 0 -3 
L -3 3 
L 3 3 
z
" style="stroke: #d55e00; stroke-opacity: 0.8; stroke-linejoin: miter"/>
    </defs>
    <g clip-path="url(#p5d0ba0ab84)">
     <use xlink:href="#m4da735be31" x="55.468125" y="30.690556" style="fill: #d55e00; fill-opacity: 0.8; stroke: #d55e00; stroke-opacity: 0.8; stroke-linejoin: miter"/>
     <use xlink:href="#m4da735be31" x="85.22997" y="34.812736" style="fill: #d55e00; fill-opacity: 0.8; stroke: #d55e00; stroke-opacity: 0.8; stroke-linejoin: miter"/>
     <use xlink:href="#m4da735be31" x="114.991815" y="46.415909" style="fill: #d55e00; fill-opacity: 0.8; stroke: #d55e00; stroke-opacity: 0.8; stroke-linejoin: miter"/>
     <use xlink:href="#m4da735be31" x="144.75366" y="46.950266" style="fill: #d55e00; fill-opacity: 0.8; stroke: #d55e00; stroke-opacity: 0.8; stroke-linejoin: miter"/>
     <use xlink:href="#m4da735be31" x="174.515505" y="49.240366" style="fill: #d55e00; fill-opacity: 0.8; stroke: #d55e00; stroke-opacity: 0.8; stroke-linejoin: miter"/>
     <use xlink:href="#m4da735be31" x="204.27735" y="61.988589" style="fill: #d55e00; fill-opacity: 0.8; stroke: #d55e00; stroke-opacity: 0.8; stroke-linejoin: miter"/>
     <use xlink:href="#m4da735be31" x="234.039195" y="65.194729" style="fill: #d55e00; fill-opacity: 0.8; stroke: #d55e00; stroke-opacity: 0.8; stroke-linejoin: miter"/>
     <use xlink:href="#m4da735be31" x="263.80104" y="69.469582" style="fill: #d55e00; fill-opacity: 0.8; stroke: #d55e00; stroke-opacity: 0.8; stroke-linejoin: miter"/>
     <use xlink:href="#m4da735be31" x="293.562885" y="81.072756" style="fill: #d55e00; fill-opacity: 0.8; stroke: #d55e00; stroke-opacity: 0.8; stroke-linejoin: miter"/>
     <use xlink:href="#m4da735be31" x="323.32473" y="96.111079" style="fill: #d55e00; fill-opacity: 0.8; stroke: #d55e00; stroke-opacity: 0.8; stroke-linejoin: miter"/>
     <use xlink:href="#m4da735be31" x="353.086575" y="106.340192" style="fill: #d55e00; fill-opacity: 0.8; stroke: #d55e00; stroke-opacity: 0.8; stroke-linejoin: miter"/>
     <use xlink:href="#m4da735be31" x="382.84842" y="133.592382" style="fill: #d55e00; fill-opacity: 0.8; stroke: #d55e00; stroke-opacity: 0.8; stroke-linejoin: miter"/>
     <use xlink:href="#m4da735be31" x="412.610265" y="165.730119" style="fill: #d55e00; fill-opacity: 0.8; stroke: #d55e00; stroke-opacity: 0.8; stroke-linejoin: miter"/>
     <use xlink:href="#m4da735be31" x="442.37211" y="192.600625" style="fill: #d55e00; fill-opacity: 0.8; stroke: #d55e00; stroke-opacity: 0.8; stroke-linejoin: miter"/>
     <use xlink:href="#m4da735be31" x="472.133955" y="231.761335" style="fill: #d55e00; fill-opacity: 0.8; stroke: #d55e00; stroke-opacity: 0.8; stroke-linejoin: miter"/>
     <use xlink:href="#m4da735be31" x="501.8958" y="268.479272" style="fill: #d55e00; fill-opacity: 0.8; stroke: #d55e00; stroke-opacity: 0.8; stroke-linejoin: miter"/>
     <use xlink:href="#m4da735be31" x="531.657645" y="306.723941" style="fill: #d55e00; fill-opacity: 0.8; stroke: #d55e00; stroke-opacity: 0.8; stroke-linejoin: miter"/>
     <use xlink:href="#m4da735be31" x="561.41949" y="358.785548" style="fill: #d55e00; fill-opacity: 0.8; stroke: #d55e00; stroke-opacity: 0.8; stroke-linejoin: miter"/>
     <use xlink:href="#m4da735be31" x="591.181335" y="416.725078" style="fill: #d55e00; fill-opacity: 0.8; stroke: #d55e00; stroke-opacity: 0.8; stroke-linejoin: miter"/>
     <use xlink:href="#m4da735be31" x="620.94318" y="467.030941" style="fill: #d55e00; fill-opacity: 0.8; stroke: #d55e00; stroke-opacity: 0.8; stroke-linejoin: miter"/>
     <use xlink:href="#m4da735be31" x="650.705025" y="569.856431" style="fill: #d55e00; fill-opacity: 0.8; stroke: #d55e00; stroke-opacity: 0.8; stroke-linejoin: miter"/>
    </g>
   </g>
   <g id="line2d_42">
    <path d="M 55.468125 32.140952 
L 85.22997 34.583726 
L 114.991815 40.079966 
L 144.75366 36.644816 
L 174.515505 40.308976 
L 204.27735 52.446506 
L 234.039195 54.965616 
L 263.80104 64.736709 
L 293.562885 66.950472 
L 323.32473 71.454336 
L 353.086575 86.034639 
L 382.84842 118.325049 
L 412.610265 149.394072 
L 442.37211 187.333395 
L 472.133955 227.028462 
L 501.8958 266.647192 
L 523.041478 297.39952 
" clip-path="url(#p5d0ba0ab84)" style="fill: none; stroke: #029e73; stroke-opacity: 0.8; stroke-width: 2; stroke-linecap: round"/>
    <defs>
     <path id="me6ba9fff55" d="M 0 3 
C 0.795609 3 1.55874 2.683901 2.12132 2.12132 
C 2.683901 1.55874 3 0.795609 3 0 
C 3 -0.795609 2.683901 -1.55874 2.12132 -2.12132 
C 1.55874 -2.683901 0.795609 -3 0 -3 
C -0.795609 -3 -1.55874 -2.683901 -2.12132 -2.12132 
C -2.683901 -1.55874 -3 -0.795609 -3 0 
C -3 0.795609 -2.683901 1.55874 -2.12132 2.12132 
C -1.55874 2.683901 -0.795609 3 0 3 
z
" style="stroke: #029e73; stroke-opacity: 0.8"/>
    </defs>
    <g clip-path="url(#p5d0ba0ab84)">
     <use xlink:href="#me6ba9fff55" x="55.468125" y="32.140952" style="fill: #029e73; fill-opacity: 0.8; stroke: #029e73; stroke-opacity: 0.8"/>
     <use xlink:href="#me6ba9fff55" x="85.22997" y="34.583726" style="fill: #029e73; fill-opacity: 0.8; stroke: #029e73; stroke-opacity: 0.8"/>
     <use xlink:href="#me6ba9fff55" x="114.991815" y="40.079966" style="fill: #029e73; fill-opacity: 0.8; stroke: #029e73; stroke-opacity: 0.8"/>
     <use xlink:href="#me6ba9fff55" x="144.75366" y="36.644816" style="fill: #029e73; fill-opacity: 0.8; stroke: #029e73; stroke-opacity: 0.8"/>
     <use xlink:href="#me6ba9fff55" x="174.515505" y="40.308976" style="fill: #029e73; fill-opacity: 0.8; stroke: #029e73; stroke-opacity: 0.8"/>
     <use xlink:href="#me6ba9fff55" x="204.27735" y="52.446506" style="fill: #029e73; fill-opacity: 0.8; stroke: #029e73; stroke-opacity: 0.8"/>
     <use xlink:href="#me6ba9fff55" x="234.039195" y="54.965616" style="fill: #029e73; fill-opacity: 0.8; stroke: #029e73; stroke-opacity: 0.8"/>
     <use xlink:href="#me6ba9fff55" x="263.80104" y="64.736709" style="fill: #029e73; fill-opacity: 0.8; stroke: #029e73; stroke-opacity: 0.8"/>
     <use xlink:href="#me6ba9fff55" x="293.562885" y="66.950472" style="fill: #029e73; fill-opacity: 0.8; stroke: #029e73; stroke-opacity: 0.8"/>
     <use xlink:href="#me6ba9fff55" x="323.32473" y="71.454336" style="fill: #029e73; fill-opacity: 0.8; stroke: #029e73; stroke-opacity: 0.8"/>
     <use xlink:href="#me6ba9fff55" x="353.086575" y="86.034639" style="fill: #029e73; fill-opacity: 0.8; stroke: #029e73; stroke-opacity: 0.8"/>
     <use xlink:href="#me6ba9fff55" x="382.84842" y="118.325049" style="fill: #029e73; fill-opacity: 0.8; stroke: #029e73; stroke-opacity: 0.8"/>
     <use xlink:href="#me6ba9fff55" x="412.610265" y="149.394072" style="fill: #029e73; fill-opacity: 0.8; stroke: #029e73; stroke-opacity: 0.8"/>
     <use xlink:href="#me6ba9fff55" x="442.37211" y="187.333395" style="fill: #029e73; fill-opacity: 0.8; stroke: #029e73; stroke-opacity: 0.8"/>
     <use xlink:href="#me6ba9fff55" x="472.133955" y="227.028462" style="fill: #029e73; fill-opacity: 0.8; stroke: #029e73; stroke-opacity: 0.8"/>
     <use xlink:href="#me6ba9fff55" x="501.8958" y="266.647192" style="fill: #029e73; fill-opacity: 0.8; stroke: #029e73; stroke-opacity: 0.8"/>
     <use xlink:href="#me6ba9fff55" x="531.657645" y="309.930081" style="fill: #029e73; fill-opacity: 0.8; stroke: #029e73; stroke-opacity: 0.8"/>
     <use xlink:href="#me6ba9fff55" x="561.41949" y="344.052571" style="fill: #029e73; fill-opacity: 0.8; stroke: #029e73; stroke-opacity: 0.8"/>
     <use xlink:href="#me6ba9fff55" x="591.181335" y="409.396758" style="fill: #029e73; fill-opacity: 0.8; stroke: #029e73; stroke-opacity: 0.8"/>
     <use xlink:href="#me6ba9fff55" x="620.94318" y="481.840254" style="fill: #029e73; fill-opacity: 0.8; stroke: #029e73; stroke-opacity: 0.8"/>
     <use xlink:href="#me6ba9fff55" x="650.705025" y="541.382854" style="fill: #029e73; fill-opacity: 0.8; stroke: #029e73; stroke-opacity: 0.8"/>
    </g>
   </g>
   <g id="patch_3">
    <path d="M 55.468125 256.036395 
L 55.468125 11.759062 
" style="fill: none; stroke: #262626; stroke-width: 0.6; stroke-linejoin: miter; stroke-linecap: square"/>
   </g>
   <g id="patch_4">
    <path d="M 55.468125 256.036395 
L 531.657645 256.036395 
" style="fill: none; stroke: #262626; stroke-width: 0.6; stroke-linejoin: miter; stroke-linecap: square"/>
   </g>
  </g>
 </g>
 <defs>
  <clipPath id="p5d0ba0ab84">
   <rect x="55.468125" y="11.759062" width="476.18952" height="244.277333"/>
  </clipPath>
 </defs>
</svg>
