<?xml version="1.0" encoding="utf-8" standalone="no"?>
<!DOCTYPE svg PUBLIC "-//W3C//DTD SVG 1.1//EN"
  "http://www.w3.org/Graphics/SVG/1.1/DTD/svg11.dtd">
<svg xmlns:xlink="http://www.w3.org/1999/xlink" width="548.39952pt" height="296.39952pt" viewBox="0 0 548.39952 296.39952" xmlns="http://www.w3.org/2000/svg" version="1.1">
 <metadata>
  <rdf:RDF xmlns:dc="http://purl.org/dc/elements/1.1/" xmlns:cc="http://creativecommons.org/ns#" xmlns:rdf="http://www.w3.org/1999/02/22-rdf-syntax-ns#">
   <cc:Work>
    <dc:type rdf:resource="http://purl.org/dc/dcmitype/StillImage"/>
    <dc:date>2022-05-18T02:57:21.429060</dc:date>
    <dc:format>image/svg+xml</dc:format>
    <dc:creator>
     <cc:Agent>
      <dc:title>Matplotlib v3.5.1, https://matplotlib.org/</dc:title>
     </cc:Agent>
    </dc:creator>
   </cc:Work>
  </rdf:RDF>
 </metadata>
 <defs>
  <style type="text/css">*{stroke-linejoin: round; stroke-linecap: butt}</style>
 </defs>
 <g id="figure_1">
  <g id="patch_1">
   <path d="M 0 296.39952 
L 548.39952 296.39952 
L 548.39952 0 
L 0 0 
z
" style="fill: #ffffff"/>
  </g>
  <g id="axes_1">
   <g id="patch_2">
    <path d="M 55.468125 256.036395 
L 531.657645 256.036395 
L 531.657645 7.2 
L 55.468125 7.2 
z
" style="fill: #ffffff"/>
   </g>
   <g id="matplotlib.axis_1">
    <g id="xtick_1">
     <g id="line2d_1">
      <path d="M 55.468125 256.036395 
L 55.468125 7.2 
" clip-path="url(#pca48894d5e)" style="fill: none; stroke: #cccccc; stroke-width: 0.6; stroke-linecap: round"/>
     </g>
     <g id="line2d_2">
      <defs>
       <path id="m99a2e2aa74" d="M 0 0 
L 0 4 
" style="stroke: #262626; stroke-width: 0.6"/>
      </defs>
      <g>
       <use xlink:href="#m99a2e2aa74" x="55.468125" y="256.036395" style="fill: #262626; stroke: #262626; stroke-width: 0.6"/>
      </g>
     </g>
     <g id="text_1">
      <!-- 100.0 -->
      <g style="fill: #262626" transform="translate(38.29125 271.15452)scale(0.12 -0.12)">
       <defs>
        <path id="DejaVuSans-31" d="M 794 531 
L 1825 531 
L 1825 4091 
L 703 3866 
L 703 4441 
L 1819 4666 
L 2450 4666 
L 2450 531 
L 3481 531 
L 3481 0 
L 794 0 
L 794 531 
z
" transform="scale(0.015625)"/>
        <path id="DejaVuSans-30" d="M 2034 4250 
Q 1547 4250 1301 3770 
Q 1056 3291 1056 2328 
Q 1056 1369 1301 889 
Q 1547 409 2034 409 
Q 2525 409 2770 889 
Q 3016 1369 3016 2328 
Q 3016 3291 2770 3770 
Q 2525 4250 2034 4250 
z
M 2034 4750 
Q 2819 4750 3233 4129 
Q 3647 3509 3647 2328 
Q 3647 1150 3233 529 
Q 2819 -91 2034 -91 
Q 1250 -91 836 529 
Q 422 1150 422 2328 
Q 422 3509 836 4129 
Q 1250 4750 2034 4750 
z
" transform="scale(0.015625)"/>
        <path id="DejaVuSans-2e" d="M 684 794 
L 1344 794 
L 1344 0 
L 684 0 
L 684 794 
z
" transform="scale(0.015625)"/>
       </defs>
       <use xlink:href="#DejaVuSans-31"/>
       <use xlink:href="#DejaVuSans-30" x="63.623047"/>
       <use xlink:href="#DejaVuSans-30" x="127.246094"/>
       <use xlink:href="#DejaVuSans-2e" x="190.869141"/>
       <use xlink:href="#DejaVuSans-30" x="222.65625"/>
      </g>
     </g>
    </g>
    <g id="xtick_2">
     <g id="line2d_3">
      <path d="M 114.991815 256.036395 
L 114.991815 7.2 
" clip-path="url(#pca48894d5e)" style="fill: none; stroke: #cccccc; stroke-width: 0.6; stroke-linecap: round"/>
     </g>
     <g id="line2d_4">
      <g>
       <use xlink:href="#m99a2e2aa74" x="114.991815" y="256.036395" style="fill: #262626; stroke: #262626; stroke-width: 0.6"/>
      </g>
     </g>
     <g id="text_2">
      <!-- 64.0 -->
      <g style="fill: #262626" transform="translate(101.63244 271.15452)scale(0.12 -0.12)">
       <defs>
        <path id="DejaVuSans-36" d="M 2113 2584 
Q 1688 2584 1439 2293 
Q 1191 2003 1191 1497 
Q 1191 994 1439 701 
Q 1688 409 2113 409 
Q 2538 409 2786 701 
Q 3034 994 3034 1497 
Q 3034 2003 2786 2293 
Q 2538 2584 2113 2584 
z
M 3366 4563 
L 3366 3988 
Q 3128 4100 2886 4159 
Q 2644 4219 2406 4219 
Q 1781 4219 1451 3797 
Q 1122 3375 1075 2522 
Q 1259 2794 1537 2939 
Q 1816 3084 2150 3084 
Q 2853 3084 3261 2657 
Q 3669 2231 3669 1497 
Q 3669 778 3244 343 
Q 2819 -91 2113 -91 
Q 1303 -91 875 529 
Q 447 1150 447 2328 
Q 447 3434 972 4092 
Q 1497 4750 2381 4750 
Q 2619 4750 2861 4703 
Q 3103 4656 3366 4563 
z
" transform="scale(0.015625)"/>
        <path id="DejaVuSans-34" d="M 2419 4116 
L 825 1625 
L 2419 1625 
L 2419 4116 
z
M 2253 4666 
L 3047 4666 
L 3047 1625 
L 3713 1625 
L 3713 1100 
L 3047 1100 
L 3047 0 
L 2419 0 
L 2419 1100 
L 313 1100 
L 313 1709 
L 2253 4666 
z
" transform="scale(0.015625)"/>
       </defs>
       <use xlink:href="#DejaVuSans-36"/>
       <use xlink:href="#DejaVuSans-34" x="63.623047"/>
       <use xlink:href="#DejaVuSans-2e" x="127.246094"/>
       <use xlink:href="#DejaVuSans-30" x="159.033203"/>
      </g>
     </g>
    </g>
    <g id="xtick_3">
     <g id="line2d_5">
      <path d="M 174.515505 256.036395 
L 174.515505 7.2 
" clip-path="url(#pca48894d5e)" style="fill: none; stroke: #cccccc; stroke-width: 0.6; stroke-linecap: round"/>
     </g>
     <g id="line2d_6">
      <g>
       <use xlink:href="#m99a2e2aa74" x="174.515505" y="256.036395" style="fill: #262626; stroke: #262626; stroke-width: 0.6"/>
      </g>
     </g>
     <g id="text_3">
      <!-- 41.0 -->
      <g style="fill: #262626" transform="translate(161.15613 271.15452)scale(0.12 -0.12)">
       <use xlink:href="#DejaVuSans-34"/>
       <use xlink:href="#DejaVuSans-31" x="63.623047"/>
       <use xlink:href="#DejaVuSans-2e" x="127.246094"/>
       <use xlink:href="#DejaVuSans-30" x="159.033203"/>
      </g>
     </g>
    </g>
    <g id="xtick_4">
     <g id="line2d_7">
      <path d="M 234.039195 256.036395 
L 234.039195 7.2 
" clip-path="url(#pca48894d5e)" style="fill: none; stroke: #cccccc; stroke-width: 0.6; stroke-linecap: round"/>
     </g>
     <g id="line2d_8">
      <g>
       <use xlink:href="#m99a2e2aa74" x="234.039195" y="256.036395" style="fill: #262626; stroke: #262626; stroke-width: 0.6"/>
      </g>
     </g>
     <g id="text_4">
      <!-- 26.2 -->
      <g style="fill: #262626" transform="translate(220.67982 271.15452)scale(0.12 -0.12)">
       <defs>
        <path id="DejaVuSans-32" d="M 1228 531 
L 3431 531 
L 3431 0 
L 469 0 
L 469 531 
Q 828 903 1448 1529 
Q 2069 2156 2228 2338 
Q 2531 2678 2651 2914 
Q 2772 3150 2772 3378 
Q 2772 3750 2511 3984 
Q 2250 4219 1831 4219 
Q 1534 4219 1204 4116 
Q 875 4013 500 3803 
L 500 4441 
Q 881 4594 1212 4672 
Q 1544 4750 1819 4750 
Q 2544 4750 2975 4387 
Q 3406 4025 3406 3419 
Q 3406 3131 3298 2873 
Q 3191 2616 2906 2266 
Q 2828 2175 2409 1742 
Q 1991 1309 1228 531 
z
" transform="scale(0.015625)"/>
       </defs>
       <use xlink:href="#DejaVuSans-32"/>
       <use xlink:href="#DejaVuSans-36" x="63.623047"/>
       <use xlink:href="#DejaVuSans-2e" x="127.246094"/>
       <use xlink:href="#DejaVuSans-32" x="159.033203"/>
      </g>
     </g>
    </g>
    <g id="xtick_5">
     <g id="line2d_9">
      <path d="M 293.562885 256.036395 
L 293.562885 7.2 
" clip-path="url(#pca48894d5e)" style="fill: none; stroke: #cccccc; stroke-width: 0.6; stroke-linecap: round"/>
     </g>
     <g id="line2d_10">
      <g>
       <use xlink:href="#m99a2e2aa74" x="293.562885" y="256.036395" style="fill: #262626; stroke: #262626; stroke-width: 0.6"/>
      </g>
     </g>
     <g id="text_5">
      <!-- 16.8 -->
      <g style="fill: #262626" transform="translate(280.20351 271.15452)scale(0.12 -0.12)">
       <defs>
        <path id="DejaVuSans-38" d="M 2034 2216 
Q 1584 2216 1326 1975 
Q 1069 1734 1069 1313 
Q 1069 891 1326 650 
Q 1584 409 2034 409 
Q 2484 409 2743 651 
Q 3003 894 3003 1313 
Q 3003 1734 2745 1975 
Q 2488 2216 2034 2216 
z
M 1403 2484 
Q 997 2584 770 2862 
Q 544 3141 544 3541 
Q 544 4100 942 4425 
Q 1341 4750 2034 4750 
Q 2731 4750 3128 4425 
Q 3525 4100 3525 3541 
Q 3525 3141 3298 2862 
Q 3072 2584 2669 2484 
Q 3125 2378 3379 2068 
Q 3634 1759 3634 1313 
Q 3634 634 3220 271 
Q 2806 -91 2034 -91 
Q 1263 -91 848 271 
Q 434 634 434 1313 
Q 434 1759 690 2068 
Q 947 2378 1403 2484 
z
M 1172 3481 
Q 1172 3119 1398 2916 
Q 1625 2713 2034 2713 
Q 2441 2713 2670 2916 
Q 2900 3119 2900 3481 
Q 2900 3844 2670 4047 
Q 2441 4250 2034 4250 
Q 1625 4250 1398 4047 
Q 1172 3844 1172 3481 
z
" transform="scale(0.015625)"/>
       </defs>
       <use xlink:href="#DejaVuSans-31"/>
       <use xlink:href="#DejaVuSans-36" x="63.623047"/>
       <use xlink:href="#DejaVuSans-2e" x="127.246094"/>
       <use xlink:href="#DejaVuSans-38" x="159.033203"/>
      </g>
     </g>
    </g>
    <g id="xtick_6">
     <g id="line2d_11">
      <path d="M 353.086575 256.036395 
L 353.086575 7.2 
" clip-path="url(#pca48894d5e)" style="fill: none; stroke: #cccccc; stroke-width: 0.6; stroke-linecap: round"/>
     </g>
     <g id="line2d_12">
      <g>
       <use xlink:href="#m99a2e2aa74" x="353.086575" y="256.036395" style="fill: #262626; stroke: #262626; stroke-width: 0.6"/>
      </g>
     </g>
     <g id="text_6">
      <!-- 10.7 -->
      <g style="fill: #262626" transform="translate(339.7272 271.15452)scale(0.12 -0.12)">
       <defs>
        <path id="DejaVuSans-37" d="M 525 4666 
L 3525 4666 
L 3525 4397 
L 1831 0 
L 1172 0 
L 2766 4134 
L 525 4134 
L 525 4666 
z
" transform="scale(0.015625)"/>
       </defs>
       <use xlink:href="#DejaVuSans-31"/>
       <use xlink:href="#DejaVuSans-30" x="63.623047"/>
       <use xlink:href="#DejaVuSans-2e" x="127.246094"/>
       <use xlink:href="#DejaVuSans-37" x="159.033203"/>
      </g>
     </g>
    </g>
    <g id="xtick_7">
     <g id="line2d_13">
      <path d="M 412.610265 256.036395 
L 412.610265 7.2 
" clip-path="url(#pca48894d5e)" style="fill: none; stroke: #cccccc; stroke-width: 0.6; stroke-linecap: round"/>
     </g>
     <g id="line2d_14">
      <g>
       <use xlink:href="#m99a2e2aa74" x="412.610265" y="256.036395" style="fill: #262626; stroke: #262626; stroke-width: 0.6"/>
      </g>
     </g>
     <g id="text_7">
      <!-- 6.9 -->
      <g style="fill: #262626" transform="translate(403.06839 271.15452)scale(0.12 -0.12)">
       <defs>
        <path id="DejaVuSans-39" d="M 703 97 
L 703 672 
Q 941 559 1184 500 
Q 1428 441 1663 441 
Q 2288 441 2617 861 
Q 2947 1281 2994 2138 
Q 2813 1869 2534 1725 
Q 2256 1581 1919 1581 
Q 1219 1581 811 2004 
Q 403 2428 403 3163 
Q 403 3881 828 4315 
Q 1253 4750 1959 4750 
Q 2769 4750 3195 4129 
Q 3622 3509 3622 2328 
Q 3622 1225 3098 567 
Q 2575 -91 1691 -91 
Q 1453 -91 1209 -44 
Q 966 3 703 97 
z
M 1959 2075 
Q 2384 2075 2632 2365 
Q 2881 2656 2881 3163 
Q 2881 3666 2632 3958 
Q 2384 4250 1959 4250 
Q 1534 4250 1286 3958 
Q 1038 3666 1038 3163 
Q 1038 2656 1286 2365 
Q 1534 2075 1959 2075 
z
" transform="scale(0.015625)"/>
       </defs>
       <use xlink:href="#DejaVuSans-36"/>
       <use xlink:href="#DejaVuSans-2e" x="63.623047"/>
       <use xlink:href="#DejaVuSans-39" x="95.410156"/>
      </g>
     </g>
    </g>
    <g id="xtick_8">
     <g id="line2d_15">
      <path d="M 472.133955 256.036395 
L 472.133955 7.2 
" clip-path="url(#pca48894d5e)" style="fill: none; stroke: #cccccc; stroke-width: 0.6; stroke-linecap: round"/>
     </g>
     <g id="line2d_16">
      <g>
       <use xlink:href="#m99a2e2aa74" x="472.133955" y="256.036395" style="fill: #262626; stroke: #262626; stroke-width: 0.6"/>
      </g>
     </g>
     <g id="text_8">
      <!-- 4.4 -->
      <g style="fill: #262626" transform="translate(462.59208 271.15452)scale(0.12 -0.12)">
       <use xlink:href="#DejaVuSans-34"/>
       <use xlink:href="#DejaVuSans-2e" x="63.623047"/>
       <use xlink:href="#DejaVuSans-34" x="95.410156"/>
      </g>
     </g>
    </g>
    <g id="xtick_9">
     <g id="line2d_17">
      <path d="M 531.657645 256.036395 
L 531.657645 7.2 
" clip-path="url(#pca48894d5e)" style="fill: none; stroke: #cccccc; stroke-width: 0.6; stroke-linecap: round"/>
     </g>
     <g id="line2d_18">
      <g>
       <use xlink:href="#m99a2e2aa74" x="531.657645" y="256.036395" style="fill: #262626; stroke: #262626; stroke-width: 0.6"/>
      </g>
     </g>
     <g id="text_9">
      <!-- 2.8 -->
      <g style="fill: #262626" transform="translate(522.11577 271.15452)scale(0.12 -0.12)">
       <use xlink:href="#DejaVuSans-32"/>
       <use xlink:href="#DejaVuSans-2e" x="63.623047"/>
       <use xlink:href="#DejaVuSans-38" x="95.410156"/>
      </g>
     </g>
    </g>
    <g id="text_10">
     <!-- % Weights Remaining -->
     <g style="fill: #262626" transform="translate(217.259604 286.287957)scale(0.14 -0.14)">
      <defs>
       <path id="DejaVuSans-25" d="M 4653 2053 
Q 4381 2053 4226 1822 
Q 4072 1591 4072 1178 
Q 4072 772 4226 539 
Q 4381 306 4653 306 
Q 4919 306 5073 539 
Q 5228 772 5228 1178 
Q 5228 1588 5073 1820 
Q 4919 2053 4653 2053 
z
M 4653 2450 
Q 5147 2450 5437 2106 
Q 5728 1763 5728 1178 
Q 5728 594 5436 251 
Q 5144 -91 4653 -91 
Q 4153 -91 3862 251 
Q 3572 594 3572 1178 
Q 3572 1766 3864 2108 
Q 4156 2450 4653 2450 
z
M 1428 4353 
Q 1159 4353 1004 4120 
Q 850 3888 850 3481 
Q 850 3069 1003 2837 
Q 1156 2606 1428 2606 
Q 1700 2606 1854 2837 
Q 2009 3069 2009 3481 
Q 2009 3884 1853 4118 
Q 1697 4353 1428 4353 
z
M 4250 4750 
L 4750 4750 
L 1831 -91 
L 1331 -91 
L 4250 4750 
z
M 1428 4750 
Q 1922 4750 2215 4408 
Q 2509 4066 2509 3481 
Q 2509 2891 2217 2550 
Q 1925 2209 1428 2209 
Q 931 2209 642 2551 
Q 353 2894 353 3481 
Q 353 4063 643 4406 
Q 934 4750 1428 4750 
z
" transform="scale(0.015625)"/>
       <path id="DejaVuSans-20" transform="scale(0.015625)"/>
       <path id="DejaVuSans-57" d="M 213 4666 
L 850 4666 
L 1831 722 
L 2809 4666 
L 3519 4666 
L 4500 722 
L 5478 4666 
L 6119 4666 
L 4947 0 
L 4153 0 
L 3169 4050 
L 2175 0 
L 1381 0 
L 213 4666 
z
" transform="scale(0.015625)"/>
       <path id="DejaVuSans-65" d="M 3597 1894 
L 3597 1613 
L 953 1613 
Q 991 1019 1311 708 
Q 1631 397 2203 397 
Q 2534 397 2845 478 
Q 3156 559 3463 722 
L 3463 178 
Q 3153 47 2828 -22 
Q 2503 -91 2169 -91 
Q 1331 -91 842 396 
Q 353 884 353 1716 
Q 353 2575 817 3079 
Q 1281 3584 2069 3584 
Q 2775 3584 3186 3129 
Q 3597 2675 3597 1894 
z
M 3022 2063 
Q 3016 2534 2758 2815 
Q 2500 3097 2075 3097 
Q 1594 3097 1305 2825 
Q 1016 2553 972 2059 
L 3022 2063 
z
" transform="scale(0.015625)"/>
       <path id="DejaVuSans-69" d="M 603 3500 
L 1178 3500 
L 1178 0 
L 603 0 
L 603 3500 
z
M 603 4863 
L 1178 4863 
L 1178 4134 
L 603 4134 
L 603 4863 
z
" transform="scale(0.015625)"/>
       <path id="DejaVuSans-67" d="M 2906 1791 
Q 2906 2416 2648 2759 
Q 2391 3103 1925 3103 
Q 1463 3103 1205 2759 
Q 947 2416 947 1791 
Q 947 1169 1205 825 
Q 1463 481 1925 481 
Q 2391 481 2648 825 
Q 2906 1169 2906 1791 
z
M 3481 434 
Q 3481 -459 3084 -895 
Q 2688 -1331 1869 -1331 
Q 1566 -1331 1297 -1286 
Q 1028 -1241 775 -1147 
L 775 -588 
Q 1028 -725 1275 -790 
Q 1522 -856 1778 -856 
Q 2344 -856 2625 -561 
Q 2906 -266 2906 331 
L 2906 616 
Q 2728 306 2450 153 
Q 2172 0 1784 0 
Q 1141 0 747 490 
Q 353 981 353 1791 
Q 353 2603 747 3093 
Q 1141 3584 1784 3584 
Q 2172 3584 2450 3431 
Q 2728 3278 2906 2969 
L 2906 3500 
L 3481 3500 
L 3481 434 
z
" transform="scale(0.015625)"/>
       <path id="DejaVuSans-68" d="M 3513 2113 
L 3513 0 
L 2938 0 
L 2938 2094 
Q 2938 2591 2744 2837 
Q 2550 3084 2163 3084 
Q 1697 3084 1428 2787 
Q 1159 2491 1159 1978 
L 1159 0 
L 581 0 
L 581 4863 
L 1159 4863 
L 1159 2956 
Q 1366 3272 1645 3428 
Q 1925 3584 2291 3584 
Q 2894 3584 3203 3211 
Q 3513 2838 3513 2113 
z
" transform="scale(0.015625)"/>
       <path id="DejaVuSans-74" d="M 1172 4494 
L 1172 3500 
L 2356 3500 
L 2356 3053 
L 1172 3053 
L 1172 1153 
Q 1172 725 1289 603 
Q 1406 481 1766 481 
L 2356 481 
L 2356 0 
L 1766 0 
Q 1100 0 847 248 
Q 594 497 594 1153 
L 594 3053 
L 172 3053 
L 172 3500 
L 594 3500 
L 594 4494 
L 1172 4494 
z
" transform="scale(0.015625)"/>
       <path id="DejaVuSans-73" d="M 2834 3397 
L 2834 2853 
Q 2591 2978 2328 3040 
Q 2066 3103 1784 3103 
Q 1356 3103 1142 2972 
Q 928 2841 928 2578 
Q 928 2378 1081 2264 
Q 1234 2150 1697 2047 
L 1894 2003 
Q 2506 1872 2764 1633 
Q 3022 1394 3022 966 
Q 3022 478 2636 193 
Q 2250 -91 1575 -91 
Q 1294 -91 989 -36 
Q 684 19 347 128 
L 347 722 
Q 666 556 975 473 
Q 1284 391 1588 391 
Q 1994 391 2212 530 
Q 2431 669 2431 922 
Q 2431 1156 2273 1281 
Q 2116 1406 1581 1522 
L 1381 1569 
Q 847 1681 609 1914 
Q 372 2147 372 2553 
Q 372 3047 722 3315 
Q 1072 3584 1716 3584 
Q 2034 3584 2315 3537 
Q 2597 3491 2834 3397 
z
" transform="scale(0.015625)"/>
       <path id="DejaVuSans-52" d="M 2841 2188 
Q 3044 2119 3236 1894 
Q 3428 1669 3622 1275 
L 4263 0 
L 3584 0 
L 2988 1197 
Q 2756 1666 2539 1819 
Q 2322 1972 1947 1972 
L 1259 1972 
L 1259 0 
L 628 0 
L 628 4666 
L 2053 4666 
Q 2853 4666 3247 4331 
Q 3641 3997 3641 3322 
Q 3641 2881 3436 2590 
Q 3231 2300 2841 2188 
z
M 1259 4147 
L 1259 2491 
L 2053 2491 
Q 2509 2491 2742 2702 
Q 2975 2913 2975 3322 
Q 2975 3731 2742 3939 
Q 2509 4147 2053 4147 
L 1259 4147 
z
" transform="scale(0.015625)"/>
       <path id="DejaVuSans-6d" d="M 3328 2828 
Q 3544 3216 3844 3400 
Q 4144 3584 4550 3584 
Q 5097 3584 5394 3201 
Q 5691 2819 5691 2113 
L 5691 0 
L 5113 0 
L 5113 2094 
Q 5113 2597 4934 2840 
Q 4756 3084 4391 3084 
Q 3944 3084 3684 2787 
Q 3425 2491 3425 1978 
L 3425 0 
L 2847 0 
L 2847 2094 
Q 2847 2600 2669 2842 
Q 2491 3084 2119 3084 
Q 1678 3084 1418 2786 
Q 1159 2488 1159 1978 
L 1159 0 
L 581 0 
L 581 3500 
L 1159 3500 
L 1159 2956 
Q 1356 3278 1631 3431 
Q 1906 3584 2284 3584 
Q 2666 3584 2933 3390 
Q 3200 3197 3328 2828 
z
" transform="scale(0.015625)"/>
       <path id="DejaVuSans-61" d="M 2194 1759 
Q 1497 1759 1228 1600 
Q 959 1441 959 1056 
Q 959 750 1161 570 
Q 1363 391 1709 391 
Q 2188 391 2477 730 
Q 2766 1069 2766 1631 
L 2766 1759 
L 2194 1759 
z
M 3341 1997 
L 3341 0 
L 2766 0 
L 2766 531 
Q 2569 213 2275 61 
Q 1981 -91 1556 -91 
Q 1019 -91 701 211 
Q 384 513 384 1019 
Q 384 1609 779 1909 
Q 1175 2209 1959 2209 
L 2766 2209 
L 2766 2266 
Q 2766 2663 2505 2880 
Q 2244 3097 1772 3097 
Q 1472 3097 1187 3025 
Q 903 2953 641 2809 
L 641 3341 
Q 956 3463 1253 3523 
Q 1550 3584 1831 3584 
Q 2591 3584 2966 3190 
Q 3341 2797 3341 1997 
z
" transform="scale(0.015625)"/>
       <path id="DejaVuSans-6e" d="M 3513 2113 
L 3513 0 
L 2938 0 
L 2938 2094 
Q 2938 2591 2744 2837 
Q 2550 3084 2163 3084 
Q 1697 3084 1428 2787 
Q 1159 2491 1159 1978 
L 1159 0 
L 581 0 
L 581 3500 
L 1159 3500 
L 1159 2956 
Q 1366 3272 1645 3428 
Q 1925 3584 2291 3584 
Q 2894 3584 3203 3211 
Q 3513 2838 3513 2113 
z
" transform="scale(0.015625)"/>
      </defs>
      <use xlink:href="#DejaVuSans-25"/>
      <use xlink:href="#DejaVuSans-20" x="95.019531"/>
      <use xlink:href="#DejaVuSans-57" x="126.806641"/>
      <use xlink:href="#DejaVuSans-65" x="219.808594"/>
      <use xlink:href="#DejaVuSans-69" x="281.332031"/>
      <use xlink:href="#DejaVuSans-67" x="309.115234"/>
      <use xlink:href="#DejaVuSans-68" x="372.591797"/>
      <use xlink:href="#DejaVuSans-74" x="435.970703"/>
      <use xlink:href="#DejaVuSans-73" x="475.179688"/>
      <use xlink:href="#DejaVuSans-20" x="527.279297"/>
      <use xlink:href="#DejaVuSans-52" x="559.066406"/>
      <use xlink:href="#DejaVuSans-65" x="624.048828"/>
      <use xlink:href="#DejaVuSans-6d" x="685.572266"/>
      <use xlink:href="#DejaVuSans-61" x="782.984375"/>
      <use xlink:href="#DejaVuSans-69" x="844.263672"/>
      <use xlink:href="#DejaVuSans-6e" x="872.046875"/>
      <use xlink:href="#DejaVuSans-69" x="935.425781"/>
      <use xlink:href="#DejaVuSans-6e" x="963.208984"/>
      <use xlink:href="#DejaVuSans-67" x="1026.587891"/>
     </g>
    </g>
   </g>
   <g id="matplotlib.axis_2">
    <g id="ytick_1">
     <g id="line2d_19">
      <path d="M 55.468125 235.300029 
L 531.657645 235.300029 
" clip-path="url(#pca48894d5e)" style="fill: none; stroke: #cccccc; stroke-width: 0.6; stroke-linecap: round"/>
     </g>
     <g id="line2d_20">
      <defs>
       <path id="me87a88bf0f" d="M 0 0 
L -4 0 
" style="stroke: #262626; stroke-width: 0.6"/>
      </defs>
      <g>
       <use xlink:href="#me87a88bf0f" x="55.468125" y="235.300029" style="fill: #262626; stroke: #262626; stroke-width: 0.6"/>
      </g>
     </g>
     <g id="text_11">
      <!-- 0.58 -->
      <g style="fill: #262626" transform="translate(22.749375 239.859091)scale(0.12 -0.12)">
       <defs>
        <path id="DejaVuSans-35" d="M 691 4666 
L 3169 4666 
L 3169 4134 
L 1269 4134 
L 1269 2991 
Q 1406 3038 1543 3061 
Q 1681 3084 1819 3084 
Q 2600 3084 3056 2656 
Q 3513 2228 3513 1497 
Q 3513 744 3044 326 
Q 2575 -91 1722 -91 
Q 1428 -91 1123 -41 
Q 819 9 494 109 
L 494 744 
Q 775 591 1075 516 
Q 1375 441 1709 441 
Q 2250 441 2565 725 
Q 2881 1009 2881 1497 
Q 2881 1984 2565 2268 
Q 2250 2553 1709 2553 
Q 1456 2553 1204 2497 
Q 953 2441 691 2322 
L 691 4666 
z
" transform="scale(0.015625)"/>
       </defs>
       <use xlink:href="#DejaVuSans-30"/>
       <use xlink:href="#DejaVuSans-2e" x="63.623047"/>
       <use xlink:href="#DejaVuSans-35" x="95.410156"/>
       <use xlink:href="#DejaVuSans-38" x="159.033203"/>
      </g>
     </g>
    </g>
    <g id="ytick_2">
     <g id="line2d_21">
      <path d="M 55.468125 193.827296 
L 531.657645 193.827296 
" clip-path="url(#pca48894d5e)" style="fill: none; stroke: #cccccc; stroke-width: 0.6; stroke-linecap: round"/>
     </g>
     <g id="line2d_22">
      <g>
       <use xlink:href="#me87a88bf0f" x="55.468125" y="193.827296" style="fill: #262626; stroke: #262626; stroke-width: 0.6"/>
      </g>
     </g>
     <g id="text_12">
      <!-- 0.60 -->
      <g style="fill: #262626" transform="translate(22.749375 198.386359)scale(0.12 -0.12)">
       <use xlink:href="#DejaVuSans-30"/>
       <use xlink:href="#DejaVuSans-2e" x="63.623047"/>
       <use xlink:href="#DejaVuSans-36" x="95.410156"/>
       <use xlink:href="#DejaVuSans-30" x="159.033203"/>
      </g>
     </g>
    </g>
    <g id="ytick_3">
     <g id="line2d_23">
      <path d="M 55.468125 152.354564 
L 531.657645 152.354564 
" clip-path="url(#pca48894d5e)" style="fill: none; stroke: #cccccc; stroke-width: 0.6; stroke-linecap: round"/>
     </g>
     <g id="line2d_24">
      <g>
       <use xlink:href="#me87a88bf0f" x="55.468125" y="152.354564" style="fill: #262626; stroke: #262626; stroke-width: 0.6"/>
      </g>
     </g>
     <g id="text_13">
      <!-- 0.62 -->
      <g style="fill: #262626" transform="translate(22.749375 156.913626)scale(0.12 -0.12)">
       <use xlink:href="#DejaVuSans-30"/>
       <use xlink:href="#DejaVuSans-2e" x="63.623047"/>
       <use xlink:href="#DejaVuSans-36" x="95.410156"/>
       <use xlink:href="#DejaVuSans-32" x="159.033203"/>
      </g>
     </g>
    </g>
    <g id="ytick_4">
     <g id="line2d_25">
      <path d="M 55.468125 110.881831 
L 531.657645 110.881831 
" clip-path="url(#pca48894d5e)" style="fill: none; stroke: #cccccc; stroke-width: 0.6; stroke-linecap: round"/>
     </g>
     <g id="line2d_26">
      <g>
       <use xlink:href="#me87a88bf0f" x="55.468125" y="110.881831" style="fill: #262626; stroke: #262626; stroke-width: 0.6"/>
      </g>
     </g>
     <g id="text_14">
      <!-- 0.64 -->
      <g style="fill: #262626" transform="translate(22.749375 115.440894)scale(0.12 -0.12)">
       <use xlink:href="#DejaVuSans-30"/>
       <use xlink:href="#DejaVuSans-2e" x="63.623047"/>
       <use xlink:href="#DejaVuSans-36" x="95.410156"/>
       <use xlink:href="#DejaVuSans-34" x="159.033203"/>
      </g>
     </g>
    </g>
    <g id="ytick_5">
     <g id="line2d_27">
      <path d="M 55.468125 69.409099 
L 531.657645 69.409099 
" clip-path="url(#pca48894d5e)" style="fill: none; stroke: #cccccc; stroke-width: 0.6; stroke-linecap: round"/>
     </g>
     <g id="line2d_28">
      <g>
       <use xlink:href="#me87a88bf0f" x="55.468125" y="69.409099" style="fill: #262626; stroke: #262626; stroke-width: 0.6"/>
      </g>
     </g>
     <g id="text_15">
      <!-- 0.66 -->
      <g style="fill: #262626" transform="translate(22.749375 73.968161)scale(0.12 -0.12)">
       <use xlink:href="#DejaVuSans-30"/>
       <use xlink:href="#DejaVuSans-2e" x="63.623047"/>
       <use xlink:href="#DejaVuSans-36" x="95.410156"/>
       <use xlink:href="#DejaVuSans-36" x="159.033203"/>
      </g>
     </g>
    </g>
    <g id="ytick_6">
     <g id="line2d_29">
      <path d="M 55.468125 27.936366 
L 531.657645 27.936366 
" clip-path="url(#pca48894d5e)" style="fill: none; stroke: #cccccc; stroke-width: 0.6; stroke-linecap: round"/>
     </g>
     <g id="line2d_30">
      <g>
       <use xlink:href="#me87a88bf0f" x="55.468125" y="27.936366" style="fill: #262626; stroke: #262626; stroke-width: 0.6"/>
      </g>
     </g>
     <g id="text_16">
      <!-- 0.68 -->
      <g style="fill: #262626" transform="translate(22.749375 32.495429)scale(0.12 -0.12)">
       <use xlink:href="#DejaVuSans-30"/>
       <use xlink:href="#DejaVuSans-2e" x="63.623047"/>
       <use xlink:href="#DejaVuSans-36" x="95.410156"/>
       <use xlink:href="#DejaVuSans-38" x="159.033203"/>
      </g>
     </g>
    </g>
    <g id="text_17">
     <!-- Final Test Accuracy -->
     <g style="fill: #262626" transform="translate(17.837813 197.944291)rotate(-90)scale(0.14 -0.14)">
      <defs>
       <path id="DejaVuSans-46" d="M 628 4666 
L 3309 4666 
L 3309 4134 
L 1259 4134 
L 1259 2759 
L 3109 2759 
L 3109 2228 
L 1259 2228 
L 1259 0 
L 628 0 
L 628 4666 
z
" transform="scale(0.015625)"/>
       <path id="DejaVuSans-6c" d="M 603 4863 
L 1178 4863 
L 1178 0 
L 603 0 
L 603 4863 
z
" transform="scale(0.015625)"/>
       <path id="DejaVuSans-54" d="M -19 4666 
L 3928 4666 
L 3928 4134 
L 2272 4134 
L 2272 0 
L 1638 0 
L 1638 4134 
L -19 4134 
L -19 4666 
z
" transform="scale(0.015625)"/>
       <path id="DejaVuSans-41" d="M 2188 4044 
L 1331 1722 
L 3047 1722 
L 2188 4044 
z
M 1831 4666 
L 2547 4666 
L 4325 0 
L 3669 0 
L 3244 1197 
L 1141 1197 
L 716 0 
L 50 0 
L 1831 4666 
z
" transform="scale(0.015625)"/>
       <path id="DejaVuSans-63" d="M 3122 3366 
L 3122 2828 
Q 2878 2963 2633 3030 
Q 2388 3097 2138 3097 
Q 1578 3097 1268 2742 
Q 959 2388 959 1747 
Q 959 1106 1268 751 
Q 1578 397 2138 397 
Q 2388 397 2633 464 
Q 2878 531 3122 666 
L 3122 134 
Q 2881 22 2623 -34 
Q 2366 -91 2075 -91 
Q 1284 -91 818 406 
Q 353 903 353 1747 
Q 353 2603 823 3093 
Q 1294 3584 2113 3584 
Q 2378 3584 2631 3529 
Q 2884 3475 3122 3366 
z
" transform="scale(0.015625)"/>
       <path id="DejaVuSans-75" d="M 544 1381 
L 544 3500 
L 1119 3500 
L 1119 1403 
Q 1119 906 1312 657 
Q 1506 409 1894 409 
Q 2359 409 2629 706 
Q 2900 1003 2900 1516 
L 2900 3500 
L 3475 3500 
L 3475 0 
L 2900 0 
L 2900 538 
Q 2691 219 2414 64 
Q 2138 -91 1772 -91 
Q 1169 -91 856 284 
Q 544 659 544 1381 
z
M 1991 3584 
L 1991 3584 
z
" transform="scale(0.015625)"/>
       <path id="DejaVuSans-72" d="M 2631 2963 
Q 2534 3019 2420 3045 
Q 2306 3072 2169 3072 
Q 1681 3072 1420 2755 
Q 1159 2438 1159 1844 
L 1159 0 
L 581 0 
L 581 3500 
L 1159 3500 
L 1159 2956 
Q 1341 3275 1631 3429 
Q 1922 3584 2338 3584 
Q 2397 3584 2469 3576 
Q 2541 3569 2628 3553 
L 2631 2963 
z
" transform="scale(0.015625)"/>
       <path id="DejaVuSans-79" d="M 2059 -325 
Q 1816 -950 1584 -1140 
Q 1353 -1331 966 -1331 
L 506 -1331 
L 506 -850 
L 844 -850 
Q 1081 -850 1212 -737 
Q 1344 -625 1503 -206 
L 1606 56 
L 191 3500 
L 800 3500 
L 1894 763 
L 2988 3500 
L 3597 3500 
L 2059 -325 
z
" transform="scale(0.015625)"/>
      </defs>
      <use xlink:href="#DejaVuSans-46"/>
      <use xlink:href="#DejaVuSans-69" x="50.269531"/>
      <use xlink:href="#DejaVuSans-6e" x="78.052734"/>
      <use xlink:href="#DejaVuSans-61" x="141.431641"/>
      <use xlink:href="#DejaVuSans-6c" x="202.710938"/>
      <use xlink:href="#DejaVuSans-20" x="230.494141"/>
      <use xlink:href="#DejaVuSans-54" x="262.28125"/>
      <use xlink:href="#DejaVuSans-65" x="306.365234"/>
      <use xlink:href="#DejaVuSans-73" x="367.888672"/>
      <use xlink:href="#DejaVuSans-74" x="419.988281"/>
      <use xlink:href="#DejaVuSans-20" x="459.197266"/>
      <use xlink:href="#DejaVuSans-41" x="490.984375"/>
      <use xlink:href="#DejaVuSans-63" x="557.642578"/>
      <use xlink:href="#DejaVuSans-63" x="612.623047"/>
      <use xlink:href="#DejaVuSans-75" x="667.603516"/>
      <use xlink:href="#DejaVuSans-72" x="730.982422"/>
      <use xlink:href="#DejaVuSans-61" x="772.095703"/>
      <use xlink:href="#DejaVuSans-63" x="833.375"/>
      <use xlink:href="#DejaVuSans-79" x="888.355469"/>
     </g>
    </g>
   </g>
   <g id="PolyCollection_1">
    <path d="M 55.468125 36.52359 
L 55.468125 23.081689 
L 650.705025 23.081689 
L 650.705025 36.52359 
L 650.705025 36.52359 
L 55.468125 36.52359 
z
" clip-path="url(#pca48894d5e)" style="fill: #949494; fill-opacity: 0.2"/>
   </g>
   <g id="PolyCollection_2">
    <path d="M 55.468125 36.52359 
L 55.468125 23.081689 
L 85.22997 19.412527 
L 114.991815 14.73182 
L 144.75366 16.234477 
L 174.515505 18.467866 
L 204.27735 23.845179 
L 234.039195 17.015083 
L 263.80104 18.009062 
L 293.562885 22.618931 
L 323.32473 33.137441 
L 353.086575 44.447436 
L 382.84842 59.067624 
L 412.610265 88.065611 
L 442.37211 105.867399 
L 472.133955 148.625939 
L 501.8958 199.097699 
L 531.657645 269.965942 
L 561.41949 334.062365 
L 591.181335 388.993729 
L 620.94318 473.653387 
L 650.705025 557.502401 
L 650.705025 624.666064 
L 650.705025 624.666064 
L 620.94318 532.359647 
L 591.181335 450.609966 
L 561.41949 396.364362 
L 531.657645 328.162768 
L 501.8958 235.3174 
L 472.133955 185.63251 
L 442.37211 135.699493 
L 412.610265 98.446229 
L 382.84842 87.215666 
L 353.086575 62.436757 
L 323.32473 44.19743 
L 293.562885 39.682075 
L 263.80104 32.575898 
L 234.039195 35.332467 
L 204.27735 29.53919 
L 174.515505 30.872911 
L 144.75366 26.470663 
L 114.991815 32.950048 
L 85.22997 37.082296 
L 55.468125 36.52359 
z
" clip-path="url(#pca48894d5e)" style="fill: #0173b2; fill-opacity: 0.2"/>
   </g>
   <g id="PolyCollection_3">
    <path d="M 55.468125 32.809738 
L 55.468125 16.323675 
L 85.22997 22.94402 
L 114.991815 31.159019 
L 144.75366 31.450481 
L 174.515505 33.135433 
L 204.27735 40.041036 
L 234.039195 48.504558 
L 263.80104 64.431091 
L 293.562885 64.857217 
L 323.32473 87.518719 
L 353.086575 101.998425 
L 382.84842 123.311083 
L 412.610265 148.743963 
L 442.37211 172.895026 
L 472.133955 215.540263 
L 501.8958 268.224403 
L 531.657645 324.709456 
L 561.41949 368.636294 
L 591.181335 436.614003 
L 620.94318 506.23659 
L 650.705025 589.519305 
L 650.705025 611.415572 
L 650.705025 611.415572 
L 620.94318 516.676583 
L 591.181335 467.583473 
L 561.41949 398.701165 
L 531.657645 351.180627 
L 501.8958 296.622439 
L 472.133955 239.611201 
L 442.37211 210.404929 
L 412.610265 167.266484 
L 382.84842 140.858448 
L 353.086575 122.668329 
L 323.32473 104.59194 
L 293.562885 90.342709 
L 263.80104 81.230107 
L 234.039195 53.402907 
L 204.27735 50.979838 
L 174.515505 48.554075 
L 144.75366 43.60339 
L 114.991815 45.035352 
L 85.22997 27.433575 
L 55.468125 32.809738 
z
" clip-path="url(#pca48894d5e)" style="fill: #de8f05; fill-opacity: 0.2"/>
   </g>
   <g id="PolyCollection_4">
    <path d="M 55.468125 33.473139 
L 55.468125 11.098274 
L 85.22997 29.26403 
L 114.991815 23.272321 
L 144.75366 36.889399 
L 174.515505 55.549702 
L 204.27735 75.184667 
L 234.039195 80.189936 
L 263.80104 97.514175 
L 293.562885 122.965019 
L 323.32473 142.116962 
L 353.086575 160.391822 
L 382.84842 210.158043 
L 412.610265 247.6079 
L 442.37211 294.473694 
L 472.133955 321.906392 
L 501.8958 380.722442 
L 531.657645 441.829253 
L 561.41949 486.355076 
L 591.181335 561.147625 
L 620.94318 629.32046 
L 650.705025 732.808698 
L 650.705025 777.512764 
L 650.705025 777.512764 
L 620.94318 664.305974 
L 591.181335 572.186698 
L 561.41949 512.711275 
L 531.657645 463.405041 
L 501.8958 395.946381 
L 472.133955 348.384872 
L 442.37211 308.94279 
L 412.610265 264.153844 
L 382.84842 225.812283 
L 353.086575 184.234811 
L 323.32473 159.274347 
L 293.562885 136.227785 
L 263.80104 111.496622 
L 234.039195 100.930449 
L 204.27735 85.925124 
L 174.515505 65.642584 
L 144.75366 49.258428 
L 114.991815 42.968595 
L 85.22997 34.073794 
L 55.468125 33.473139 
z
" clip-path="url(#pca48894d5e)" style="fill: #ece133; fill-opacity: 0.2"/>
   </g>
   <g id="PolyCollection_5">
    <path d="M 55.468125 43.205965 
L 55.468125 41.282953 
L 85.22997 32.807696 
L 114.991815 28.255698 
L 144.75366 22.401886 
L 174.515505 22.943372 
L 204.27735 23.489673 
L 234.039195 29.867641 
L 263.80104 31.589415 
L 293.562885 46.194789 
L 323.32473 51.997597 
L 353.086575 65.63272 
L 382.84842 74.27609 
L 412.610265 88.749937 
L 442.37211 125.249436 
L 472.133955 156.340549 
L 501.8958 222.235731 
L 531.657645 267.685806 
L 561.41949 359.232877 
L 591.181335 434.897924 
L 620.94318 512.572772 
L 650.705025 565.687857 
L 650.705025 630.581337 
L 650.705025 630.581337 
L 620.94318 553.160997 
L 591.181335 484.126053 
L 561.41949 402.609445 
L 531.657645 348.89827 
L 501.8958 277.809966 
L 472.133955 211.821859 
L 442.37211 173.238782 
L 412.610265 107.404313 
L 382.84842 82.271701 
L 353.086575 74.014932 
L 323.32473 60.381733 
L 293.562885 48.247585 
L 263.80104 48.233821 
L 234.039195 37.410093 
L 204.27735 30.413105 
L 174.515505 44.438044 
L 144.75366 42.387484 
L 114.991815 45.761355 
L 85.22997 48.467085 
L 55.468125 43.205965 
z
" clip-path="url(#pca48894d5e)" style="fill: #d55e00; fill-opacity: 0.2"/>
   </g>
   <g id="PolyCollection_6">
    <path d="M 55.468125 38.382258 
L 55.468125 25.577657 
L 85.22997 24.721815 
L 114.991815 35.752506 
L 144.75366 30.651472 
L 174.515505 42.342856 
L 204.27735 48.120672 
L 234.039195 49.266822 
L 263.80104 58.690832 
L 293.562885 71.14483 
L 323.32473 80.999982 
L 353.086575 91.855769 
L 382.84842 110.581568 
L 412.610265 134.422254 
L 442.37211 177.20676 
L 472.133955 232.43819 
L 501.8958 253.126195 
L 531.657645 324.263753 
L 561.41949 408.96321 
L 591.181335 466.131286 
L 620.94318 512.221787 
L 650.705025 579.898395 
L 650.705025 628.397892 
L 650.705025 628.397892 
L 620.94318 561.599164 
L 591.181335 488.351878 
L 561.41949 417.265529 
L 531.657645 383.560334 
L 501.8958 320.429921 
L 472.133955 263.667598 
L 442.37211 244.248109 
L 412.610265 193.407922 
L 382.84842 167.896056 
L 353.086575 134.055166 
L 323.32473 115.050586 
L 293.562885 96.185871 
L 263.80104 83.23782 
L 234.039195 59.276281 
L 204.27735 61.251885 
L 174.515505 47.433835 
L 144.75366 46.16499 
L 114.991815 41.893412 
L 85.22997 37.682873 
L 55.468125 38.382258 
z
" clip-path="url(#pca48894d5e)" style="fill: #029e73; fill-opacity: 0.1"/>
   </g>
   <g id="PolyCollection_7">
    <path d="M 55.468125 30.447334 
L 55.468125 23.76649 
L 85.22997 24.482749 
L 114.991815 28.604167 
L 144.75366 42.746495 
L 174.515505 38.24909 
L 204.27735 56.949042 
L 234.039195 66.886115 
L 263.80104 76.718265 
L 293.562885 86.354695 
L 323.32473 109.688889 
L 353.086575 142.090624 
L 382.84842 153.892652 
L 412.610265 198.222405 
L 442.37211 238.788177 
L 472.133955 268.400413 
L 501.8958 339.079567 
L 531.657645 367.822342 
L 561.41949 432.549529 
L 591.181335 483.824934 
L 620.94318 545.807076 
L 650.705025 619.709226 
L 650.705025 732.290079 
L 650.705025 732.290079 
L 620.94318 617.180251 
L 591.181335 544.27233 
L 561.41949 498.397859 
L 531.657645 418.592573 
L 501.8958 372.373384 
L 472.133955 318.841704 
L 442.37211 270.174159 
L 412.610265 240.54733 
L 382.84842 206.908346 
L 353.086575 170.809368 
L 323.32473 141.002004 
L 293.562885 114.56892 
L 263.80104 96.729664 
L 234.039195 77.012492 
L 204.27735 67.872108 
L 174.515505 61.273694 
L 144.75366 50.970105 
L 114.991815 42.198749 
L 85.22997 44.76494 
L 55.468125 30.447334 
z
" clip-path="url(#pca48894d5e)" style="fill: #cc78bc; fill-opacity: 0.2"/>
   </g>
   <g id="line2d_31">
    <path d="M 55.468125 29.802639 
L 531.657645 29.802639 
" clip-path="url(#pca48894d5e)" style="fill: none; stroke-dasharray: 12.8,3.2,2,3.2; stroke-dashoffset: 0; stroke: #949494; stroke-opacity: 0.8; stroke-width: 2"/>
   </g>
   <g id="line2d_32">
    <path d="M 55.468125 29.802639 
L 85.22997 28.247412 
L 114.991815 23.840934 
L 144.75366 21.35257 
L 174.515505 24.670389 
L 204.27735 26.692184 
L 234.039195 26.173775 
L 263.80104 25.29248 
L 293.562885 31.150503 
L 323.32473 38.667436 
L 353.086575 53.442097 
L 382.84842 73.141645 
L 412.610265 93.25592 
L 442.37211 120.783446 
L 472.133955 167.129225 
L 501.8958 217.207549 
L 531.052337 297.39952 
" clip-path="url(#pca48894d5e)" style="fill: none; stroke-dasharray: 7.4,3.2; stroke-dashoffset: 0; stroke: #0173b2; stroke-opacity: 0.8; stroke-width: 2"/>
   </g>
   <g id="line2d_33">
    <path d="M 55.468125 24.566707 
L 85.22997 25.188798 
L 114.991815 38.097186 
L 144.75366 37.526936 
L 174.515505 40.844754 
L 204.27735 45.510437 
L 234.039195 50.953733 
L 263.80104 72.830599 
L 293.562885 77.599963 
L 323.32473 96.055329 
L 353.086575 112.333377 
L 382.84842 132.084766 
L 412.610265 158.005224 
L 442.37211 191.649978 
L 472.133955 227.575732 
L 501.8958 282.423421 
L 509.923598 297.39952 
" clip-path="url(#pca48894d5e)" style="fill: none; stroke-dasharray: 7.4,3.2; stroke-dashoffset: 0; stroke: #de8f05; stroke-opacity: 0.8; stroke-width: 2"/>
   </g>
   <g id="line2d_34">
    <path d="M 55.468125 22.285706 
L 85.22997 31.668912 
L 114.991815 33.120458 
L 144.75366 43.073914 
L 174.515505 60.596143 
L 204.27735 80.554896 
L 234.039195 90.560192 
L 263.80104 104.505399 
L 293.562885 129.596402 
L 323.32473 150.695654 
L 353.086575 172.313316 
L 382.84842 217.985163 
L 412.610265 255.880872 
L 439.57388 297.39952 
" clip-path="url(#pca48894d5e)" style="fill: none; stroke-dasharray: 7.4,3.2; stroke-dashoffset: 0; stroke: #ece133; stroke-opacity: 0.8; stroke-width: 2"/>
   </g>
   <g id="line2d_35">
    <path d="M 55.468125 42.244459 
L 85.22997 40.637391 
L 114.991815 37.008526 
L 144.75366 32.394685 
L 174.515505 33.690708 
L 204.27735 26.951389 
L 234.039195 33.638867 
L 263.80104 39.911618 
L 293.562885 47.221187 
L 323.32473 56.189665 
L 353.086575 69.823826 
L 382.84842 78.273895 
L 412.610265 98.077125 
L 442.37211 149.244109 
L 472.133955 184.081204 
L 501.8958 250.022849 
L 526.094131 297.39952 
" clip-path="url(#pca48894d5e)" style="fill: none; stroke: #d55e00; stroke-opacity: 0.8; stroke-width: 2; stroke-linecap: round"/>
    <defs>
     <path id="md06bfd8a81" d="M 0 -3 
L -3 3 
L 3 3 
z
" style="stroke: #d55e00; stroke-opacity: 0.8; stroke-linejoin: miter"/>
    </defs>
    <g clip-path="url(#pca48894d5e)">
     <use xlink:href="#md06bfd8a81" x="55.468125" y="42.244459" style="fill: #d55e00; fill-opacity: 0.8; stroke: #d55e00; stroke-opacity: 0.8; stroke-linejoin: miter"/>
     <use xlink:href="#md06bfd8a81" x="85.22997" y="40.637391" style="fill: #d55e00; fill-opacity: 0.8; stroke: #d55e00; stroke-opacity: 0.8; stroke-linejoin: miter"/>
     <use xlink:href="#md06bfd8a81" x="114.991815" y="37.008526" style="fill: #d55e00; fill-opacity: 0.8; stroke: #d55e00; stroke-opacity: 0.8; stroke-linejoin: miter"/>
     <use xlink:href="#md06bfd8a81" x="144.75366" y="32.394685" style="fill: #d55e00; fill-opacity: 0.8; stroke: #d55e00; stroke-opacity: 0.8; stroke-linejoin: miter"/>
     <use xlink:href="#md06bfd8a81" x="174.515505" y="33.690708" style="fill: #d55e00; fill-opacity: 0.8; stroke: #d55e00; stroke-opacity: 0.8; stroke-linejoin: miter"/>
     <use xlink:href="#md06bfd8a81" x="204.27735" y="26.951389" style="fill: #d55e00; fill-opacity: 0.8; stroke: #d55e00; stroke-opacity: 0.8; stroke-linejoin: miter"/>
     <use xlink:href="#md06bfd8a81" x="234.039195" y="33.638867" style="fill: #d55e00; fill-opacity: 0.8; stroke: #d55e00; stroke-opacity: 0.8; stroke-linejoin: miter"/>
     <use xlink:href="#md06bfd8a81" x="263.80104" y="39.911618" style="fill: #d55e00; fill-opacity: 0.8; stroke: #d55e00; stroke-opacity: 0.8; stroke-linejoin: miter"/>
     <use xlink:href="#md06bfd8a81" x="293.562885" y="47.221187" style="fill: #d55e00; fill-opacity: 0.8; stroke: #d55e00; stroke-opacity: 0.8; stroke-linejoin: miter"/>
     <use xlink:href="#md06bfd8a81" x="323.32473" y="56.189665" style="fill: #d55e00; fill-opacity: 0.8; stroke: #d55e00; stroke-opacity: 0.8; stroke-linejoin: miter"/>
     <use xlink:href="#md06bfd8a81" x="353.086575" y="69.823826" style="fill: #d55e00; fill-opacity: 0.8; stroke: #d55e00; stroke-opacity: 0.8; stroke-linejoin: miter"/>
     <use xlink:href="#md06bfd8a81" x="382.84842" y="78.273895" style="fill: #d55e00; fill-opacity: 0.8; stroke: #d55e00; stroke-opacity: 0.8; stroke-linejoin: miter"/>
     <use xlink:href="#md06bfd8a81" x="412.610265" y="98.077125" style="fill: #d55e00; fill-opacity: 0.8; stroke: #d55e00; stroke-opacity: 0.8; stroke-linejoin: miter"/>
     <use xlink:href="#md06bfd8a81" x="442.37211" y="149.244109" style="fill: #d55e00; fill-opacity: 0.8; stroke: #d55e00; stroke-opacity: 0.8; stroke-linejoin: miter"/>
     <use xlink:href="#md06bfd8a81" x="472.133955" y="184.081204" style="fill: #d55e00; fill-opacity: 0.8; stroke: #d55e00; stroke-opacity: 0.8; stroke-linejoin: miter"/>
     <use xlink:href="#md06bfd8a81" x="501.8958" y="250.022849" style="fill: #d55e00; fill-opacity: 0.8; stroke: #d55e00; stroke-opacity: 0.8; stroke-linejoin: miter"/>
     <use xlink:href="#md06bfd8a81" x="531.657645" y="308.292038" style="fill: #d55e00; fill-opacity: 0.8; stroke: #d55e00; stroke-opacity: 0.8; stroke-linejoin: miter"/>
     <use xlink:href="#md06bfd8a81" x="561.41949" y="380.921161" style="fill: #d55e00; fill-opacity: 0.8; stroke: #d55e00; stroke-opacity: 0.8; stroke-linejoin: miter"/>
     <use xlink:href="#md06bfd8a81" x="591.181335" y="459.511989" style="fill: #d55e00; fill-opacity: 0.8; stroke: #d55e00; stroke-opacity: 0.8; stroke-linejoin: miter"/>
     <use xlink:href="#md06bfd8a81" x="620.94318" y="532.866884" style="fill: #d55e00; fill-opacity: 0.8; stroke: #d55e00; stroke-opacity: 0.8; stroke-linejoin: miter"/>
     <use xlink:href="#md06bfd8a81" x="650.705025" y="598.134597" style="fill: #d55e00; fill-opacity: 0.8; stroke: #d55e00; stroke-opacity: 0.8; stroke-linejoin: miter"/>
    </g>
   </g>
   <g id="line2d_36">
    <path d="M 55.468125 31.979958 
L 85.22997 31.202344 
L 114.991815 38.822959 
L 144.75366 38.408231 
L 174.515505 44.888346 
L 204.27735 54.686279 
L 234.039195 54.271551 
L 263.80104 70.964326 
L 293.562885 83.665351 
L 323.32473 98.025284 
L 353.086575 112.955468 
L 382.84842 139.238812 
L 412.610265 163.915088 
L 442.37211 210.727435 
L 472.133955 248.052894 
L 501.8958 286.778058 
L 506.604508 297.39952 
" clip-path="url(#pca48894d5e)" style="fill: none; stroke: #029e73; stroke-opacity: 0.8; stroke-width: 2; stroke-linecap: round"/>
    <defs>
     <path id="m3ef68bf6ab" d="M 0 3 
C 0.795609 3 1.55874 2.683901 2.12132 2.12132 
C 2.683901 1.55874 3 0.795609 3 0 
C 3 -0.795609 2.683901 -1.55874 2.12132 -2.12132 
C 1.55874 -2.683901 0.795609 -3 0 -3 
C -0.795609 -3 -1.55874 -2.683901 -2.12132 -2.12132 
C -2.683901 -1.55874 -3 -0.795609 -3 0 
C -3 0.795609 -2.683901 1.55874 -2.12132 2.12132 
C -1.55874 2.683901 -0.795609 3 0 3 
z
" style="stroke: #029e73; stroke-opacity: 0.8"/>
    </defs>
    <g clip-path="url(#pca48894d5e)">
     <use xlink:href="#m3ef68bf6ab" x="55.468125" y="31.979958" style="fill: #029e73; fill-opacity: 0.8; stroke: #029e73; stroke-opacity: 0.8"/>
     <use xlink:href="#m3ef68bf6ab" x="85.22997" y="31.202344" style="fill: #029e73; fill-opacity: 0.8; stroke: #029e73; stroke-opacity: 0.8"/>
     <use xlink:href="#m3ef68bf6ab" x="114.991815" y="38.822959" style="fill: #029e73; fill-opacity: 0.8; stroke: #029e73; stroke-opacity: 0.8"/>
     <use xlink:href="#m3ef68bf6ab" x="144.75366" y="38.408231" style="fill: #029e73; fill-opacity: 0.8; stroke: #029e73; stroke-opacity: 0.8"/>
     <use xlink:href="#m3ef68bf6ab" x="174.515505" y="44.888346" style="fill: #029e73; fill-opacity: 0.8; stroke: #029e73; stroke-opacity: 0.8"/>
     <use xlink:href="#m3ef68bf6ab" x="204.27735" y="54.686279" style="fill: #029e73; fill-opacity: 0.8; stroke: #029e73; stroke-opacity: 0.8"/>
     <use xlink:href="#m3ef68bf6ab" x="234.039195" y="54.271551" style="fill: #029e73; fill-opacity: 0.8; stroke: #029e73; stroke-opacity: 0.8"/>
     <use xlink:href="#m3ef68bf6ab" x="263.80104" y="70.964326" style="fill: #029e73; fill-opacity: 0.8; stroke: #029e73; stroke-opacity: 0.8"/>
     <use xlink:href="#m3ef68bf6ab" x="293.562885" y="83.665351" style="fill: #029e73; fill-opacity: 0.8; stroke: #029e73; stroke-opacity: 0.8"/>
     <use xlink:href="#m3ef68bf6ab" x="323.32473" y="98.025284" style="fill: #029e73; fill-opacity: 0.8; stroke: #029e73; stroke-opacity: 0.8"/>
     <use xlink:href="#m3ef68bf6ab" x="353.086575" y="112.955468" style="fill: #029e73; fill-opacity: 0.8; stroke: #029e73; stroke-opacity: 0.8"/>
     <use xlink:href="#m3ef68bf6ab" x="382.84842" y="139.238812" style="fill: #029e73; fill-opacity: 0.8; stroke: #029e73; stroke-opacity: 0.8"/>
     <use xlink:href="#m3ef68bf6ab" x="412.610265" y="163.915088" style="fill: #029e73; fill-opacity: 0.8; stroke: #029e73; stroke-opacity: 0.8"/>
     <use xlink:href="#m3ef68bf6ab" x="442.37211" y="210.727435" style="fill: #029e73; fill-opacity: 0.8; stroke: #029e73; stroke-opacity: 0.8"/>
     <use xlink:href="#m3ef68bf6ab" x="472.133955" y="248.052894" style="fill: #029e73; fill-opacity: 0.8; stroke: #029e73; stroke-opacity: 0.8"/>
     <use xlink:href="#m3ef68bf6ab" x="501.8958" y="286.778058" style="fill: #029e73; fill-opacity: 0.8; stroke: #029e73; stroke-opacity: 0.8"/>
     <use xlink:href="#m3ef68bf6ab" x="531.657645" y="353.912044" style="fill: #029e73; fill-opacity: 0.8; stroke: #029e73; stroke-opacity: 0.8"/>
     <use xlink:href="#m3ef68bf6ab" x="561.41949" y="413.114369" style="fill: #029e73; fill-opacity: 0.8; stroke: #029e73; stroke-opacity: 0.8"/>
     <use xlink:href="#m3ef68bf6ab" x="591.181335" y="477.241582" style="fill: #029e73; fill-opacity: 0.8; stroke: #029e73; stroke-opacity: 0.8"/>
     <use xlink:href="#m3ef68bf6ab" x="620.94318" y="536.910476" style="fill: #029e73; fill-opacity: 0.8; stroke: #029e73; stroke-opacity: 0.8"/>
     <use xlink:href="#m3ef68bf6ab" x="650.705025" y="604.148143" style="fill: #029e73; fill-opacity: 0.8; stroke: #029e73; stroke-opacity: 0.8"/>
    </g>
   </g>
   <g id="line2d_37">
    <path d="M 55.468125 27.106912 
L 85.22997 34.623844 
L 114.991815 35.401458 
L 144.75366 46.8583 
L 174.515505 49.761392 
L 204.27735 62.410575 
L 234.039195 71.949304 
L 263.80104 86.723965 
L 293.562885 100.461807 
L 323.32473 125.345447 
L 353.086575 156.449996 
L 382.84842 180.400499 
L 412.610265 219.384868 
L 442.37211 254.481168 
L 472.133955 293.621059 
L 473.94465 297.39952 
" clip-path="url(#pca48894d5e)" style="fill: none; stroke: #cc78bc; stroke-opacity: 0.8; stroke-width: 2; stroke-linecap: round"/>
    <defs>
     <path id="m5400481490" d="M -1.5 3 
L 0 1.5 
L 1.5 3 
L 3 1.5 
L 1.5 0 
L 3 -1.5 
L 1.5 -3 
L 0 -1.5 
L -1.5 -3 
L -3 -1.5 
L -1.5 0 
L -3 1.5 
z
" style="stroke: #cc78bc; stroke-opacity: 0.8; stroke-linejoin: miter"/>
    </defs>
    <g clip-path="url(#pca48894d5e)">
     <use xlink:href="#m5400481490" x="55.468125" y="27.106912" style="fill: #cc78bc; fill-opacity: 0.8; stroke: #cc78bc; stroke-opacity: 0.8; stroke-linejoin: miter"/>
     <use xlink:href="#m5400481490" x="85.22997" y="34.623844" style="fill: #cc78bc; fill-opacity: 0.8; stroke: #cc78bc; stroke-opacity: 0.8; stroke-linejoin: miter"/>
     <use xlink:href="#m5400481490" x="114.991815" y="35.401458" style="fill: #cc78bc; fill-opacity: 0.8; stroke: #cc78bc; stroke-opacity: 0.8; stroke-linejoin: miter"/>
     <use xlink:href="#m5400481490" x="144.75366" y="46.8583" style="fill: #cc78bc; fill-opacity: 0.8; stroke: #cc78bc; stroke-opacity: 0.8; stroke-linejoin: miter"/>
     <use xlink:href="#m5400481490" x="174.515505" y="49.761392" style="fill: #cc78bc; fill-opacity: 0.8; stroke: #cc78bc; stroke-opacity: 0.8; stroke-linejoin: miter"/>
     <use xlink:href="#m5400481490" x="204.27735" y="62.410575" style="fill: #cc78bc; fill-opacity: 0.8; stroke: #cc78bc; stroke-opacity: 0.8; stroke-linejoin: miter"/>
     <use xlink:href="#m5400481490" x="234.039195" y="71.949304" style="fill: #cc78bc; fill-opacity: 0.8; stroke: #cc78bc; stroke-opacity: 0.8; stroke-linejoin: miter"/>
     <use xlink:href="#m5400481490" x="263.80104" y="86.723965" style="fill: #cc78bc; fill-opacity: 0.8; stroke: #cc78bc; stroke-opacity: 0.8; stroke-linejoin: miter"/>
     <use xlink:href="#m5400481490" x="293.562885" y="100.461807" style="fill: #cc78bc; fill-opacity: 0.8; stroke: #cc78bc; stroke-opacity: 0.8; stroke-linejoin: miter"/>
     <use xlink:href="#m5400481490" x="323.32473" y="125.345447" style="fill: #cc78bc; fill-opacity: 0.8; stroke: #cc78bc; stroke-opacity: 0.8; stroke-linejoin: miter"/>
     <use xlink:href="#m5400481490" x="353.086575" y="156.449996" style="fill: #cc78bc; fill-opacity: 0.8; stroke: #cc78bc; stroke-opacity: 0.8; stroke-linejoin: miter"/>
     <use xlink:href="#m5400481490" x="382.84842" y="180.400499" style="fill: #cc78bc; fill-opacity: 0.8; stroke: #cc78bc; stroke-opacity: 0.8; stroke-linejoin: miter"/>
     <use xlink:href="#m5400481490" x="412.610265" y="219.384868" style="fill: #cc78bc; fill-opacity: 0.8; stroke: #cc78bc; stroke-opacity: 0.8; stroke-linejoin: miter"/>
     <use xlink:href="#m5400481490" x="442.37211" y="254.481168" style="fill: #cc78bc; fill-opacity: 0.8; stroke: #cc78bc; stroke-opacity: 0.8; stroke-linejoin: miter"/>
     <use xlink:href="#m5400481490" x="472.133955" y="293.621059" style="fill: #cc78bc; fill-opacity: 0.8; stroke: #cc78bc; stroke-opacity: 0.8; stroke-linejoin: miter"/>
     <use xlink:href="#m5400481490" x="501.8958" y="355.726476" style="fill: #cc78bc; fill-opacity: 0.8; stroke: #cc78bc; stroke-opacity: 0.8; stroke-linejoin: miter"/>
     <use xlink:href="#m5400481490" x="531.657645" y="393.207458" style="fill: #cc78bc; fill-opacity: 0.8; stroke: #cc78bc; stroke-opacity: 0.8; stroke-linejoin: miter"/>
     <use xlink:href="#m5400481490" x="561.41949" y="465.473694" style="fill: #cc78bc; fill-opacity: 0.8; stroke: #cc78bc; stroke-opacity: 0.8; stroke-linejoin: miter"/>
     <use xlink:href="#m5400481490" x="591.181335" y="514.048632" style="fill: #cc78bc; fill-opacity: 0.8; stroke: #cc78bc; stroke-opacity: 0.8; stroke-linejoin: miter"/>
     <use xlink:href="#m5400481490" x="620.94318" y="581.493663" style="fill: #cc78bc; fill-opacity: 0.8; stroke: #cc78bc; stroke-opacity: 0.8; stroke-linejoin: miter"/>
     <use xlink:href="#m5400481490" x="650.705025" y="675.999652" style="fill: #cc78bc; fill-opacity: 0.8; stroke: #cc78bc; stroke-opacity: 0.8; stroke-linejoin: miter"/>
    </g>
   </g>
   <g id="patch_3">
    <path d="M 55.468125 256.036395 
L 55.468125 7.2 
" style="fill: none; stroke: #262626; stroke-width: 0.6; stroke-linejoin: miter; stroke-linecap: square"/>
   </g>
   <g id="patch_4">
    <path d="M 55.468125 256.036395 
L 531.657645 256.036395 
" style="fill: none; stroke: #262626; stroke-width: 0.6; stroke-linejoin: miter; stroke-linecap: square"/>
   </g>
  </g>
 </g>
 <defs>
  <clipPath id="pca48894d5e">
   <rect x="55.468125" y="7.2" width="476.18952" height="248.836395"/>
  </clipPath>
 </defs>
</svg>
