<?xml version="1.0" encoding="utf-8" standalone="no"?>
<!DOCTYPE svg PUBLIC "-//W3C//DTD SVG 1.1//EN"
  "http://www.w3.org/Graphics/SVG/1.1/DTD/svg11.dtd">
<svg xmlns:xlink="http://www.w3.org/1999/xlink" width="548.39952pt" height="296.39952pt" viewBox="0 0 548.39952 296.39952" xmlns="http://www.w3.org/2000/svg" version="1.1">
 <metadata>
  <rdf:RDF xmlns:dc="http://purl.org/dc/elements/1.1/" xmlns:cc="http://creativecommons.org/ns#" xmlns:rdf="http://www.w3.org/1999/02/22-rdf-syntax-ns#">
   <cc:Work>
    <dc:type rdf:resource="http://purl.org/dc/dcmitype/StillImage"/>
    <dc:date>2022-05-16T06:34:36.946273</dc:date>
    <dc:format>image/svg+xml</dc:format>
    <dc:creator>
     <cc:Agent>
      <dc:title>Matplotlib v3.5.1, https://matplotlib.org/</dc:title>
     </cc:Agent>
    </dc:creator>
   </cc:Work>
  </rdf:RDF>
 </metadata>
 <defs>
  <style type="text/css">*{stroke-linejoin: round; stroke-linecap: butt}</style>
 </defs>
 <g id="figure_1">
  <g id="patch_1">
   <path d="M 0 296.39952 
L 548.39952 296.39952 
L 548.39952 0 
L 0 0 
z
" style="fill: #ffffff"/>
  </g>
  <g id="axes_1">
   <g id="patch_2">
    <path d="M 54.474063 260.875458 
L 533.247957 260.875458 
L 533.247957 10.999219 
L 54.474063 10.999219 
z
" style="fill: #ffffff"/>
   </g>
   <g id="matplotlib.axis_1">
    <g id="xtick_1">
     <g id="line2d_1">
      <path d="M 54.474063 260.875458 
L 54.474063 10.999219 
" clip-path="url(#p46029e51c5)" style="fill: none; stroke: #cccccc; stroke-width: 0.6; stroke-linecap: round"/>
     </g>
     <g id="line2d_2">
      <defs>
       <path id="m51b04afb91" d="M 0 0 
L 0 4 
" style="stroke: #262626; stroke-width: 0.6"/>
      </defs>
      <g>
       <use xlink:href="#m51b04afb91" x="54.474063" y="260.875458" style="fill: #262626; stroke: #262626; stroke-width: 0.6"/>
      </g>
     </g>
     <g id="text_1">
      <!-- 100.0 -->
      <g style="fill: #262626" transform="translate(40.16 274.473895)scale(0.1 -0.1)">
       <defs>
        <path id="DejaVuSans-31" d="M 794 531 
L 1825 531 
L 1825 4091 
L 703 3866 
L 703 4441 
L 1819 4666 
L 2450 4666 
L 2450 531 
L 3481 531 
L 3481 0 
L 794 0 
L 794 531 
z
" transform="scale(0.015625)"/>
        <path id="DejaVuSans-30" d="M 2034 4250 
Q 1547 4250 1301 3770 
Q 1056 3291 1056 2328 
Q 1056 1369 1301 889 
Q 1547 409 2034 409 
Q 2525 409 2770 889 
Q 3016 1369 3016 2328 
Q 3016 3291 2770 3770 
Q 2525 4250 2034 4250 
z
M 2034 4750 
Q 2819 4750 3233 4129 
Q 3647 3509 3647 2328 
Q 3647 1150 3233 529 
Q 2819 -91 2034 -91 
Q 1250 -91 836 529 
Q 422 1150 422 2328 
Q 422 3509 836 4129 
Q 1250 4750 2034 4750 
z
" transform="scale(0.015625)"/>
        <path id="DejaVuSans-2e" d="M 684 794 
L 1344 794 
L 1344 0 
L 684 0 
L 684 794 
z
" transform="scale(0.015625)"/>
       </defs>
       <use xlink:href="#DejaVuSans-31"/>
       <use xlink:href="#DejaVuSans-30" x="63.623047"/>
       <use xlink:href="#DejaVuSans-30" x="127.246094"/>
       <use xlink:href="#DejaVuSans-2e" x="190.869141"/>
       <use xlink:href="#DejaVuSans-30" x="222.65625"/>
      </g>
     </g>
    </g>
    <g id="xtick_2">
     <g id="line2d_3">
      <path d="M 134.269712 260.875458 
L 134.269712 10.999219 
" clip-path="url(#p46029e51c5)" style="fill: none; stroke: #cccccc; stroke-width: 0.6; stroke-linecap: round"/>
     </g>
     <g id="line2d_4">
      <g>
       <use xlink:href="#m51b04afb91" x="134.269712" y="260.875458" style="fill: #262626; stroke: #262626; stroke-width: 0.6"/>
      </g>
     </g>
     <g id="text_2">
      <!-- 64.0 -->
      <g style="fill: #262626" transform="translate(123.136899 274.473895)scale(0.1 -0.1)">
       <defs>
        <path id="DejaVuSans-36" d="M 2113 2584 
Q 1688 2584 1439 2293 
Q 1191 2003 1191 1497 
Q 1191 994 1439 701 
Q 1688 409 2113 409 
Q 2538 409 2786 701 
Q 3034 994 3034 1497 
Q 3034 2003 2786 2293 
Q 2538 2584 2113 2584 
z
M 3366 4563 
L 3366 3988 
Q 3128 4100 2886 4159 
Q 2644 4219 2406 4219 
Q 1781 4219 1451 3797 
Q 1122 3375 1075 2522 
Q 1259 2794 1537 2939 
Q 1816 3084 2150 3084 
Q 2853 3084 3261 2657 
Q 3669 2231 3669 1497 
Q 3669 778 3244 343 
Q 2819 -91 2113 -91 
Q 1303 -91 875 529 
Q 447 1150 447 2328 
Q 447 3434 972 4092 
Q 1497 4750 2381 4750 
Q 2619 4750 2861 4703 
Q 3103 4656 3366 4563 
z
" transform="scale(0.015625)"/>
        <path id="DejaVuSans-34" d="M 2419 4116 
L 825 1625 
L 2419 1625 
L 2419 4116 
z
M 2253 4666 
L 3047 4666 
L 3047 1625 
L 3713 1625 
L 3713 1100 
L 3047 1100 
L 3047 0 
L 2419 0 
L 2419 1100 
L 313 1100 
L 313 1709 
L 2253 4666 
z
" transform="scale(0.015625)"/>
       </defs>
       <use xlink:href="#DejaVuSans-36"/>
       <use xlink:href="#DejaVuSans-34" x="63.623047"/>
       <use xlink:href="#DejaVuSans-2e" x="127.246094"/>
       <use xlink:href="#DejaVuSans-30" x="159.033203"/>
      </g>
     </g>
    </g>
    <g id="xtick_3">
     <g id="line2d_5">
      <path d="M 214.065361 260.875458 
L 214.065361 10.999219 
" clip-path="url(#p46029e51c5)" style="fill: none; stroke: #cccccc; stroke-width: 0.6; stroke-linecap: round"/>
     </g>
     <g id="line2d_6">
      <g>
       <use xlink:href="#m51b04afb91" x="214.065361" y="260.875458" style="fill: #262626; stroke: #262626; stroke-width: 0.6"/>
      </g>
     </g>
     <g id="text_3">
      <!-- 41.0 -->
      <g style="fill: #262626" transform="translate(202.932548 274.473895)scale(0.1 -0.1)">
       <use xlink:href="#DejaVuSans-34"/>
       <use xlink:href="#DejaVuSans-31" x="63.623047"/>
       <use xlink:href="#DejaVuSans-2e" x="127.246094"/>
       <use xlink:href="#DejaVuSans-30" x="159.033203"/>
      </g>
     </g>
    </g>
    <g id="xtick_4">
     <g id="line2d_7">
      <path d="M 293.86101 260.875458 
L 293.86101 10.999219 
" clip-path="url(#p46029e51c5)" style="fill: none; stroke: #cccccc; stroke-width: 0.6; stroke-linecap: round"/>
     </g>
     <g id="line2d_8">
      <g>
       <use xlink:href="#m51b04afb91" x="293.86101" y="260.875458" style="fill: #262626; stroke: #262626; stroke-width: 0.6"/>
      </g>
     </g>
     <g id="text_4">
      <!-- 26.2 -->
      <g style="fill: #262626" transform="translate(282.728197 274.473895)scale(0.1 -0.1)">
       <defs>
        <path id="DejaVuSans-32" d="M 1228 531 
L 3431 531 
L 3431 0 
L 469 0 
L 469 531 
Q 828 903 1448 1529 
Q 2069 2156 2228 2338 
Q 2531 2678 2651 2914 
Q 2772 3150 2772 3378 
Q 2772 3750 2511 3984 
Q 2250 4219 1831 4219 
Q 1534 4219 1204 4116 
Q 875 4013 500 3803 
L 500 4441 
Q 881 4594 1212 4672 
Q 1544 4750 1819 4750 
Q 2544 4750 2975 4387 
Q 3406 4025 3406 3419 
Q 3406 3131 3298 2873 
Q 3191 2616 2906 2266 
Q 2828 2175 2409 1742 
Q 1991 1309 1228 531 
z
" transform="scale(0.015625)"/>
       </defs>
       <use xlink:href="#DejaVuSans-32"/>
       <use xlink:href="#DejaVuSans-36" x="63.623047"/>
       <use xlink:href="#DejaVuSans-2e" x="127.246094"/>
       <use xlink:href="#DejaVuSans-32" x="159.033203"/>
      </g>
     </g>
    </g>
    <g id="xtick_5">
     <g id="line2d_9">
      <path d="M 373.656659 260.875458 
L 373.656659 10.999219 
" clip-path="url(#p46029e51c5)" style="fill: none; stroke: #cccccc; stroke-width: 0.6; stroke-linecap: round"/>
     </g>
     <g id="line2d_10">
      <g>
       <use xlink:href="#m51b04afb91" x="373.656659" y="260.875458" style="fill: #262626; stroke: #262626; stroke-width: 0.6"/>
      </g>
     </g>
     <g id="text_5">
      <!-- 16.8 -->
      <g style="fill: #262626" transform="translate(362.523847 274.473895)scale(0.1 -0.1)">
       <defs>
        <path id="DejaVuSans-38" d="M 2034 2216 
Q 1584 2216 1326 1975 
Q 1069 1734 1069 1313 
Q 1069 891 1326 650 
Q 1584 409 2034 409 
Q 2484 409 2743 651 
Q 3003 894 3003 1313 
Q 3003 1734 2745 1975 
Q 2488 2216 2034 2216 
z
M 1403 2484 
Q 997 2584 770 2862 
Q 544 3141 544 3541 
Q 544 4100 942 4425 
Q 1341 4750 2034 4750 
Q 2731 4750 3128 4425 
Q 3525 4100 3525 3541 
Q 3525 3141 3298 2862 
Q 3072 2584 2669 2484 
Q 3125 2378 3379 2068 
Q 3634 1759 3634 1313 
Q 3634 634 3220 271 
Q 2806 -91 2034 -91 
Q 1263 -91 848 271 
Q 434 634 434 1313 
Q 434 1759 690 2068 
Q 947 2378 1403 2484 
z
M 1172 3481 
Q 1172 3119 1398 2916 
Q 1625 2713 2034 2713 
Q 2441 2713 2670 2916 
Q 2900 3119 2900 3481 
Q 2900 3844 2670 4047 
Q 2441 4250 2034 4250 
Q 1625 4250 1398 4047 
Q 1172 3844 1172 3481 
z
" transform="scale(0.015625)"/>
       </defs>
       <use xlink:href="#DejaVuSans-31"/>
       <use xlink:href="#DejaVuSans-36" x="63.623047"/>
       <use xlink:href="#DejaVuSans-2e" x="127.246094"/>
       <use xlink:href="#DejaVuSans-38" x="159.033203"/>
      </g>
     </g>
    </g>
    <g id="xtick_6">
     <g id="line2d_11">
      <path d="M 453.452308 260.875458 
L 453.452308 10.999219 
" clip-path="url(#p46029e51c5)" style="fill: none; stroke: #cccccc; stroke-width: 0.6; stroke-linecap: round"/>
     </g>
     <g id="line2d_12">
      <g>
       <use xlink:href="#m51b04afb91" x="453.452308" y="260.875458" style="fill: #262626; stroke: #262626; stroke-width: 0.6"/>
      </g>
     </g>
     <g id="text_6">
      <!-- 10.7 -->
      <g style="fill: #262626" transform="translate(442.319496 274.473895)scale(0.1 -0.1)">
       <defs>
        <path id="DejaVuSans-37" d="M 525 4666 
L 3525 4666 
L 3525 4397 
L 1831 0 
L 1172 0 
L 2766 4134 
L 525 4134 
L 525 4666 
z
" transform="scale(0.015625)"/>
       </defs>
       <use xlink:href="#DejaVuSans-31"/>
       <use xlink:href="#DejaVuSans-30" x="63.623047"/>
       <use xlink:href="#DejaVuSans-2e" x="127.246094"/>
       <use xlink:href="#DejaVuSans-37" x="159.033203"/>
      </g>
     </g>
    </g>
    <g id="xtick_7">
     <g id="line2d_13">
      <path d="M 533.247957 260.875458 
L 533.247957 10.999219 
" clip-path="url(#p46029e51c5)" style="fill: none; stroke: #cccccc; stroke-width: 0.6; stroke-linecap: round"/>
     </g>
     <g id="line2d_14">
      <g>
       <use xlink:href="#m51b04afb91" x="533.247957" y="260.875458" style="fill: #262626; stroke: #262626; stroke-width: 0.6"/>
      </g>
     </g>
     <g id="text_7">
      <!-- 6.9 -->
      <g style="fill: #262626" transform="translate(525.296395 274.473895)scale(0.1 -0.1)">
       <defs>
        <path id="DejaVuSans-39" d="M 703 97 
L 703 672 
Q 941 559 1184 500 
Q 1428 441 1663 441 
Q 2288 441 2617 861 
Q 2947 1281 2994 2138 
Q 2813 1869 2534 1725 
Q 2256 1581 1919 1581 
Q 1219 1581 811 2004 
Q 403 2428 403 3163 
Q 403 3881 828 4315 
Q 1253 4750 1959 4750 
Q 2769 4750 3195 4129 
Q 3622 3509 3622 2328 
Q 3622 1225 3098 567 
Q 2575 -91 1691 -91 
Q 1453 -91 1209 -44 
Q 966 3 703 97 
z
M 1959 2075 
Q 2384 2075 2632 2365 
Q 2881 2656 2881 3163 
Q 2881 3666 2632 3958 
Q 2384 4250 1959 4250 
Q 1534 4250 1286 3958 
Q 1038 3666 1038 3163 
Q 1038 2656 1286 2365 
Q 1534 2075 1959 2075 
z
" transform="scale(0.015625)"/>
       </defs>
       <use xlink:href="#DejaVuSans-36"/>
       <use xlink:href="#DejaVuSans-2e" x="63.623047"/>
       <use xlink:href="#DejaVuSans-39" x="95.410156"/>
      </g>
     </g>
    </g>
    <g id="text_8">
     <!-- % Weights Remaining -->
     <g style="fill: #262626" transform="translate(233.908432 286.911864)scale(0.11 -0.11)">
      <defs>
       <path id="DejaVuSans-25" d="M 4653 2053 
Q 4381 2053 4226 1822 
Q 4072 1591 4072 1178 
Q 4072 772 4226 539 
Q 4381 306 4653 306 
Q 4919 306 5073 539 
Q 5228 772 5228 1178 
Q 5228 1588 5073 1820 
Q 4919 2053 4653 2053 
z
M 4653 2450 
Q 5147 2450 5437 2106 
Q 5728 1763 5728 1178 
Q 5728 594 5436 251 
Q 5144 -91 4653 -91 
Q 4153 -91 3862 251 
Q 3572 594 3572 1178 
Q 3572 1766 3864 2108 
Q 4156 2450 4653 2450 
z
M 1428 4353 
Q 1159 4353 1004 4120 
Q 850 3888 850 3481 
Q 850 3069 1003 2837 
Q 1156 2606 1428 2606 
Q 1700 2606 1854 2837 
Q 2009 3069 2009 3481 
Q 2009 3884 1853 4118 
Q 1697 4353 1428 4353 
z
M 4250 4750 
L 4750 4750 
L 1831 -91 
L 1331 -91 
L 4250 4750 
z
M 1428 4750 
Q 1922 4750 2215 4408 
Q 2509 4066 2509 3481 
Q 2509 2891 2217 2550 
Q 1925 2209 1428 2209 
Q 931 2209 642 2551 
Q 353 2894 353 3481 
Q 353 4063 643 4406 
Q 934 4750 1428 4750 
z
" transform="scale(0.015625)"/>
       <path id="DejaVuSans-20" transform="scale(0.015625)"/>
       <path id="DejaVuSans-57" d="M 213 4666 
L 850 4666 
L 1831 722 
L 2809 4666 
L 3519 4666 
L 4500 722 
L 5478 4666 
L 6119 4666 
L 4947 0 
L 4153 0 
L 3169 4050 
L 2175 0 
L 1381 0 
L 213 4666 
z
" transform="scale(0.015625)"/>
       <path id="DejaVuSans-65" d="M 3597 1894 
L 3597 1613 
L 953 1613 
Q 991 1019 1311 708 
Q 1631 397 2203 397 
Q 2534 397 2845 478 
Q 3156 559 3463 722 
L 3463 178 
Q 3153 47 2828 -22 
Q 2503 -91 2169 -91 
Q 1331 -91 842 396 
Q 353 884 353 1716 
Q 353 2575 817 3079 
Q 1281 3584 2069 3584 
Q 2775 3584 3186 3129 
Q 3597 2675 3597 1894 
z
M 3022 2063 
Q 3016 2534 2758 2815 
Q 2500 3097 2075 3097 
Q 1594 3097 1305 2825 
Q 1016 2553 972 2059 
L 3022 2063 
z
" transform="scale(0.015625)"/>
       <path id="DejaVuSans-69" d="M 603 3500 
L 1178 3500 
L 1178 0 
L 603 0 
L 603 3500 
z
M 603 4863 
L 1178 4863 
L 1178 4134 
L 603 4134 
L 603 4863 
z
" transform="scale(0.015625)"/>
       <path id="DejaVuSans-67" d="M 2906 1791 
Q 2906 2416 2648 2759 
Q 2391 3103 1925 3103 
Q 1463 3103 1205 2759 
Q 947 2416 947 1791 
Q 947 1169 1205 825 
Q 1463 481 1925 481 
Q 2391 481 2648 825 
Q 2906 1169 2906 1791 
z
M 3481 434 
Q 3481 -459 3084 -895 
Q 2688 -1331 1869 -1331 
Q 1566 -1331 1297 -1286 
Q 1028 -1241 775 -1147 
L 775 -588 
Q 1028 -725 1275 -790 
Q 1522 -856 1778 -856 
Q 2344 -856 2625 -561 
Q 2906 -266 2906 331 
L 2906 616 
Q 2728 306 2450 153 
Q 2172 0 1784 0 
Q 1141 0 747 490 
Q 353 981 353 1791 
Q 353 2603 747 3093 
Q 1141 3584 1784 3584 
Q 2172 3584 2450 3431 
Q 2728 3278 2906 2969 
L 2906 3500 
L 3481 3500 
L 3481 434 
z
" transform="scale(0.015625)"/>
       <path id="DejaVuSans-68" d="M 3513 2113 
L 3513 0 
L 2938 0 
L 2938 2094 
Q 2938 2591 2744 2837 
Q 2550 3084 2163 3084 
Q 1697 3084 1428 2787 
Q 1159 2491 1159 1978 
L 1159 0 
L 581 0 
L 581 4863 
L 1159 4863 
L 1159 2956 
Q 1366 3272 1645 3428 
Q 1925 3584 2291 3584 
Q 2894 3584 3203 3211 
Q 3513 2838 3513 2113 
z
" transform="scale(0.015625)"/>
       <path id="DejaVuSans-74" d="M 1172 4494 
L 1172 3500 
L 2356 3500 
L 2356 3053 
L 1172 3053 
L 1172 1153 
Q 1172 725 1289 603 
Q 1406 481 1766 481 
L 2356 481 
L 2356 0 
L 1766 0 
Q 1100 0 847 248 
Q 594 497 594 1153 
L 594 3053 
L 172 3053 
L 172 3500 
L 594 3500 
L 594 4494 
L 1172 4494 
z
" transform="scale(0.015625)"/>
       <path id="DejaVuSans-73" d="M 2834 3397 
L 2834 2853 
Q 2591 2978 2328 3040 
Q 2066 3103 1784 3103 
Q 1356 3103 1142 2972 
Q 928 2841 928 2578 
Q 928 2378 1081 2264 
Q 1234 2150 1697 2047 
L 1894 2003 
Q 2506 1872 2764 1633 
Q 3022 1394 3022 966 
Q 3022 478 2636 193 
Q 2250 -91 1575 -91 
Q 1294 -91 989 -36 
Q 684 19 347 128 
L 347 722 
Q 666 556 975 473 
Q 1284 391 1588 391 
Q 1994 391 2212 530 
Q 2431 669 2431 922 
Q 2431 1156 2273 1281 
Q 2116 1406 1581 1522 
L 1381 1569 
Q 847 1681 609 1914 
Q 372 2147 372 2553 
Q 372 3047 722 3315 
Q 1072 3584 1716 3584 
Q 2034 3584 2315 3537 
Q 2597 3491 2834 3397 
z
" transform="scale(0.015625)"/>
       <path id="DejaVuSans-52" d="M 2841 2188 
Q 3044 2119 3236 1894 
Q 3428 1669 3622 1275 
L 4263 0 
L 3584 0 
L 2988 1197 
Q 2756 1666 2539 1819 
Q 2322 1972 1947 1972 
L 1259 1972 
L 1259 0 
L 628 0 
L 628 4666 
L 2053 4666 
Q 2853 4666 3247 4331 
Q 3641 3997 3641 3322 
Q 3641 2881 3436 2590 
Q 3231 2300 2841 2188 
z
M 1259 4147 
L 1259 2491 
L 2053 2491 
Q 2509 2491 2742 2702 
Q 2975 2913 2975 3322 
Q 2975 3731 2742 3939 
Q 2509 4147 2053 4147 
L 1259 4147 
z
" transform="scale(0.015625)"/>
       <path id="DejaVuSans-6d" d="M 3328 2828 
Q 3544 3216 3844 3400 
Q 4144 3584 4550 3584 
Q 5097 3584 5394 3201 
Q 5691 2819 5691 2113 
L 5691 0 
L 5113 0 
L 5113 2094 
Q 5113 2597 4934 2840 
Q 4756 3084 4391 3084 
Q 3944 3084 3684 2787 
Q 3425 2491 3425 1978 
L 3425 0 
L 2847 0 
L 2847 2094 
Q 2847 2600 2669 2842 
Q 2491 3084 2119 3084 
Q 1678 3084 1418 2786 
Q 1159 2488 1159 1978 
L 1159 0 
L 581 0 
L 581 3500 
L 1159 3500 
L 1159 2956 
Q 1356 3278 1631 3431 
Q 1906 3584 2284 3584 
Q 2666 3584 2933 3390 
Q 3200 3197 3328 2828 
z
" transform="scale(0.015625)"/>
       <path id="DejaVuSans-61" d="M 2194 1759 
Q 1497 1759 1228 1600 
Q 959 1441 959 1056 
Q 959 750 1161 570 
Q 1363 391 1709 391 
Q 2188 391 2477 730 
Q 2766 1069 2766 1631 
L 2766 1759 
L 2194 1759 
z
M 3341 1997 
L 3341 0 
L 2766 0 
L 2766 531 
Q 2569 213 2275 61 
Q 1981 -91 1556 -91 
Q 1019 -91 701 211 
Q 384 513 384 1019 
Q 384 1609 779 1909 
Q 1175 2209 1959 2209 
L 2766 2209 
L 2766 2266 
Q 2766 2663 2505 2880 
Q 2244 3097 1772 3097 
Q 1472 3097 1187 3025 
Q 903 2953 641 2809 
L 641 3341 
Q 956 3463 1253 3523 
Q 1550 3584 1831 3584 
Q 2591 3584 2966 3190 
Q 3341 2797 3341 1997 
z
" transform="scale(0.015625)"/>
       <path id="DejaVuSans-6e" d="M 3513 2113 
L 3513 0 
L 2938 0 
L 2938 2094 
Q 2938 2591 2744 2837 
Q 2550 3084 2163 3084 
Q 1697 3084 1428 2787 
Q 1159 2491 1159 1978 
L 1159 0 
L 581 0 
L 581 3500 
L 1159 3500 
L 1159 2956 
Q 1366 3272 1645 3428 
Q 1925 3584 2291 3584 
Q 2894 3584 3203 3211 
Q 3513 2838 3513 2113 
z
" transform="scale(0.015625)"/>
      </defs>
      <use xlink:href="#DejaVuSans-25"/>
      <use xlink:href="#DejaVuSans-20" x="95.019531"/>
      <use xlink:href="#DejaVuSans-57" x="126.806641"/>
      <use xlink:href="#DejaVuSans-65" x="219.808594"/>
      <use xlink:href="#DejaVuSans-69" x="281.332031"/>
      <use xlink:href="#DejaVuSans-67" x="309.115234"/>
      <use xlink:href="#DejaVuSans-68" x="372.591797"/>
      <use xlink:href="#DejaVuSans-74" x="435.970703"/>
      <use xlink:href="#DejaVuSans-73" x="475.179688"/>
      <use xlink:href="#DejaVuSans-20" x="527.279297"/>
      <use xlink:href="#DejaVuSans-52" x="559.066406"/>
      <use xlink:href="#DejaVuSans-65" x="624.048828"/>
      <use xlink:href="#DejaVuSans-6d" x="685.572266"/>
      <use xlink:href="#DejaVuSans-61" x="782.984375"/>
      <use xlink:href="#DejaVuSans-69" x="844.263672"/>
      <use xlink:href="#DejaVuSans-6e" x="872.046875"/>
      <use xlink:href="#DejaVuSans-69" x="935.425781"/>
      <use xlink:href="#DejaVuSans-6e" x="963.208984"/>
      <use xlink:href="#DejaVuSans-67" x="1026.587891"/>
     </g>
    </g>
   </g>
   <g id="matplotlib.axis_2">
    <g id="ytick_1">
     <g id="line2d_15">
      <path d="M 54.474063 260.875458 
L 533.247957 260.875458 
" clip-path="url(#p46029e51c5)" style="fill: none; stroke: #cccccc; stroke-width: 0.6; stroke-linecap: round"/>
     </g>
     <g id="line2d_16">
      <defs>
       <path id="m9b278e482d" d="M 0 0 
L -4 0 
" style="stroke: #262626; stroke-width: 0.6"/>
      </defs>
      <g>
       <use xlink:href="#m9b278e482d" x="54.474063" y="260.875458" style="fill: #262626; stroke: #262626; stroke-width: 0.6"/>
      </g>
     </g>
     <g id="text_9">
      <!-- 0.835 -->
      <g style="fill: #262626" transform="translate(19.845938 264.674676)scale(0.1 -0.1)">
       <defs>
        <path id="DejaVuSans-33" d="M 2597 2516 
Q 3050 2419 3304 2112 
Q 3559 1806 3559 1356 
Q 3559 666 3084 287 
Q 2609 -91 1734 -91 
Q 1441 -91 1130 -33 
Q 819 25 488 141 
L 488 750 
Q 750 597 1062 519 
Q 1375 441 1716 441 
Q 2309 441 2620 675 
Q 2931 909 2931 1356 
Q 2931 1769 2642 2001 
Q 2353 2234 1838 2234 
L 1294 2234 
L 1294 2753 
L 1863 2753 
Q 2328 2753 2575 2939 
Q 2822 3125 2822 3475 
Q 2822 3834 2567 4026 
Q 2313 4219 1838 4219 
Q 1578 4219 1281 4162 
Q 984 4106 628 3988 
L 628 4550 
Q 988 4650 1302 4700 
Q 1616 4750 1894 4750 
Q 2613 4750 3031 4423 
Q 3450 4097 3450 3541 
Q 3450 3153 3228 2886 
Q 3006 2619 2597 2516 
z
" transform="scale(0.015625)"/>
        <path id="DejaVuSans-35" d="M 691 4666 
L 3169 4666 
L 3169 4134 
L 1269 4134 
L 1269 2991 
Q 1406 3038 1543 3061 
Q 1681 3084 1819 3084 
Q 2600 3084 3056 2656 
Q 3513 2228 3513 1497 
Q 3513 744 3044 326 
Q 2575 -91 1722 -91 
Q 1428 -91 1123 -41 
Q 819 9 494 109 
L 494 744 
Q 775 591 1075 516 
Q 1375 441 1709 441 
Q 2250 441 2565 725 
Q 2881 1009 2881 1497 
Q 2881 1984 2565 2268 
Q 2250 2553 1709 2553 
Q 1456 2553 1204 2497 
Q 953 2441 691 2322 
L 691 4666 
z
" transform="scale(0.015625)"/>
       </defs>
       <use xlink:href="#DejaVuSans-30"/>
       <use xlink:href="#DejaVuSans-2e" x="63.623047"/>
       <use xlink:href="#DejaVuSans-38" x="95.410156"/>
       <use xlink:href="#DejaVuSans-33" x="159.033203"/>
       <use xlink:href="#DejaVuSans-35" x="222.65625"/>
      </g>
     </g>
    </g>
    <g id="ytick_2">
     <g id="line2d_17">
      <path d="M 54.474063 219.229418 
L 533.247957 219.229418 
" clip-path="url(#p46029e51c5)" style="fill: none; stroke: #cccccc; stroke-width: 0.6; stroke-linecap: round"/>
     </g>
     <g id="line2d_18">
      <g>
       <use xlink:href="#m9b278e482d" x="54.474063" y="219.229418" style="fill: #262626; stroke: #262626; stroke-width: 0.6"/>
      </g>
     </g>
     <g id="text_10">
      <!-- 0.840 -->
      <g style="fill: #262626" transform="translate(19.845938 223.028636)scale(0.1 -0.1)">
       <use xlink:href="#DejaVuSans-30"/>
       <use xlink:href="#DejaVuSans-2e" x="63.623047"/>
       <use xlink:href="#DejaVuSans-38" x="95.410156"/>
       <use xlink:href="#DejaVuSans-34" x="159.033203"/>
       <use xlink:href="#DejaVuSans-30" x="222.65625"/>
      </g>
     </g>
    </g>
    <g id="ytick_3">
     <g id="line2d_19">
      <path d="M 54.474063 177.583378 
L 533.247957 177.583378 
" clip-path="url(#p46029e51c5)" style="fill: none; stroke: #cccccc; stroke-width: 0.6; stroke-linecap: round"/>
     </g>
     <g id="line2d_20">
      <g>
       <use xlink:href="#m9b278e482d" x="54.474063" y="177.583378" style="fill: #262626; stroke: #262626; stroke-width: 0.6"/>
      </g>
     </g>
     <g id="text_11">
      <!-- 0.845 -->
      <g style="fill: #262626" transform="translate(19.845938 181.382597)scale(0.1 -0.1)">
       <use xlink:href="#DejaVuSans-30"/>
       <use xlink:href="#DejaVuSans-2e" x="63.623047"/>
       <use xlink:href="#DejaVuSans-38" x="95.410156"/>
       <use xlink:href="#DejaVuSans-34" x="159.033203"/>
       <use xlink:href="#DejaVuSans-35" x="222.65625"/>
      </g>
     </g>
    </g>
    <g id="ytick_4">
     <g id="line2d_21">
      <path d="M 54.474063 135.937338 
L 533.247957 135.937338 
" clip-path="url(#p46029e51c5)" style="fill: none; stroke: #cccccc; stroke-width: 0.6; stroke-linecap: round"/>
     </g>
     <g id="line2d_22">
      <g>
       <use xlink:href="#m9b278e482d" x="54.474063" y="135.937338" style="fill: #262626; stroke: #262626; stroke-width: 0.6"/>
      </g>
     </g>
     <g id="text_12">
      <!-- 0.850 -->
      <g style="fill: #262626" transform="translate(19.845938 139.736557)scale(0.1 -0.1)">
       <use xlink:href="#DejaVuSans-30"/>
       <use xlink:href="#DejaVuSans-2e" x="63.623047"/>
       <use xlink:href="#DejaVuSans-38" x="95.410156"/>
       <use xlink:href="#DejaVuSans-35" x="159.033203"/>
       <use xlink:href="#DejaVuSans-30" x="222.65625"/>
      </g>
     </g>
    </g>
    <g id="ytick_5">
     <g id="line2d_23">
      <path d="M 54.474063 94.291298 
L 533.247957 94.291298 
" clip-path="url(#p46029e51c5)" style="fill: none; stroke: #cccccc; stroke-width: 0.6; stroke-linecap: round"/>
     </g>
     <g id="line2d_24">
      <g>
       <use xlink:href="#m9b278e482d" x="54.474063" y="94.291298" style="fill: #262626; stroke: #262626; stroke-width: 0.6"/>
      </g>
     </g>
     <g id="text_13">
      <!-- 0.855 -->
      <g style="fill: #262626" transform="translate(19.845938 98.090517)scale(0.1 -0.1)">
       <use xlink:href="#DejaVuSans-30"/>
       <use xlink:href="#DejaVuSans-2e" x="63.623047"/>
       <use xlink:href="#DejaVuSans-38" x="95.410156"/>
       <use xlink:href="#DejaVuSans-35" x="159.033203"/>
       <use xlink:href="#DejaVuSans-35" x="222.65625"/>
      </g>
     </g>
    </g>
    <g id="ytick_6">
     <g id="line2d_25">
      <path d="M 54.474063 52.645259 
L 533.247957 52.645259 
" clip-path="url(#p46029e51c5)" style="fill: none; stroke: #cccccc; stroke-width: 0.6; stroke-linecap: round"/>
     </g>
     <g id="line2d_26">
      <g>
       <use xlink:href="#m9b278e482d" x="54.474063" y="52.645259" style="fill: #262626; stroke: #262626; stroke-width: 0.6"/>
      </g>
     </g>
     <g id="text_14">
      <!-- 0.860 -->
      <g style="fill: #262626" transform="translate(19.845938 56.444477)scale(0.1 -0.1)">
       <use xlink:href="#DejaVuSans-30"/>
       <use xlink:href="#DejaVuSans-2e" x="63.623047"/>
       <use xlink:href="#DejaVuSans-38" x="95.410156"/>
       <use xlink:href="#DejaVuSans-36" x="159.033203"/>
       <use xlink:href="#DejaVuSans-30" x="222.65625"/>
      </g>
     </g>
    </g>
    <g id="ytick_7">
     <g id="line2d_27">
      <path d="M 54.474063 10.999219 
L 533.247957 10.999219 
" clip-path="url(#p46029e51c5)" style="fill: none; stroke: #cccccc; stroke-width: 0.6; stroke-linecap: round"/>
     </g>
     <g id="line2d_28">
      <g>
       <use xlink:href="#m9b278e482d" x="54.474063" y="10.999219" style="fill: #262626; stroke: #262626; stroke-width: 0.6"/>
      </g>
     </g>
     <g id="text_15">
      <!-- 0.865 -->
      <g style="fill: #262626" transform="translate(19.845938 14.798438)scale(0.1 -0.1)">
       <use xlink:href="#DejaVuSans-30"/>
       <use xlink:href="#DejaVuSans-2e" x="63.623047"/>
       <use xlink:href="#DejaVuSans-38" x="95.410156"/>
       <use xlink:href="#DejaVuSans-36" x="159.033203"/>
       <use xlink:href="#DejaVuSans-35" x="222.65625"/>
      </g>
     </g>
    </g>
    <g id="text_16">
     <!-- Final Test Accuracy -->
     <g style="fill: #262626" transform="translate(15.558281 188.050698)rotate(-90)scale(0.11 -0.11)">
      <defs>
       <path id="DejaVuSans-46" d="M 628 4666 
L 3309 4666 
L 3309 4134 
L 1259 4134 
L 1259 2759 
L 3109 2759 
L 3109 2228 
L 1259 2228 
L 1259 0 
L 628 0 
L 628 4666 
z
" transform="scale(0.015625)"/>
       <path id="DejaVuSans-6c" d="M 603 4863 
L 1178 4863 
L 1178 0 
L 603 0 
L 603 4863 
z
" transform="scale(0.015625)"/>
       <path id="DejaVuSans-54" d="M -19 4666 
L 3928 4666 
L 3928 4134 
L 2272 4134 
L 2272 0 
L 1638 0 
L 1638 4134 
L -19 4134 
L -19 4666 
z
" transform="scale(0.015625)"/>
       <path id="DejaVuSans-41" d="M 2188 4044 
L 1331 1722 
L 3047 1722 
L 2188 4044 
z
M 1831 4666 
L 2547 4666 
L 4325 0 
L 3669 0 
L 3244 1197 
L 1141 1197 
L 716 0 
L 50 0 
L 1831 4666 
z
" transform="scale(0.015625)"/>
       <path id="DejaVuSans-63" d="M 3122 3366 
L 3122 2828 
Q 2878 2963 2633 3030 
Q 2388 3097 2138 3097 
Q 1578 3097 1268 2742 
Q 959 2388 959 1747 
Q 959 1106 1268 751 
Q 1578 397 2138 397 
Q 2388 397 2633 464 
Q 2878 531 3122 666 
L 3122 134 
Q 2881 22 2623 -34 
Q 2366 -91 2075 -91 
Q 1284 -91 818 406 
Q 353 903 353 1747 
Q 353 2603 823 3093 
Q 1294 3584 2113 3584 
Q 2378 3584 2631 3529 
Q 2884 3475 3122 3366 
z
" transform="scale(0.015625)"/>
       <path id="DejaVuSans-75" d="M 544 1381 
L 544 3500 
L 1119 3500 
L 1119 1403 
Q 1119 906 1312 657 
Q 1506 409 1894 409 
Q 2359 409 2629 706 
Q 2900 1003 2900 1516 
L 2900 3500 
L 3475 3500 
L 3475 0 
L 2900 0 
L 2900 538 
Q 2691 219 2414 64 
Q 2138 -91 1772 -91 
Q 1169 -91 856 284 
Q 544 659 544 1381 
z
M 1991 3584 
L 1991 3584 
z
" transform="scale(0.015625)"/>
       <path id="DejaVuSans-72" d="M 2631 2963 
Q 2534 3019 2420 3045 
Q 2306 3072 2169 3072 
Q 1681 3072 1420 2755 
Q 1159 2438 1159 1844 
L 1159 0 
L 581 0 
L 581 3500 
L 1159 3500 
L 1159 2956 
Q 1341 3275 1631 3429 
Q 1922 3584 2338 3584 
Q 2397 3584 2469 3576 
Q 2541 3569 2628 3553 
L 2631 2963 
z
" transform="scale(0.015625)"/>
       <path id="DejaVuSans-79" d="M 2059 -325 
Q 1816 -950 1584 -1140 
Q 1353 -1331 966 -1331 
L 506 -1331 
L 506 -850 
L 844 -850 
Q 1081 -850 1212 -737 
Q 1344 -625 1503 -206 
L 1606 56 
L 191 3500 
L 800 3500 
L 1894 763 
L 2988 3500 
L 3597 3500 
L 2059 -325 
z
" transform="scale(0.015625)"/>
      </defs>
      <use xlink:href="#DejaVuSans-46"/>
      <use xlink:href="#DejaVuSans-69" x="50.269531"/>
      <use xlink:href="#DejaVuSans-6e" x="78.052734"/>
      <use xlink:href="#DejaVuSans-61" x="141.431641"/>
      <use xlink:href="#DejaVuSans-6c" x="202.710938"/>
      <use xlink:href="#DejaVuSans-20" x="230.494141"/>
      <use xlink:href="#DejaVuSans-54" x="262.28125"/>
      <use xlink:href="#DejaVuSans-65" x="306.365234"/>
      <use xlink:href="#DejaVuSans-73" x="367.888672"/>
      <use xlink:href="#DejaVuSans-74" x="419.988281"/>
      <use xlink:href="#DejaVuSans-20" x="459.197266"/>
      <use xlink:href="#DejaVuSans-41" x="490.984375"/>
      <use xlink:href="#DejaVuSans-63" x="557.642578"/>
      <use xlink:href="#DejaVuSans-63" x="612.623047"/>
      <use xlink:href="#DejaVuSans-75" x="667.603516"/>
      <use xlink:href="#DejaVuSans-72" x="730.982422"/>
      <use xlink:href="#DejaVuSans-61" x="772.095703"/>
      <use xlink:href="#DejaVuSans-63" x="833.375"/>
      <use xlink:href="#DejaVuSans-79" x="888.355469"/>
     </g>
    </g>
   </g>
   <g id="PolyCollection_1">
    <defs>
     <path id="m06442c7f4e" d="M 54.474063 -165.730131 
L 54.474063 -183.097079 
L 533.247957 -183.097079 
L 533.247957 -165.730131 
L 533.247957 -165.730131 
L 54.474063 -165.730131 
z
"/>
    </defs>
    <g clip-path="url(#p46029e51c5)">
     <use xlink:href="#m06442c7f4e" x="0" y="296.39952" style="fill: #7f7f7f; fill-opacity: 0.2"/>
    </g>
   </g>
   <g id="PolyCollection_2">
    <defs>
     <path id="m067563ab56" d="M 54.474063 -162.671138 
L 54.474063 -191.986518 
L 94.371887 -216.433148 
L 134.269712 -236.942277 
L 174.167536 -257.458827 
L 214.065361 -260.261278 
L 253.963185 -262.116949 
L 293.86101 -268.648167 
L 333.758835 -270.538983 
L 373.656659 -265.60822 
L 413.554484 -258.006084 
L 453.452308 -240.195726 
L 493.350133 -224.714882 
L 533.247957 -193.520037 
L 533.247957 -179.045416 
L 533.247957 -179.045416 
L 493.350133 -212.818393 
L 453.452308 -228.572079 
L 413.554484 -235.332884 
L 373.656659 -244.389164 
L 333.758835 -256.533277 
L 293.86101 -261.339317 
L 253.963185 -250.795658 
L 214.065361 -242.65628 
L 174.167536 -235.047221 
L 134.269712 -214.334192 
L 94.371887 -195.279583 
L 54.474063 -162.671138 
z
"/>
    </defs>
    <g clip-path="url(#p46029e51c5)">
     <use xlink:href="#m067563ab56" x="0" y="296.39952" style="fill: #1f77b4; fill-opacity: 0.2"/>
    </g>
   </g>
   <g id="PolyCollection_3">
    <defs>
     <path id="mfeff3b0994" d="M 54.474063 -165.730131 
L 54.474063 -183.097079 
L 94.371887 -196.369759 
L 134.269712 -214.658591 
L 174.167536 -226.758323 
L 214.065361 -242.268196 
L 253.963185 -245.326385 
L 293.86101 -248.869585 
L 333.758835 -247.968166 
L 373.656659 -244.855149 
L 413.554484 -235.107974 
L 453.452308 -216.129872 
L 493.350133 -185.765386 
L 533.247957 -135.132272 
L 533.247957 21.605187 
L 533.247957 21.605187 
L 493.350133 -148.902171 
L 453.452308 -204.328527 
L 413.554484 -223.664782 
L 373.656659 -233.907705 
L 333.758835 -239.123896 
L 293.86101 -236.973096 
L 253.963185 -238.017534 
L 214.065361 -228.581911 
L 174.167536 -221.186462 
L 134.269712 -200.802283 
L 94.371887 -181.193219 
L 54.474063 -165.730131 
z
"/>
    </defs>
    <g clip-path="url(#p46029e51c5)">
     <use xlink:href="#mfeff3b0994" x="0" y="296.39952" style="fill: #ff7f0e; fill-opacity: 0.2"/>
    </g>
   </g>
   <g id="PolyCollection_4">
    <path d="M 54.474063 132.811803 
L 54.474063 111.992948 
L 94.371887 136.432822 
L 134.269712 158.028695 
L 174.167536 189.113013 
L 214.065361 213.795806 
L 253.963185 251.395603 
L 293.86101 284.213269 
L 333.758835 319.271112 
L 373.656659 366.772408 
L 413.554484 440.512462 
L 453.452308 507.77651 
L 493.350133 585.980148 
L 533.247957 655.533434 
L 533.247957 698.305356 
L 533.247957 698.305356 
L 493.350133 598.77572 
L 453.452308 526.637155 
L 413.554484 461.050336 
L 373.656659 407.769968 
L 333.758835 348.657403 
L 293.86101 305.837151 
L 253.963185 257.44504 
L 214.065361 235.907461 
L 174.167536 203.118719 
L 134.269712 171.733976 
L 94.371887 142.938141 
L 54.474063 132.811803 
z
" clip-path="url(#p46029e51c5)" style="fill: #bcbd22; fill-opacity: 0.2"/>
   </g>
   <g id="PolyCollection_5">
    <defs>
     <path id="m921e5cf5c6" d="M 54.474063 -154.082874 
L 54.474063 -170.589633 
L 94.371887 -198.964377 
L 134.269712 -216.234505 
L 174.167536 -229.676556 
L 214.065361 -241.219873 
L 253.963185 -245.064366 
L 293.86101 -248.463023 
L 333.758835 -256.652274 
L 373.656659 -244.838027 
L 413.554484 -231.754102 
L 453.452308 -227.450149 
L 493.350133 -206.164971 
L 533.247957 -166.483498 
L 533.247957 -124.039257 
L 533.247957 -124.039257 
L 493.350133 -168.482784 
L 453.452308 -212.165428 
L 413.554484 -224.936351 
L 373.656659 -237.672971 
L 333.758835 -242.51714 
L 293.86101 -241.544263 
L 253.963185 -237.863093 
L 214.065361 -224.216249 
L 174.167536 -211.604862 
L 134.269712 -195.478226 
L 94.371887 -179.847982 
L 54.474063 -154.082874 
z
"/>
    </defs>
    <g clip-path="url(#p46029e51c5)">
     <use xlink:href="#m921e5cf5c6" x="0" y="296.39952" style="fill: #d62728; fill-opacity: 0.2"/>
    </g>
   </g>
   <g id="PolyCollection_6">
    <defs>
     <path id="m8ff90d0441" d="M 54.474063 -159.48377 
L 54.474063 -173.934406 
L 94.371887 -204.86403 
L 134.269712 -213.682339 
L 174.167536 -223.356028 
L 214.065361 -235.751998 
L 253.963185 -250.103724 
L 293.86101 -253.600653 
L 333.758835 -248.797988 
L 373.656659 -242.711458 
L 413.554484 -232.107722 
L 453.452308 -212.265749 
L 493.350133 -183.816603 
L 533.247957 -148.245053 
L 533.247957 -67.731291 
L 533.247957 -67.731291 
L 493.350133 -141.272365 
L 453.452308 -188.619011 
L 413.554484 -207.924315 
L 373.656659 -216.477758 
L 333.758835 -218.720435 
L 293.86101 -219.331756 
L 253.963185 -215.332398 
L 214.065361 -206.778802 
L 174.167536 -202.516356 
L 134.269712 -186.785961 
L 94.371887 -177.280012 
L 54.474063 -159.48377 
z
"/>
    </defs>
    <g clip-path="url(#p46029e51c5)">
     <use xlink:href="#m8ff90d0441" x="0" y="296.39952" style="fill: #2ca02c; fill-opacity: 0.1"/>
    </g>
   </g>
   <g id="PolyCollection_7">
    <path d="M 54.474063 153.545508 
L 54.474063 131.655901 
L 94.371887 110.280795 
L 134.269712 103.96306 
L 174.167536 84.15879 
L 214.065361 75.496958 
L 253.963185 76.425572 
L 293.86101 68.071921 
L 333.758835 62.236821 
L 373.656659 65.106294 
L 413.554484 83.165029 
L 453.452308 106.384691 
L 493.350133 115.899469 
L 533.247957 182.520759 
L 533.247957 482.492533 
L 533.247957 482.492533 
L 493.350133 354.765638 
L 453.452308 117.180579 
L 413.554484 109.304532 
L 373.656659 95.712277 
L 333.758835 87.476138 
L 293.86101 86.638563 
L 253.963185 80.506034 
L 214.065361 95.316662 
L 174.167536 98.315721 
L 134.269712 107.386039 
L 94.371887 129.38761 
L 54.474063 153.545508 
z
" clip-path="url(#p46029e51c5)" style="fill: #9467bd; fill-opacity: 0.2"/>
   </g>
   <g id="line2d_29">
    <path d="M 54.474063 121.985915 
L 533.247957 121.985915 
" clip-path="url(#p46029e51c5)" style="fill: none; stroke-dasharray: 12.8,3.2,2,3.2; stroke-dashoffset: 0; stroke: #7f7f7f; stroke-opacity: 0.8; stroke-width: 2"/>
   </g>
   <g id="line2d_30">
    <path d="M 54.474063 119.070692 
L 94.371887 90.543155 
L 134.269712 70.761286 
L 174.167536 50.146496 
L 214.065361 44.940741 
L 253.963185 39.943216 
L 293.86101 31.405778 
L 333.758835 32.86339 
L 373.656659 41.400828 
L 413.554484 49.730036 
L 453.452308 62.015617 
L 493.350133 77.632882 
L 533.247957 110.116793 
" clip-path="url(#p46029e51c5)" style="fill: none; stroke-dasharray: 7.4,3.2; stroke-dashoffset: 0; stroke: #1f77b4; stroke-opacity: 0.8; stroke-width: 2"/>
   </g>
   <g id="line2d_31">
    <path d="M 54.474063 121.985915 
L 94.371887 107.618031 
L 134.269712 88.669083 
L 174.167536 72.427127 
L 214.065361 60.974467 
L 253.963185 54.727561 
L 293.86101 53.478179 
L 333.758835 52.853489 
L 373.656659 57.018093 
L 413.554484 67.013142 
L 453.452308 86.170321 
L 493.350133 129.065742 
L 533.247957 239.635977 
" clip-path="url(#p46029e51c5)" style="fill: none; stroke-dasharray: 7.4,3.2; stroke-dashoffset: 0; stroke: #ff7f0e; stroke-opacity: 0.8; stroke-width: 2"/>
   </g>
   <g id="line2d_32">
    <path d="M 54.474063 122.402375 
L 94.371887 139.685482 
L 134.269712 164.881336 
L 174.167536 196.115866 
L 214.065361 224.851633 
L 253.963185 254.420321 
L 293.86101 295.02521 
L 296.293781 297.39952 
" clip-path="url(#p46029e51c5)" style="fill: none; stroke-dasharray: 7.4,3.2; stroke-dashoffset: 0; stroke: #bcbd22; stroke-opacity: 0.8; stroke-width: 2"/>
   </g>
   <g id="line2d_33">
    <path d="M 54.474063 134.063266 
L 94.371887 106.99334 
L 134.269712 90.543155 
L 174.167536 75.758811 
L 214.065361 63.681459 
L 253.963185 54.935791 
L 293.86101 51.395877 
L 333.758835 46.814813 
L 373.656659 55.144021 
L 413.554484 68.054293 
L 453.452308 76.591731 
L 493.350133 109.075642 
L 533.247957 151.138143 
" clip-path="url(#p46029e51c5)" style="fill: none; stroke: #d62728; stroke-opacity: 0.8; stroke-width: 2; stroke-linecap: round"/>
    <defs>
     <path id="m9ce5f66d37" d="M 0 -3 
L -3 3 
L 3 3 
z
" style="stroke: #ffffff; stroke-opacity: 0.8; stroke-linejoin: miter"/>
    </defs>
    <g clip-path="url(#p46029e51c5)">
     <use xlink:href="#m9ce5f66d37" x="54.474063" y="134.063266" style="fill: #d62728; fill-opacity: 0.8; stroke: #ffffff; stroke-opacity: 0.8; stroke-linejoin: miter"/>
     <use xlink:href="#m9ce5f66d37" x="94.371887" y="106.99334" style="fill: #d62728; fill-opacity: 0.8; stroke: #ffffff; stroke-opacity: 0.8; stroke-linejoin: miter"/>
     <use xlink:href="#m9ce5f66d37" x="134.269712" y="90.543155" style="fill: #d62728; fill-opacity: 0.8; stroke: #ffffff; stroke-opacity: 0.8; stroke-linejoin: miter"/>
     <use xlink:href="#m9ce5f66d37" x="174.167536" y="75.758811" style="fill: #d62728; fill-opacity: 0.8; stroke: #ffffff; stroke-opacity: 0.8; stroke-linejoin: miter"/>
     <use xlink:href="#m9ce5f66d37" x="214.065361" y="63.681459" style="fill: #d62728; fill-opacity: 0.8; stroke: #ffffff; stroke-opacity: 0.8; stroke-linejoin: miter"/>
     <use xlink:href="#m9ce5f66d37" x="253.963185" y="54.935791" style="fill: #d62728; fill-opacity: 0.8; stroke: #ffffff; stroke-opacity: 0.8; stroke-linejoin: miter"/>
     <use xlink:href="#m9ce5f66d37" x="293.86101" y="51.395877" style="fill: #d62728; fill-opacity: 0.8; stroke: #ffffff; stroke-opacity: 0.8; stroke-linejoin: miter"/>
     <use xlink:href="#m9ce5f66d37" x="333.758835" y="46.814813" style="fill: #d62728; fill-opacity: 0.8; stroke: #ffffff; stroke-opacity: 0.8; stroke-linejoin: miter"/>
     <use xlink:href="#m9ce5f66d37" x="373.656659" y="55.144021" style="fill: #d62728; fill-opacity: 0.8; stroke: #ffffff; stroke-opacity: 0.8; stroke-linejoin: miter"/>
     <use xlink:href="#m9ce5f66d37" x="413.554484" y="68.054293" style="fill: #d62728; fill-opacity: 0.8; stroke: #ffffff; stroke-opacity: 0.8; stroke-linejoin: miter"/>
     <use xlink:href="#m9ce5f66d37" x="453.452308" y="76.591731" style="fill: #d62728; fill-opacity: 0.8; stroke: #ffffff; stroke-opacity: 0.8; stroke-linejoin: miter"/>
     <use xlink:href="#m9ce5f66d37" x="493.350133" y="109.075642" style="fill: #d62728; fill-opacity: 0.8; stroke: #ffffff; stroke-opacity: 0.8; stroke-linejoin: miter"/>
     <use xlink:href="#m9ce5f66d37" x="533.247957" y="151.138143" style="fill: #d62728; fill-opacity: 0.8; stroke: #ffffff; stroke-opacity: 0.8; stroke-linejoin: miter"/>
    </g>
   </g>
   <g id="line2d_34">
    <path d="M 54.474063 129.690432 
L 94.371887 105.327499 
L 134.269712 96.16537 
L 174.167536 83.463328 
L 214.065361 75.13412 
L 253.963185 63.681459 
L 293.86101 59.933316 
L 333.758835 62.640308 
L 373.656659 66.804912 
L 413.554484 76.383501 
L 453.452308 95.95714 
L 493.350133 133.855036 
L 533.247957 188.411348 
" clip-path="url(#p46029e51c5)" style="fill: none; stroke: #2ca02c; stroke-opacity: 0.8; stroke-width: 2; stroke-linecap: round"/>
    <defs>
     <path id="m1ce6c0fd76" d="M 0 3 
C 0.795609 3 1.55874 2.683901 2.12132 2.12132 
C 2.683901 1.55874 3 0.795609 3 0 
C 3 -0.795609 2.683901 -1.55874 2.12132 -2.12132 
C 1.55874 -2.683901 0.795609 -3 0 -3 
C -0.795609 -3 -1.55874 -2.683901 -2.12132 -2.12132 
C -2.683901 -1.55874 -3 -0.795609 -3 0 
C -3 0.795609 -2.683901 1.55874 -2.12132 2.12132 
C -1.55874 2.683901 -0.795609 3 0 3 
z
" style="stroke: #ffffff; stroke-opacity: 0.8"/>
    </defs>
    <g clip-path="url(#p46029e51c5)">
     <use xlink:href="#m1ce6c0fd76" x="54.474063" y="129.690432" style="fill: #2ca02c; fill-opacity: 0.8; stroke: #ffffff; stroke-opacity: 0.8"/>
     <use xlink:href="#m1ce6c0fd76" x="94.371887" y="105.327499" style="fill: #2ca02c; fill-opacity: 0.8; stroke: #ffffff; stroke-opacity: 0.8"/>
     <use xlink:href="#m1ce6c0fd76" x="134.269712" y="96.16537" style="fill: #2ca02c; fill-opacity: 0.8; stroke: #ffffff; stroke-opacity: 0.8"/>
     <use xlink:href="#m1ce6c0fd76" x="174.167536" y="83.463328" style="fill: #2ca02c; fill-opacity: 0.8; stroke: #ffffff; stroke-opacity: 0.8"/>
     <use xlink:href="#m1ce6c0fd76" x="214.065361" y="75.13412" style="fill: #2ca02c; fill-opacity: 0.8; stroke: #ffffff; stroke-opacity: 0.8"/>
     <use xlink:href="#m1ce6c0fd76" x="253.963185" y="63.681459" style="fill: #2ca02c; fill-opacity: 0.8; stroke: #ffffff; stroke-opacity: 0.8"/>
     <use xlink:href="#m1ce6c0fd76" x="293.86101" y="59.933316" style="fill: #2ca02c; fill-opacity: 0.8; stroke: #ffffff; stroke-opacity: 0.8"/>
     <use xlink:href="#m1ce6c0fd76" x="333.758835" y="62.640308" style="fill: #2ca02c; fill-opacity: 0.8; stroke: #ffffff; stroke-opacity: 0.8"/>
     <use xlink:href="#m1ce6c0fd76" x="373.656659" y="66.804912" style="fill: #2ca02c; fill-opacity: 0.8; stroke: #ffffff; stroke-opacity: 0.8"/>
     <use xlink:href="#m1ce6c0fd76" x="413.554484" y="76.383501" style="fill: #2ca02c; fill-opacity: 0.8; stroke: #ffffff; stroke-opacity: 0.8"/>
     <use xlink:href="#m1ce6c0fd76" x="453.452308" y="95.95714" style="fill: #2ca02c; fill-opacity: 0.8; stroke: #ffffff; stroke-opacity: 0.8"/>
     <use xlink:href="#m1ce6c0fd76" x="493.350133" y="133.855036" style="fill: #2ca02c; fill-opacity: 0.8; stroke: #ffffff; stroke-opacity: 0.8"/>
     <use xlink:href="#m1ce6c0fd76" x="533.247957" y="188.411348" style="fill: #2ca02c; fill-opacity: 0.8; stroke: #ffffff; stroke-opacity: 0.8"/>
    </g>
   </g>
   <g id="line2d_35">
    <path d="M 54.474063 142.600704 
L 94.371887 119.834203 
L 134.269712 105.674549 
L 174.167536 91.237255 
L 214.065361 85.40681 
L 253.963185 78.465803 
L 293.86101 77.355242 
L 333.758835 74.85648 
L 373.656659 80.409285 
L 413.554484 96.23478 
L 453.452308 111.782635 
L 493.350133 235.332553 
L 518.833643 297.39952 
" clip-path="url(#p46029e51c5)" style="fill: none; stroke: #9467bd; stroke-opacity: 0.8; stroke-width: 2; stroke-linecap: round"/>
    <defs>
     <path id="m74ab056ba3" d="M -1.5 3 
L 0 1.5 
L 1.5 3 
L 3 1.5 
L 1.5 0 
L 3 -1.5 
L 1.5 -3 
L 0 -1.5 
L -1.5 -3 
L -3 -1.5 
L -1.5 0 
L -3 1.5 
z
" style="stroke: #ffffff; stroke-opacity: 0.8; stroke-linejoin: miter"/>
    </defs>
    <g clip-path="url(#p46029e51c5)">
     <use xlink:href="#m74ab056ba3" x="54.474063" y="142.600704" style="fill: #9467bd; fill-opacity: 0.8; stroke: #ffffff; stroke-opacity: 0.8; stroke-linejoin: miter"/>
     <use xlink:href="#m74ab056ba3" x="94.371887" y="119.834203" style="fill: #9467bd; fill-opacity: 0.8; stroke: #ffffff; stroke-opacity: 0.8; stroke-linejoin: miter"/>
     <use xlink:href="#m74ab056ba3" x="134.269712" y="105.674549" style="fill: #9467bd; fill-opacity: 0.8; stroke: #ffffff; stroke-opacity: 0.8; stroke-linejoin: miter"/>
     <use xlink:href="#m74ab056ba3" x="174.167536" y="91.237255" style="fill: #9467bd; fill-opacity: 0.8; stroke: #ffffff; stroke-opacity: 0.8; stroke-linejoin: miter"/>
     <use xlink:href="#m74ab056ba3" x="214.065361" y="85.40681" style="fill: #9467bd; fill-opacity: 0.8; stroke: #ffffff; stroke-opacity: 0.8; stroke-linejoin: miter"/>
     <use xlink:href="#m74ab056ba3" x="253.963185" y="78.465803" style="fill: #9467bd; fill-opacity: 0.8; stroke: #ffffff; stroke-opacity: 0.8; stroke-linejoin: miter"/>
     <use xlink:href="#m74ab056ba3" x="293.86101" y="77.355242" style="fill: #9467bd; fill-opacity: 0.8; stroke: #ffffff; stroke-opacity: 0.8; stroke-linejoin: miter"/>
     <use xlink:href="#m74ab056ba3" x="333.758835" y="74.85648" style="fill: #9467bd; fill-opacity: 0.8; stroke: #ffffff; stroke-opacity: 0.8; stroke-linejoin: miter"/>
     <use xlink:href="#m74ab056ba3" x="373.656659" y="80.409285" style="fill: #9467bd; fill-opacity: 0.8; stroke: #ffffff; stroke-opacity: 0.8; stroke-linejoin: miter"/>
     <use xlink:href="#m74ab056ba3" x="413.554484" y="96.23478" style="fill: #9467bd; fill-opacity: 0.8; stroke: #ffffff; stroke-opacity: 0.8; stroke-linejoin: miter"/>
     <use xlink:href="#m74ab056ba3" x="453.452308" y="111.782635" style="fill: #9467bd; fill-opacity: 0.8; stroke: #ffffff; stroke-opacity: 0.8; stroke-linejoin: miter"/>
     <use xlink:href="#m74ab056ba3" x="493.350133" y="235.332553" style="fill: #9467bd; fill-opacity: 0.8; stroke: #ffffff; stroke-opacity: 0.8; stroke-linejoin: miter"/>
     <use xlink:href="#m74ab056ba3" x="533.247957" y="332.506646" style="fill: #9467bd; fill-opacity: 0.8; stroke: #ffffff; stroke-opacity: 0.8; stroke-linejoin: miter"/>
    </g>
   </g>
   <g id="patch_3">
    <path d="M 54.474063 260.875458 
L 54.474063 10.999219 
" style="fill: none; stroke: #262626; stroke-width: 0.6; stroke-linejoin: miter; stroke-linecap: square"/>
   </g>
   <g id="patch_4">
    <path d="M 54.474063 260.875458 
L 533.247957 260.875458 
" style="fill: none; stroke: #262626; stroke-width: 0.6; stroke-linejoin: miter; stroke-linecap: square"/>
   </g>
  </g>
 </g>
 <defs>
  <clipPath id="p46029e51c5">
   <rect x="54.474063" y="10.999219" width="478.773895" height="249.876239"/>
  </clipPath>
 </defs>
</svg>
